<?xml version="1.0" encoding="utf-8"?>
<!-- Generator: Adobe Illustrator 16.0.0, SVG Export Plug-In . SVG Version: 6.00 Build 0)  -->
<!DOCTYPE svg PUBLIC "-//W3C//DTD SVG 1.1//EN" "http://www.w3.org/Graphics/SVG/1.1/DTD/svg11.dtd">
<svg version="1.1" xmlns="http://www.w3.org/2000/svg" xmlns:xlink="http://www.w3.org/1999/xlink" x="0px" y="0px" width="48.75px"
	 height="32px" viewBox="0 0 48.75 32" enable-background="new 0 0 48.75 32" xml:space="preserve">
<g id="Selected_Items">
	<path fill="#FFFFFF" d="M48.746,7.639c-0.056-2.788-0.781-4.516-1.505-5.63c-0.725-1.115-1.115-1.06-1.115-1.06
		s-1.227-0.278-2.063-0.446c-0.836-0.167-2.397-0.334-2.397-0.334s-0.558,0.111-0.836,0.39c-0.278,0.279-0.446,0.502-0.446,0.502
		s-0.558-0.056-1.003,0.279s-1.059,0.892-1.059,0.892s-1.021,0.035-1.84-0.056c-1.003-0.111-3.735-1.672-3.735-1.672
		s-0.836,0.056-1.84,0.334s-2.007,0.558-2.007,0.558s-0.725,0.446-1.171,0.78c-0.446,0.334-0.725,0.558-0.725,0.558
		s-0.279-0.056-0.725,0.39c-0.446,0.446-3.568,4.46-3.512,7.359c0.056,2.898,1.338,6.355,1.45,6.913
		c0.111,0.557,0.278,1.449,0.278,1.449s-0.725,0.279-0.725,0.502c0,0.223,0,2.787,0.279,3.01s0.334,0.111,0.558,0
		c0.223-0.111,0.223-0.111,0.223-0.111v1.951c0,0-0.669,0.39-0.725,0.725s0.167,3.122,0.167,3.289c0,0.167,0.446-0.279,0.446-0.279
		l0.334-0.223c0,0,0,1.505,0,1.729c0,0.223-0.39,0.278-0.334,0.613c0.056,0.334-0.167,1.449,8.028,1.672
		c8.195,0.223,8.808,0.056,9.477-0.056c0.669-0.111,0.948-0.613,0.948-1.059c0-0.446,0.111-1.115,0.111-1.115
		s0.279-0.167,0.725-0.167c0.446,0,0.446,0,0.446,0s-0.056,0.669,0,1.06c0.056,0.39,0.39,0.836,0.892,0.557
		c0.502-0.279,0.781-0.669,0.725-0.892c-0.056-0.223-0.056-0.223-0.056-0.223l-0.167-0.781c0,0,0.279,0.056,0.279-0.501
		s-0.112-1.617-0.056-2.174c0.056-0.557,0.223-1.449,0.223-1.449l-0.334-0.111c0,0,0-0.613,0.111-1.004
		c0.112-0.39,0.112-0.39,0.112-0.39l0.334-0.167c0,0,0.334-1.282,0.446-2.174c0.112-0.892,0.334-1.338,0.334-1.338l-0.613-0.279
		c0,0-0.056-0.613,0.279-0.836c0.334-0.223,0.558-0.39,0.725-0.613c0.167-0.223,0-0.613-0.056-0.836S47.519,16,47.909,14.105
		C48.299,12.21,48.801,10.426,48.746,7.639z M30.739,7.193c-1.561,0.223-1.617-0.502-1.617-1.06c0-0.557,0.167-1.784,0.501-2.118
		s1.059-0.892,1.059-0.892s0.669,0.669,1.115,1.45c0.446,0.78,0.669,1.951,0.669,1.951S32.3,6.97,30.739,7.193z M34.976,5.242
		c-0.78,0.613-1.839,1.115-1.839,1.115S32.69,5.074,32.3,4.294c-0.39-0.781-1.059-1.505-1.059-1.505s0.223-0.279,0.558-0.613
		s0.78-0.948,0.78-0.948s0.558,0.334,2.063,1.115c1.505,0.78,3.122,0.613,3.122,0.613S35.756,4.628,34.976,5.242z M44.955,24.92
		c-0.167,0.613-0.056,0.334-0.446,0.446c-0.391,0.112-1.06,0.167-1.06,0.167l0.056-2.397c0,0,0.557-0.056,1.003-0.056
		c0.446,0,1.115,0.056,1.115,0.056S45.122,24.307,44.955,24.92z M47.24,13.213c-0.39,1.394-0.334,2.174-0.446,2.899
		c-0.112,0.725,0.167,1.282,0.167,1.282s-0.39,0.557-0.725,0.78s-0.279,1.227-0.279,1.227s-0.613,0-1.059,0s-1.45-0.056-1.45-0.056
		s0.167-0.781-0.056-1.505c-0.223-0.725-1.561-1.951-2.229-2.843c-0.669-0.892-0.502-2.731-0.391-5.073
		c0.112-2.341,1.394-5.185,1.84-6.132c0.446-0.948,1.672-1.728,2.62-2.118c0,0,0.836,0.056,1.338,0.725s1.449,3.624,1.394,5.296
		S47.63,11.82,47.24,13.213z"/>
	<path fill="#FFFFFF" d="M19.429,16.983c0,0-0.133-1.724-0.265-2.52c-0.133-0.796-0.802-1.316-0.802-1.316s0.265-7.56-7.494-7.56
		c-2.973,0-5.503,1.159-6.838,2.588c-2.149,2.301-2.048,5.303-2.048,5.303s-0.929,0.117-1.658,0.357c-0.729,0.24,0,0.704,0,0.704
		S1.06,14.75,2.121,14.75c1.061,0,1.32,0.047,1.32,0.047s0,0,0,0.527c0,0.107-0.304,0.049-0.304,0.178
		c0,0.353,0.044,1.156,0.044,1.68c0,0.265,0.267,0.101,0.279,0.265c0.008,0.113-0.16,0.143-0.146,0.266
		c0.025,0.221,0.06,0.456,0.102,0.7c0.021,0.119,0.14,0.194,0.163,0.316c0.335,1.713,0.856,3.702,0.856,3.702
		s-0.295,0.032-0.312,0.454c-0.036,0.897,0.336,1.784,0.663,2.387c0.126,0.232,0.279,0.27,0.751,0.663
		c0.531,0.442,1.896,0.651,2.697,0.302c1.525-0.663,1.837-1.153,1.837-1.153s2.719-0.266,3.847-0.729
		c1.127-0.464,2.697-2.597,3.161-3.061c0.149-0.149,0.41,0.069,0.6-0.174c0.4-0.515,0.785-0.97,0.843-1.506
		c0.093-0.856,0.104-1.626,0.104-1.626s0,0,0.53-0.066C19.688,17.855,19.429,16.983,19.429,16.983z M5.098,25.161
		c0.666,0.012,1.811-0.021,1.811-0.021C5.937,25.67,4.739,25.154,5.098,25.161z M9.94,22.875c-0.022,0.499-0.243,0.718-0.243,0.718
		s-0.818,0.032-1.282,0.032c-0.464,0-0.928,0-0.928,0s1.24-1.27,1.589-1.602c0.349-0.331,1.152-0.22,1.152-0.22
		C9.913,22.385,9.963,22.345,9.94,22.875z M10.559,18.982c0.133,0.862,0.221,1.547,0.221,1.547s-1.834,0.443-2.431,0.907
		c-0.597,0.464-0.796,1.062-1.525,1.491s-1.26-0.032-1.857-0.629c-0.378-0.379-0.277-2.252-0.151-3.57
		c0.012-0.126,0.124-0.15,0.135-0.264c0.03-0.288,0.074-0.47,0.044-0.664c-0.03-0.193-0.132-0.397-0.132-0.397
		s1.961-0.012,2.956-0.012s3.846-0.332,3.846-0.332l0.044,0.685l-1.282,0.376C10.426,18.12,10.426,18.12,10.559,18.982z
		 M14.118,22.696c-1.629,0.618-2.346,0.853-2.346,0.853s-0.078-1.035,0.555-1.648c0.086-0.083,0.067-0.372,0.18-0.32
		c0.317,0.146,0.814-1.181,0.621-1.228c-0.183-0.043,0.127-0.274,0.127-0.274s0.83,0.009,1.559,0.057
		c0.862,0.057,1.954,0.451,1.954,0.451C16.768,20.984,15.591,22.136,14.118,22.696z M14.096,17.612l0.022-0.553h1.923l0.531,0.597
		L14.096,17.612z"/>
</g>
<g id="guides">
</g>
</svg>
