<?xml version="1.0" encoding="utf-8"?>
<!-- Generator: Adobe Illustrator 16.0.0, SVG Export Plug-In . SVG Version: 6.00 Build 0)  -->
<!DOCTYPE svg PUBLIC "-//W3C//DTD SVG 1.1//EN" "http://www.w3.org/Graphics/SVG/1.1/DTD/svg11.dtd">
<svg version="1.1" id="Layer_1" xmlns="http://www.w3.org/2000/svg" xmlns:xlink="http://www.w3.org/1999/xlink" x="0px" y="0px"
	 width="35.109px" height="39.937px" viewBox="0 0 35.109 39.937" enable-background="new 0 0 35.109 39.937" xml:space="preserve">
<path fill-rule="evenodd" clip-rule="evenodd" fill="#FFFFFF" d="M29.543,1.792c1.766,6.167,1.533,12.05-0.7,17.65
	c-1.333-0.466-3.384-0.966-6.15-1.5l-3.649-0.75l-0.15-0.3c-0.033-0.1-0.15-0.167-0.35-0.2c-5.066-0.233-8.883-0.15-11.45,0.25
	c-0.133,0-0.25,0.067-0.35,0.2c-0.067,0.1-0.083,0.217-0.05,0.35c-1.5,0.2-2.966,0.5-4.4,0.9c-0.8-4.767-0.967-9.533-0.5-14.3
	c9.7,0.367,18.95-0.417,27.75-2.35V1.792z M30.443,1.542c0.034,0,0.083,0,0.15,0c0.5-0.133,1.017-0.267,1.55-0.4
	c2.133,7,1.85,13.4-0.85,19.2c-0.467-0.167-0.95-0.333-1.45-0.5v-0.05C32.11,13.993,32.309,7.909,30.443,1.542z M7.193,17.493
	c3.767-0.567,7.517-0.667,11.25-0.3c-0.667,4.866-0.716,11.851-0.15,20.95h-8.4c-0.133-6.633-1.25-12.867-3.35-18.7l0.55-1.95
	C7.126,17.493,7.16,17.493,7.193,17.493z"/>
</svg>
