<?xml version="1.0" encoding="utf-8"?>
<!-- Generator: Adobe Illustrator 16.0.0, SVG Export Plug-In . SVG Version: 6.00 Build 0)  -->
<!DOCTYPE svg PUBLIC "-//W3C//DTD SVG 1.1//EN" "http://www.w3.org/Graphics/SVG/1.1/DTD/svg11.dtd">
<svg version="1.1" id="Layer_1" xmlns="http://www.w3.org/2000/svg" xmlns:xlink="http://www.w3.org/1999/xlink" x="0px" y="0px"
	 width="29.624px" height="29.438px" viewBox="0 0 29.624 29.438" enable-background="new 0 0 29.624 29.438" xml:space="preserve">
<g>
	<path fill-rule="evenodd" clip-rule="evenodd" fill="#FFFFFF" d="M17.687,4.826c0,0.123-0.006,0.244-0.016,0.361
		c1.9,0.492,3.595,1.483,5.082,2.971c2.227,2.225,3.339,4.911,3.339,8.059c0,0.82-0.076,1.612-0.228,2.371
		c0.437,0.159,0.834,0.415,1.188,0.771c0.642,0.64,0.961,1.414,0.961,2.32c0,0.908-0.319,1.681-0.961,2.321
		c-0.641,0.642-1.414,0.961-2.321,0.961c-0.759,0-1.423-0.224-1.996-0.672c-2.219,2.213-4.898,3.319-8.036,3.319
		c-2.937,0-5.473-0.972-7.606-2.908c-0.6,0.516-1.306,0.772-2.121,0.772c-0.907,0-1.681-0.321-2.321-0.961s-0.961-1.413-0.961-2.32
		S2.01,20.511,2.65,19.87c0.309-0.309,0.648-0.542,1.017-0.701c-0.239-0.936-0.361-1.92-0.361-2.952
		c0-3.148,1.113-5.833,3.335-8.059c1.34-1.339,2.847-2.274,4.52-2.807c-0.026-0.17-0.038-0.345-0.038-0.525
		c0-0.907,0.321-1.681,0.961-2.321c0.64-0.641,1.414-0.96,2.321-0.96c0.907,0,1.681,0.32,2.321,0.96
		C17.368,3.145,17.687,3.919,17.687,4.826z M6.063,20.143l-1.916,0.944l1.416,2.446l1.846-1.277c0.193,0.23,0.403,0.458,0.622,0.678
		c1.862,1.863,4.113,2.795,6.751,2.795c2.636,0,4.884-0.932,6.747-2.795c0.349-0.347,0.664-0.708,0.947-1.083l1.95,1.308l1.415-2.45
		l-2.148-1.021c0.422-1.081,0.634-2.247,0.634-3.505c0-2.635-0.934-4.886-2.798-6.75c-1.581-1.582-3.443-2.492-5.583-2.73
		l0.144-2.127h-2.829l0.173,2.15c-2.065,0.269-3.866,1.171-5.403,2.708c-1.864,1.864-2.795,4.114-2.795,6.75
		C5.236,17.618,5.511,18.938,6.063,20.143z"/>
	<path fill-rule="evenodd" clip-rule="evenodd" fill="#999999" d="M13.46,7.05l-0.026-0.324l-0.173-2.15h2.829l-0.144,2.127
		L15.924,7.03l-0.145,2.173l-0.102,1.491l-0.122,1.833h-1.655l-0.141-1.777l-0.122-1.503L13.46,7.05z M9.818,18.29l1.473-0.729
		l0.832,1.432l-1.264,0.875L9.642,20.71l-1.974,1.365l-0.259,0.181l-1.846,1.277l-1.416-2.446l1.916-0.944l0.283-0.141l2.139-1.055
		L9.818,18.29z M22.213,21.675l-1.884-1.264l-1.19-0.798l-1.332-0.893l0.828-1.434l1.445,0.686l1.3,0.618l2.024,0.959l0.289,0.138
		l2.148,1.021l-1.415,2.45l-1.95-1.308L22.213,21.675z"/>
	<path fill-rule="evenodd" clip-rule="evenodd" fill="#CCCCCC" d="M15.924,7.03c2.062,0.233,3.854,1.112,5.379,2.636
		c1.8,1.802,2.702,3.976,2.702,6.522c0,1.205-0.201,2.325-0.602,3.362l-2.024-0.959c0.289-0.77,0.435-1.6,0.435-2.487
		c0-1.921-0.678-3.56-2.037-4.917c-1.135-1.136-2.469-1.797-3.998-1.984L15.924,7.03z M13.46,7.05l0.178,2.196
		C12.232,9.478,11,10.124,9.939,11.186c-1.36,1.357-2.038,2.996-2.038,4.917c0,1.03,0.193,1.977,0.584,2.844l-2.139,1.055
		c-0.528-1.16-0.793-2.432-0.793-3.814c0-2.546,0.901-4.72,2.704-6.522C9.738,8.184,11.473,7.313,13.46,7.05z M15.678,10.693
		c1.182,0.157,2.213,0.675,3.092,1.556c1.073,1.072,1.609,2.368,1.609,3.884c0,0.655-0.1,1.268-0.299,1.84l-1.445-0.686
		l-0.828,1.434l1.332,0.893c-0.114,0.138-0.237,0.271-0.369,0.401c-1.07,1.074-2.367,1.611-3.882,1.611
		c-1.517,0-2.813-0.537-3.886-1.611c-0.05-0.048-0.098-0.099-0.143-0.146l1.264-0.875l-0.832-1.432L9.818,18.29
		c-0.281-0.66-0.422-1.38-0.422-2.157c0-1.517,0.536-2.812,1.606-3.884c0.796-0.794,1.715-1.294,2.758-1.5l0.141,1.777h1.655
		L15.678,10.693z M20.329,20.411l1.884,1.264c-0.273,0.358-0.576,0.706-0.909,1.039c-1.801,1.8-3.976,2.701-6.523,2.701
		c-2.55,0-4.725-0.901-6.523-2.701c-0.209-0.207-0.405-0.419-0.588-0.639l1.974-1.365c0.096,0.106,0.194,0.209,0.297,0.313
		c1.358,1.359,2.997,2.038,4.917,2.038c1.924,0,3.563-0.679,4.921-2.038C19.974,20.826,20.16,20.621,20.329,20.411z"/>
</g>
</svg>
