<svg width="32" height="32" viewBox="0 0 32 32" fill="none" xmlns="http://www.w3.org/2000/svg">
<path fill-rule="evenodd" clip-rule="evenodd" d="M9.9674 2.84589L9.90823 3.35962H8.92615L8.40552 2.22942C8.39802 2.22146 8.38976 2.21245 8.38069 2.20254C8.24658 2.0562 7.93456 1.71569 7.26961 1.71569C6.61174 1.71569 6.36173 1.87683 6.05572 2.07406L6.0272 2.09242C5.70773 2.29791 5.54728 2.63895 5.53024 3.01713C5.50308 3.6195 5.57974 4.26193 5.61731 4.57685L5.62726 4.66106H4.39434C4.27601 5.16337 4.03227 6.33923 4.00387 7.0242C3.97547 7.70917 4.11036 9.11335 4.18136 9.72983H4.39434V15.4836H6.41768V18.0179L5.81422 18.6002C5.77583 18.6588 5.69696 18.7413 5.60342 18.8392C5.35101 19.1032 4.99184 19.479 5.03328 19.7988C5.07942 20.155 5.24772 20.6799 5.36965 21.0602C5.43534 21.2651 5.48757 21.4281 5.5 21.5C5.51273 21.5737 5.68178 21.774 5.88151 22.0106C6.06744 22.2308 6.27995 22.4826 6.41768 22.693V25.9978L6.1692 29.5939C6.08637 30.0734 5.97041 31.0872 6.1692 31.3063C6.36798 31.5255 7.08029 31.5803 7.4116 31.5803C9.00898 31.7744 12.2392 32.1215 12.3812 31.9571C12.5232 31.7927 12.7717 31.4548 12.8782 31.3063C12.9255 31.3977 13.0628 31.5803 13.2332 31.5803H19.1967L19.5517 31.0666C19.6463 31.3634 19.9918 31.9571 20.6166 31.9571H25.3377C25.6454 31.9571 26.2535 31.7447 26.2251 30.8954C26.1986 30.1001 26.2114 26.9006 26.2228 25.1094C26.5924 24.9501 27.4177 24.265 27.6095 24.0799C27.8225 23.8744 28 23.2941 28 22.984C28 22.5752 27.8504 22.1954 27.7435 21.9239L27.716 21.8538C27.7014 21.816 27.6832 21.7654 27.6615 21.7047L27.6615 21.7047C27.5471 21.3852 27.3337 20.7887 27.0061 20.3468C26.8672 20.1594 26.6633 19.9542 26.4736 19.7792V14.7643V14.5931V11.0313V10.2436L26.7221 3.90759C26.6511 3.74777 26.3103 3.41441 25.5152 3.35962C25.4706 3.35654 25.4205 3.35374 25.3657 3.35119C25.3156 3.29639 25.2258 3.22641 25.1191 3.15236L24.6988 1.98967C24.6041 1.78418 24.287 1.2499 24.2018 1.1677C24.1911 1.15739 24.1772 1.14362 24.1606 1.12716L24.1605 1.12708C24.0114 0.979574 23.6444 0.616291 23.4209 0.585475C23.2316 0.559382 22.8529 0.551226 22.6399 0.585475C22.4269 0.619723 22.1075 1.03071 22.0365 1.1677C22.0284 1.18328 22.0181 1.20274 22.0062 1.22504L22.0062 1.22507C21.9348 1.35969 21.8083 1.59817 21.788 1.71569L21.749 1.96928C21.6552 1.94554 21.5832 1.92885 21.5395 1.92118C21.4746 1.9098 21.3665 1.89273 21.2279 1.8722C20.9315 1.54677 20.5769 1.19646 20.0841 0.790971C19.7305 0.499979 19.4097 0.448486 18.9482 0.448486C18.4867 0.448486 18.2738 0.551232 18.0253 0.893716C17.8853 1.08665 17.7955 1.27939 17.728 1.47044C16.9429 1.27828 15.8704 0.873887 15.1956 0.619443C15.0544 0.566209 14.9306 0.519538 14.8305 0.482748C14.0851 0.20876 13.2686 -0.0309765 12.6297 0.00327189C11.9907 0.0375203 11.3466 0.361733 11.0323 0.551244C10.7483 0.722489 10.4407 1.27046 10.3224 1.5787L10.1449 2.16092L10.0384 2.60615L9.9674 2.84589ZM26.4356 20.9074L26.2453 24.3955C26.3713 24.4049 26.5023 24.3989 26.5801 24.3539L26.6064 24.3388C26.8022 24.2266 27.2612 23.9637 27.4675 23.3949C27.6841 22.798 27.5771 22.4351 27.4991 22.1704L27.499 22.1703C27.4875 22.1313 27.4767 22.0944 27.4675 22.0592C27.4159 21.8599 26.9351 21.2715 26.7576 21.1003C26.6938 21.0388 26.5704 20.9703 26.4356 20.9074ZM6.41768 21.8013V19.7859C6.20022 19.9641 5.75909 20.3325 5.67223 20.7236C5.61387 20.9863 5.94643 21.3177 6.19974 21.5701C6.28916 21.6592 6.36869 21.7384 6.41768 21.8013ZM23.9888 1.71567C24.0971 1.88982 24.2788 2.3385 24.4313 2.73748C23.9068 2.58075 23.0422 2.32607 22.3861 2.14188C22.3884 1.98063 22.4042 1.83436 22.4624 1.64718C22.493 1.54877 22.6399 1.27045 22.7109 1.1677C22.7819 1.06496 23.1724 1.03072 23.3144 1.06497C23.428 1.09236 23.7758 1.37319 23.9888 1.71567ZM22.5334 3.11987V3.3376C23.1856 3.33051 23.8888 3.32669 24.4721 3.33152C24.3363 3.24632 24.1448 3.14106 23.9533 3.08563C23.836 3.05168 23.7275 3.01996 23.6248 2.98994C23.1924 2.86356 22.8623 2.76705 22.406 2.65874L22.5334 3.11987ZM17.5721 2.01008C16.2558 1.751 14.5465 1.03073 14.5465 1.03073C14.0732 0.870898 13.0983 0.551244 12.7007 0.551244C12.2037 0.551244 11.1306 0.962228 10.8903 1.71569C10.6631 2.42806 10.701 2.69748 10.7483 2.74314L10.6773 3.08563L10.6515 3.35962H12.8782C13.23 3.35962 13.4039 3.85746 13.4503 3.99021C13.4575 4.01088 13.4617 4.0227 13.4629 4.02241C13.4645 4.02201 13.461 4.00006 13.4527 3.9488L13.4527 3.94873L13.4461 3.90759C13.3893 3.55141 13.7064 3.39386 13.8721 3.35962H17.1911L17.2798 2.84588L17.4218 2.46914C17.4856 2.31884 17.5303 2.16553 17.5721 2.01008ZM17.9543 3.35962V3.22261L18.1318 2.46914C18.1318 2.46914 18.1662 2.31945 18.2225 2.10612C18.5315 2.13924 18.8213 2.1554 19.1165 2.17186C19.5444 2.19571 19.9837 2.2202 20.5101 2.29792C20.6156 2.3135 20.7137 2.32829 20.8067 2.34273L21.7786 3.34745C21.5153 3.35145 21.2765 3.35567 21.078 3.35962C20.7704 3.47378 20.1338 3.77745 20.0486 4.07884C20.0045 4.23494 19.9543 4.1382 19.8677 3.97135C19.7452 3.73552 19.5501 3.35962 19.1967 3.35962H17.9543ZM20.2197 1.73598C19.5593 1.65428 18.8259 1.5787 18.4157 1.5787C18.4019 1.5787 18.3877 1.57844 18.3731 1.57793C18.3981 1.49758 18.4242 1.41707 18.4512 1.33895C18.5219 1.13435 18.7352 0.996461 19.0192 0.996461C19.2618 0.996461 19.6345 1.21337 19.8356 1.33895L20.2197 1.73598ZM8.12154 2.98288L8.28888 3.35962H7.23412C7.06846 3.35962 6.73716 3.46921 6.73716 3.90759V4.66106H6.15697C6.12253 4.46184 6.0272 3.86474 6.0272 3.35962C6.0272 3.11555 6.1337 2.74314 6.1337 2.74314C6.24019 2.54907 6.57386 2.16092 7.05662 2.16092C7.53939 2.16092 7.82573 2.38924 7.90856 2.50341L8.12154 2.98288ZM11.2454 6.35981C11.2454 6.08366 11.4692 5.85981 11.7454 5.85981H23.2404C23.5165 5.85981 23.7404 6.08366 23.7404 6.35981V9.12713C23.7404 9.40328 23.5165 9.62713 23.2404 9.62713H11.7454C11.4692 9.62713 11.2454 9.40328 11.2454 9.12713V6.35981ZM12.1713 15.9288C11.8952 15.9288 11.6713 16.1527 11.6713 16.4288V25.6348C11.6713 25.911 11.8952 26.1348 12.1713 26.1348H20.2586C20.5348 26.1348 20.7586 25.911 20.7586 25.6348V16.4288C20.7586 16.1527 20.5348 15.9288 20.2586 15.9288H12.1713ZM13.0912 17.0933H14.511V18.3947H13.0912V17.0933ZM16.9249 17.0933H15.505V18.3947H16.9249V17.0933ZM18.0608 17.0933H19.4807V18.3947H18.0608V17.0933ZM14.511 19.3536H13.0912V20.6551H14.511V19.3536ZM15.505 19.3536H16.9249V20.6551H15.505V19.3536ZM19.4807 19.3536H18.0608V20.6551H19.4807V19.3536ZM13.0912 21.5455H14.511V22.847H13.0912V21.5455ZM16.9249 21.5455H15.505V22.847H16.9249V21.5455ZM18.0608 21.5455H19.4807V22.847H18.0608V21.5455ZM14.511 23.8059H13.0912V25.1074H14.511V23.8059ZM15.505 23.8059H16.9249V25.1074H15.505V23.8059ZM19.4807 23.8059H18.0608V25.1074H19.4807V23.8059Z" fill="white"/>
</svg>
