<svg width="32" height="32" viewBox="0 0 32 32" fill="none" xmlns="http://www.w3.org/2000/svg">
<path d="M12.6794 21.9929C12.4771 21.1839 12.376 20.3411 12.2749 19.5321C12.2412 19.2962 12.2075 19.0264 12.1737 18.7905C11.9715 17.4085 11.8703 14.5095 11.8367 10.1947C11.803 7.02609 14.0951 4.32937 17.0953 3.75632C16.2862 2.81241 15.0727 2.17205 13.7244 2.13823L10.1175 2.00337C7.45445 1.9022 5.2971 4.09327 5.39823 6.75634C5.4994 8.98111 5.56678 11.2733 5.60046 11.779C5.60046 12.0487 5.49929 12.2846 5.33075 12.352C5.1622 12.4532 4.89247 12.352 4.69025 12.1161C4.65656 12.1161 3.81384 11.1722 3.13966 10.498C2.39812 9.75643 1.45421 9.89116 0.780027 10.2957C0.409256 10.5317 0.139528 11.0036 0.0384849 11.4419C-0.0626871 11.8463 0.0384848 12.2846 0.308202 12.6554C0.341888 12.7227 3.17347 17.3746 4.92634 19.2961C4.99371 19.3634 5.0612 19.4309 5.12857 19.532C5.80275 20.2398 6.34207 21.0826 6.67916 21.9928L12.6794 21.9929Z" fill="white"/>
<path d="M13.3872 23.9143H6.61173C6.17345 23.9143 5.83636 24.2514 5.83636 24.6897V27.0156C5.83636 27.4539 6.17345 27.791 6.61173 27.791H13.4884C13.5557 27.1168 13.8928 26.51 14.3985 26.0719C14.2299 25.465 13.9602 24.8247 13.5557 24.1505C13.4884 24.0829 13.421 23.9819 13.3873 23.9144L13.3872 23.9143Z" fill="white"/>
<path d="M31.9609 14.8803C31.8597 14.4758 31.5901 13.9702 31.2194 13.7342C30.5452 13.3297 29.6013 13.1948 28.8597 13.9364C28.2192 14.6106 27.3428 15.5545 27.3092 15.5545C27.0732 15.7904 26.8372 15.8916 26.6687 15.7904C26.5001 15.723 26.3653 15.487 26.3989 15.2174C26.4326 14.7118 26.5001 12.4195 26.6012 10.1948C26.7023 7.53171 24.545 5.34065 21.8819 5.44178L18.2413 5.54295C15.7468 5.61033 13.758 7.66668 13.7917 10.1611C13.8254 13.1612 13.8929 16.9029 14.1288 18.5209C14.1625 18.7906 14.1962 19.0266 14.23 19.2963C14.4322 20.8132 14.6008 22.229 15.2076 23.1728C15.6796 23.9144 16.0166 24.6897 16.2525 25.4313H25.354C25.6911 24.5212 26.2304 23.6785 26.9046 22.9705C26.9719 22.9031 27.0394 22.8019 27.1068 22.7345C28.8596 20.8132 31.7249 16.1613 31.7249 16.0939C31.961 15.723 32.062 15.2847 31.961 14.8803L31.9609 14.8803Z" fill="white"/>
<path d="M25.354 27.3189H16.1514C15.7131 27.3189 15.376 27.656 15.376 28.0943V30.4201C15.376 30.8584 15.7131 31.1955 16.1514 31.1955H25.3203C25.7585 31.1955 26.0956 30.8584 26.0956 30.4201V28.0942C26.1293 27.6897 25.7585 27.3189 25.3541 27.3189H25.354Z" fill="white"/>
</svg>
