<?xml version="1.0" encoding="utf-8"?>
<!-- Generator: Adobe Illustrator 16.0.0, SVG Export Plug-In . SVG Version: 6.00 Build 0)  -->
<!DOCTYPE svg PUBLIC "-//W3C//DTD SVG 1.1//EN" "http://www.w3.org/Graphics/SVG/1.1/DTD/svg11.dtd">
<svg version="1.1" xmlns="http://www.w3.org/2000/svg" xmlns:xlink="http://www.w3.org/1999/xlink" x="0px" y="0px" width="32px"
	 height="32px" viewBox="0 0 32 32" enable-background="new 0 0 32 32" xml:space="preserve">
<g id="Layer_1">
</g>
<g id="Layer_2">
	<polyline fill="#FFFFFF" points="0.36,2.594 3.8,2.071 4.487,3.534 5.572,10.946 7.625,10.856 8.056,12.819 8.143,17.125 
		9.388,18.674 11.481,19.383 11.666,16.404 14.093,16.404 14.27,15.688 17.815,15.688 17.896,16.396 20.288,16.396 20.491,19.389 
		22.468,18.809 23.636,17.342 23.745,12.917 24.229,10.959 26.409,11.01 27.507,3.874 28.421,2.082 31.64,2.725 28.864,22.665 
		28.183,23.054 27.243,22.783 27.108,24.307 26.409,25.813 23.394,25.594 23.479,23.167 20.517,22.321 20.491,24.111 18.263,24.307 
		18.14,25.264 16.856,25.333 16.856,25.944 22.259,26.205 23.681,25.95 23.458,29.919 22.468,27.446 19.438,27.403 19.161,27.764 
		12.946,27.816 12.581,27.344 9.612,27.322 8.76,29.928 8.443,27.265 8.543,25.944 15.067,25.944 15.067,25.264 13.994,25.157 
		13.937,24.307 11.535,24.109 11.401,22.325 8.446,23.159 8.396,25.53 5.521,25.832 4.874,24.502 4.787,22.813 4.041,22.89 
		3.22,22.545 	"/>
</g>
</svg>
