<svg width="32" height="32" viewBox="0 0 32 32" fill="none" xmlns="http://www.w3.org/2000/svg">
<path d="M12.375 9.62499H13.813C13.813 9.62499 13.786 29.375 13.813 30.375C13.844 31.516 15.094 31.442 15.094 31.442C15.094 31.442 16.375 31.375 16.375 30.438C16.375 29.501 16.375 18.938 16.375 18.938C16.359 18.297 17.688 18.313 17.688 19.001C17.688 19.689 17.688 29.876 17.688 30.439C17.688 31.002 18.266 31.442 18.891 31.442C19.516 31.442 20.125 31.001 20.125 30.439C20.125 29.877 20.125 9.62599 20.125 9.62599H21.438L22 11.75C22 11.75 22.188 11.75 21.687 12.063C21.186 12.376 20.624 12.688 20.624 12.688V15C20.624 15 23.083 13.5 23.624 13.25C24.165 13 24.165 12.25 24.165 11.937C24.165 11.624 23.561 8.93699 23.374 8.31199C23.187 7.68699 22.061 6.12399 20.249 6.12399C18.437 6.12399 15.186 6.12399 13.686 6.12399C12.186 6.12399 10.811 7.29599 10.53 8.20199C10.337 8.82499 9.93603 10.655 9.72403 11.725C9.59003 12.399 10.186 13.373 10.498 13.498C10.81 13.623 13.423 14.865 13.423 14.865L13.42 12.717L11.909 11.968L11.748 11.685L12.375 9.62499Z" fill="white"/>
<path d="M16.937 5.375C18.3177 5.375 19.437 4.25571 19.437 2.875C19.437 1.49429 18.3177 0.375 16.937 0.375C15.5563 0.375 14.437 1.49429 14.437 2.875C14.437 4.25571 15.5563 5.375 16.937 5.375Z" fill="white"/>
</svg>
