<svg width="36" height="32" viewBox="0 0 36 32" fill="none" xmlns="http://www.w3.org/2000/svg">
<path fill-rule="evenodd" clip-rule="evenodd" d="M35.8596 12.7025V13.787C35.8596 13.8657 35.8334 13.9286 35.7822 13.9798C35.7035 14.1358 35.5763 14.2775 35.3953 14.4047C35.2406 14.5358 35.0596 14.625 34.8524 14.6762C34.619 14.7535 34.4 14.7798 34.1954 14.7535C33.9357 14.7024 33.6774 14.5883 33.4203 14.4047C31.7417 13.2952 30.2047 12.4677 28.812 11.9274C27.4179 11.4094 26.1131 11.0881 24.9 10.9583C23.7905 10.9333 22.7834 10.9714 21.8785 11.075C21.0274 11.2048 20.2405 11.3215 19.5166 11.4251C18.9999 11.5287 18.4963 11.5799 18.0059 11.5799C17.5154 11.6048 17.0262 11.6179 16.5344 11.6179H16.3023C16.019 11.4894 15.7358 11.3714 15.4512 11.2678C15.244 11.1642 15.0106 11.0881 14.7535 11.0356C14.4965 10.957 14.3037 10.894 14.1739 10.8429C14.044 11.0487 13.9273 11.2428 13.8237 11.4238C13.7214 11.5786 13.5667 11.7071 13.3608 11.8107C13.4631 11.9917 13.6834 12.3405 14.0165 12.8559C14.3535 13.3201 14.6748 13.7595 14.9856 14.1713C14.9607 14.225 14.9607 14.2631 14.9856 14.2906C14.9856 14.3667 15.0381 14.4047 15.1417 14.4047L16.3023 15.3738C16.5856 15.3738 16.5856 15.5142 16.3023 15.8C16.2249 15.8774 16.1751 15.9154 16.1476 15.9154C16.1227 15.9154 16.0453 15.8774 15.9154 15.8L15.3345 15.3738C15.5679 16.0715 15.7371 16.7797 15.8381 17.5036C15.9154 18.2275 16.019 19.0393 16.1476 19.9428C16.5344 21.8287 17.2334 23.544 18.2393 25.0928C19.2465 26.6429 20.6156 27.9714 22.344 29.0821C22.6037 29.2894 22.7703 29.469 22.8476 29.6238C22.8726 29.8047 22.887 29.9595 22.887 30.0893V30.3214C22.887 30.5286 22.8476 30.7083 22.7703 30.8631C22.6929 31.044 22.5906 31.1726 22.4608 31.2499C22.4608 31.3798 22.4214 31.5214 22.344 31.6761C22.2404 31.806 22.0214 31.8689 21.687 31.8689C21.4798 32.1024 21.0929 32.0237 20.5251 31.6355L20.3323 31.5201C18.2406 30.2021 16.5764 28.6795 15.3358 26.9511C14.124 25.1951 13.2585 23.2725 12.7418 21.1821C12.6395 20.3546 12.5608 19.6202 12.5084 18.9737C12.4061 18.3285 12.3536 17.7213 12.3536 17.1534C12.2251 16.7403 12.1477 16.3259 12.1215 15.9141C12.0979 15.4748 12.0585 15.1666 12.0061 14.9856L11.5799 14.5227L10.8048 13.2454C10.5465 12.987 10.3406 12.7418 10.1858 12.5084C10.0062 12.2762 9.86322 12.0835 9.75962 11.9287C9.60487 11.774 9.5275 11.6704 9.5275 11.6192C9.42521 11.5668 9.2062 11.4789 8.87047 11.3491C8.56098 11.1917 8.23706 11.0501 7.90133 10.9215C7.48954 10.7668 7.0371 10.6002 6.54532 10.4193L0.192779 5.22865L0 4.9585C0 4.85489 0.0655712 4.80375 0.192779 4.80375V4.60966C0.192779 4.47983 0.32261 4.41688 0.57965 4.41688L7.35709 7.01087C7.46069 7.08825 7.51184 7.17874 7.51184 7.28103C7.53807 7.38594 7.55249 7.48692 7.55249 7.59052C7.55249 7.97871 7.61675 8.17149 7.74527 8.17149C8.00362 8.24886 8.1964 8.23706 8.32623 8.13477C8.42984 8.08231 8.50721 8.03116 8.55836 7.98002V7.78593L9.29406 6.81678C9.39767 6.63712 9.41078 6.49417 9.33341 6.39188C9.20489 6.33811 9.08686 6.3132 8.98326 6.3132L8.75245 6.39057C8.62393 6.39057 8.49541 6.39057 8.36426 6.39057C8.2082 6.36434 8.13214 6.30008 8.13214 6.19779L3.79395 0.465556V0H4.37491L10.1452 4.0287H10.3773C10.7917 4.59523 11.1524 5.09882 11.4618 5.53946C11.7464 5.92633 12.0035 6.28828 12.2369 6.62269C12.5202 6.9335 12.688 7.11317 12.7405 7.16431C12.869 7.21546 13.1287 7.29414 13.5155 7.39775C13.8749 7.52626 14.2631 7.64298 14.6762 7.74658C15.1155 7.87641 15.5273 7.98002 15.9154 8.05608C16.2761 8.13477 16.4833 8.1728 16.5344 8.1728C16.7928 8.1728 17.5692 8.10723 18.8583 7.98002C20.0976 7.84888 21.7749 7.78724 23.8915 7.78724C25.1308 7.78724 26.1511 7.82527 26.9498 7.90264C27.7524 8.00625 28.5392 8.21214 29.313 8.52295C30.088 8.85867 30.9522 9.32292 31.9096 9.91699C32.863 10.536 34.0905 11.3727 35.5868 12.4323C35.718 12.5084 35.8071 12.6002 35.8596 12.7025ZM16.3023 12.9752L17.8905 13.5942C18.019 13.5942 18.0832 13.7227 18.0832 13.9811C17.9809 13.9811 17.9167 14.0073 17.8905 14.0598C17.8642 14.1096 17.7987 14.086 17.6964 13.9811L16.1476 13.5942C16.019 13.5942 15.9417 13.5549 15.9154 13.4775C15.9154 13.3739 15.9154 13.2965 15.9154 13.2454C15.9154 13.0893 15.9666 13.012 16.0689 13.012C16.1476 12.987 16.2249 12.9752 16.3023 12.9752ZM16.5344 12.431C16.5344 12.33 16.5607 12.2644 16.6118 12.2395C16.638 12.1844 16.6761 12.1595 16.7272 12.1595L18.3154 12.4297C18.419 12.4297 18.5226 12.4677 18.6262 12.5477C18.7022 12.6238 18.7416 12.7011 18.7416 12.7798C18.7416 12.8834 18.7022 12.9477 18.6262 12.9739C18.5212 12.9739 18.4176 12.9739 18.3154 12.9739L16.7272 12.7798C16.6 12.7811 16.5344 12.6657 16.5344 12.431ZM17.3475 14.9883C17.1941 14.9883 17.0774 15.0014 17 15.0263C16.9475 15.0774 16.9226 15.0643 16.9226 14.9883L15.5273 14.1726C15.4001 14.1726 15.3345 14.0454 15.3345 13.787C15.4381 13.787 15.5023 13.7608 15.5273 13.7096C15.5548 13.6585 15.6335 13.6821 15.7594 13.787L17.0774 14.5227C17.2321 14.5227 17.3239 14.5752 17.3475 14.6775C17.3475 14.7811 17.3475 14.8847 17.3475 14.9883Z" fill="white"/>
</svg>
