<?xml version="1.0" encoding="utf-8"?>
<!-- Generator: Adobe Illustrator 16.0.0, SVG Export Plug-In . SVG Version: 6.00 Build 0)  -->
<!DOCTYPE svg PUBLIC "-//W3C//DTD SVG 1.1//EN" "http://www.w3.org/Graphics/SVG/1.1/DTD/svg11.dtd">
<svg version="1.1" id="Layer_1" xmlns="http://www.w3.org/2000/svg" xmlns:xlink="http://www.w3.org/1999/xlink" x="0px" y="0px"
	 width="39.405px" height="32px" viewBox="0 0 39.405 32" enable-background="new 0 0 39.405 32" xml:space="preserve">
<g id="Layer_1_1_">
</g>
<path fill-rule="evenodd" clip-rule="evenodd" fill="#FFFFFF" d="M24.795,3.842h0.519l-0.062,1.323l0.122,0.637h3.369v0.682h-3.234
	l0.09,0.229h0.535l0.012,1.11h-0.347v0.347l-1.975,1.429h-3.961l-1.457,0.895l0.029,1.212l0.213,0.457h0.668l0.229,0.151h2.29v3.278
	h-0.183l0.064,0.836l0.955,2.458l0.531,0.018l1.943,4.705l-0.136,0.408l0.392,0.912l-0.179,0.35l0.167,0.363l0.225,1.336
	l1.021,2.367l0.257,0.018l0.062,0.727l0.666,0.184l0.743,0.301l-0.028,0.201h-1.593l-0.168-0.107l-0.334,0.348h-2.748v-0.379
	l-1.139,0.184v-0.289l0.821-0.213l0.044-0.197l0.911-0.121h0.881V29.27l0.38,0.029l-0.882-2.184l-0.759-1.064l-3.507-8.211
	l-0.653,0.017l-0.029,0.47h-2.232l0.032,0.229l0.226,0.029l0.196,0.379v3.279l-0.151,3.686l-0.516,1.004h-0.41v1.486l0.105,0.715
	h0.682l0.486,0.271l1.244,0.336v0.287l-1.196-0.287l-0.35,0.15h-0.185v0.258h-2.107v-0.303h-0.473L14.9,29.707l-1.262,0.381v-0.273
	l1.747-0.666h0.666l0.123-0.73v-1.52h-0.409l-0.44-0.955l-0.184-3.824v-3.217l0.229-0.365h0.196v-0.606h-2.761L9.45,26.156
	l-0.743,1.063l-0.789,2.143h0.409v0.742h1.776v0.168l0.865,0.316v0.23H9.875v0.273H7.021l-0.364-0.244H4.882v-0.275l0.865-0.285
	v-0.184h0.621v-0.76h0.29L7.6,26.992l0.409-1.746l-0.196-0.287l0.425-1.002L8.07,23.67l1.927-4.814h0.516l1.019-2.396v-0.791h-0.244
	V12.39h3.099l0.335-0.393v-1.55h0.425v-0.393h-0.972L13.533,9.72H13.14v1.245h-2.674V8.87H9.981v0.866
	c-1.219,6.183-2.483,6.268-3.793,0.257L5.67,9.688V8.414L3.302,8.111L3.668,9.81H3.122L1.513,4.833l0.454-0.261l0.261,0.274
	l1.245-0.364h1.471V3.964L5.2,3.6l0.64-0.257l1.547,0.592v0.576h2.976l0.421-0.138l0.352-0.605h12.173l1.29,0.984l0.196-0.212V3.842
	z M30.066,4.721l0.909-1.107l-0.228,1.654l2.384,0.351l-1.11,0.183l5.314,0.376l-5.601,0.258l1.416,0.212l-2.519,0.245l0.363,1.76
	l-1.036-1.261L29.75,9.774c-0.434-1.061-0.662-2.304-0.688-3.732c0.046-1.441,0.269-2.625,0.669-3.552L30.066,4.721z M9.659,10.002
	H6.487C7.57,15.501,8.628,15.501,9.659,10.002z"/>
</svg>
