<?xml version="1.0" encoding="utf-8"?>
<!-- Generator: Adobe Illustrator 16.0.0, SVG Export Plug-In . SVG Version: 6.00 Build 0)  -->
<!DOCTYPE svg PUBLIC "-//W3C//DTD SVG 1.1//EN" "http://www.w3.org/Graphics/SVG/1.1/DTD/svg11.dtd">
<svg version="1.1" xmlns="http://www.w3.org/2000/svg" xmlns:xlink="http://www.w3.org/1999/xlink" x="0px" y="0px"
	 width="18.833px" height="32px" viewBox="0 0 18.833 32" enable-background="new 0 0 18.833 32" xml:space="preserve">
<g id="Selected_Items">
	<g>
		<g id="Selected_Items_58_">
			<path fill-rule="evenodd" clip-rule="evenodd" fill="#FFFFFF" fill-opacity="0.6" d="M15.826,7.595
				c0.05,0.074,0.185,0.259,0.407,0.554c0.172,0.224,0.308,0.285,0.406,0.186c0.099-0.099,0-0.382-0.295-0.851
				c-0.321-0.493-0.271-1.035,0.148-1.628c0.049,0.247,0.345,0.617,0.888,1.11c0.543,0.518,0.875,1.023,0.999,1.517
				c0.049,0.246,0.061,0.493,0.037,0.739c-0.049,0.37-0.148,0.666-0.295,0.888c-0.247,0.321-0.382,0.53-0.407,0.63
				c-0.075,0.173-0.013,0.382,0.185,0.629c0.172,0.245,0.123,0.578-0.148,0.998c-0.173,0.246-0.567,0.715-1.183,1.405
				c-0.355,0.396-0.879,0.618-1.573,0.666c0.172-0.279,0.351-0.575,0.537-0.887c0.099,0,0.161-0.014,0.186-0.038l1.11-1.517
				c0.049-0.099-0.014-0.259-0.186-0.48c-0.197-0.222-0.456-0.456-0.776-0.704c-0.32-0.22-0.617-0.381-0.888-0.48
				c-0.295-0.122-0.469-0.136-0.518-0.036l-1.11,1.517h0.038c-0.024,0.05-0.024,0.123,0,0.221c-0.425,0.508-0.801,0.957-1.128,1.351
				c-0.036-0.027-0.067-0.059-0.093-0.091c-0.198-0.271-0.382-0.642-0.555-1.11c-0.197-0.666-0.234-1.208-0.111-1.627
				c0.198-0.371,0.345-0.642,0.444-0.815c0.173-0.345,0.173-0.813,0-1.405l0.407,0.148c0.32,0.173,0.555,0.444,0.702,0.813
				c0.075,0.124,0.111,0.457,0.111,0.999c0,0.418,0.011,0.555,0.037,0.406c0.295-0.394,0.48-0.801,0.554-1.22
				c0.025-0.246-0.135-0.629-0.48-1.147c-0.443-0.542-0.714-0.888-0.813-1.035c-0.148-0.223-0.21-0.739-0.186-1.553
				c0.025-0.839,0.148-1.369,0.37-1.591c0.05,0.518,0.271,0.974,0.666,1.368c0.198,0.196,0.728,0.419,1.59,0.666
				c0.346,0.099,0.555,0.309,0.629,0.629C15.653,7.262,15.752,7.52,15.826,7.595z"/>
			<path fill-rule="evenodd" clip-rule="evenodd" fill="#FFFFFF" d="M14.975,10.331c0.271,0.1,0.568,0.261,0.888,0.48
				c0.32,0.248,0.58,0.482,0.776,0.704c0.172,0.222,0.235,0.382,0.186,0.48l-1.11,1.517c-0.025,0.024-0.087,0.038-0.186,0.038
				c-1.356,2.269-2.158,3.574-2.404,3.92c-0.099,0.122-0.21,0.803-0.334,2.034c-0.147,1.208-0.406,2.084-0.776,2.626L5.58,31.157
				c-0.197,0.172-0.641,0.185-1.332,0.037c-0.739-0.197-1.455-0.543-2.144-1.037c-0.691-0.491-1.246-1.06-1.666-1.7
				c-0.37-0.593-0.505-1.011-0.407-1.259l6.437-9.062c0.37-0.544,1.11-1.072,2.22-1.591c0.271-0.123,0.641-0.296,1.109-0.518
				c0.346-0.173,0.567-0.32,0.667-0.443c0.148-0.224,1.122-1.406,2.922-3.553c-0.024-0.098-0.024-0.171,0-0.221h-0.038l1.11-1.517
				C14.506,10.195,14.679,10.209,14.975,10.331z"/>
		</g>
	</g>
</g>
<g id="guides">
</g>
</svg>
