<?xml version="1.0" encoding="utf-8"?>
<!-- Generator: Adobe Illustrator 16.0.3, SVG Export Plug-In . SVG Version: 6.00 Build 0)  -->
<!DOCTYPE svg PUBLIC "-//W3C//DTD SVG 1.1//EN" "http://www.w3.org/Graphics/SVG/1.1/DTD/svg11.dtd">
<svg version="1.1" xmlns="http://www.w3.org/2000/svg" xmlns:xlink="http://www.w3.org/1999/xlink" x="0px" y="0px"
	 width="37.625px" height="32.125px" viewBox="0 0 37.625 32.125" enable-background="new 0 0 37.625 32.125" xml:space="preserve">
<g id="Selected_Items">
	<g>
		<g id="Selected_Items_54_">
			<path fill-rule="evenodd" clip-rule="evenodd" fill="#FFFFFF" fill-opacity="0.302" d="M23.537,7.145l4.911,0.743l-5,3.378
				l4.728,3.723l-4.415,0.578l1.027,5.599l-2.27-1.292l0.009-8.686l-2.856-4.706h-3.514c-0.32,0-0.532,0.031-0.64,0.096
				C15.326,6.66,15.23,6.84,15.23,7.114c0,0.42,0.255,0.662,0.767,0.725v1.262l-0.959,0.82h-0.447c-0.298,0-0.448,0.146-0.448,0.441
				l0.316,1.905l0.532,0.774l-0.113,1.517h0.352v1.514h-0.352v0.6l0.038,0.437l0.056,0.368l-4.977,2.139l2.04-5.563L7.604,11.87
				l4.782-1.918L8.971,4.854L15,5.674l1.121-4.611l3.063,4.242l5.006-2.434L23.537,7.145z M22.003,11.625v7.98l-2.492-1.52
				l0.111-0.812l0.223-0.607l-0.055-0.499l-0.252-0.138v-1.521l0.392-0.277l-0.224-1.245l0.964-0.618l-0.068-1.65L22.003,11.625z"/>
			<path fill-rule="evenodd" clip-rule="evenodd" fill="#FFFFFF" d="M21.947,11.551l-1.279-0.726v1.483l-0.767,0.694v1.482h-0.319
				v1.515h0.319v1.577h-0.319v1.514h0.319v1.577h-0.319v1.515h0.319v1.452l0.767,1.293v1.072c0,0.295-0.149,0.442-0.448,0.442
				h-5.687c-0.297,0-0.448-0.147-0.448-0.442v-1.072l0.735-1.293v-1.452h0.352v-1.515h-0.352v-1.577h0.352v-1.514h-0.352v-1.577
				h0.352v-1.515h-0.352v-1.482l-0.735-0.694v-2.02c0-0.295,0.15-0.441,0.448-0.441h0.447l0.959-0.82V7.765
				c-0.511-0.063-0.767-0.304-0.767-0.725c0-0.273,0.096-0.453,0.288-0.537c0.106-0.063,0.32-0.095,0.639-0.095h3.514l2.972,4.701
				v9.937l-1.502,0.726c-0.213,0.105-0.373,0.074-0.479-0.096c-0.107-0.188-0.064-0.367,0.127-0.535
				c0.171-0.147,0.427-0.316,0.766-0.505l0.449-0.221V11.551z"/>
		</g>
	</g>
	<path fill="#FFFFFF" d="M12.82,16.908v-0.277l-0.438-0.605v-0.449l-0.193-0.208l-1.732-4.356l-0.193-0.017v-0.363H9.861v0.104
		l-0.438,0.605c-0.017-0.138-0.123-0.155-0.263-0.155c0,0-2.888-0.018-3.431,0c-0.543,0.017-0.438,0.345-0.455,0.795H5.17v0.501
		h0.788v1.296c0,0-0.175,0.121-0.192,0.346c-0.006,0.071-0.008,0.165-0.008,0.259c-1.595,0.169-2.181,0.588-2.181,0.588v15.037
		c0,0,0.899,1.072,3.871,1.072c2.477,0,3.761-1.002,3.761-1.002V15.389l1.121,1.674l0.035,11.044
		c-0.157,0.294-0.28,0.587-0.175,0.587c0.105,0,0.438,0,0.438,0l0.298-0.225V16.943L12.82,16.908z M10.859,26.916
		c0,0-1.471,0.44-3.466,0.466c-1.996,0.026-3.493-0.466-3.493-0.466v-1.089c0,0,1.462,0.44,3.493,0.432
		c1.971-0.008,3.466-0.432,3.466-0.432V26.916z"/>
	<g>
		<g id="Selected_Items_57_">
			<path fill-rule="evenodd" clip-rule="evenodd" fill="#FFFFFF" d="M32.772,16.456l-1.269-0.72v1.472l-0.762,0.689v1.471h-0.317
				v1.504h0.317v1.565h-0.317v1.503h0.317v1.565h-0.317v1.503h0.317v1.441l0.762,1.284v1.065c0,0.292-0.148,0.439-0.445,0.439
				h-5.646c-0.295,0-0.443-0.147-0.443-0.439v-1.065l0.729-1.284v-1.441h0.349v-1.503h-0.349v-1.565h0.349v-1.503h-0.349v-1.565
				h0.349v-1.504h-0.349v-1.471l-0.729-0.689v-2.004c0-0.292,0.148-0.438,0.443-0.438h0.444l0.952-0.814v-1.253
				c-0.508-0.062-0.761-0.302-0.761-0.72c0-0.271,0.095-0.449,0.286-0.532c0.106-0.063,0.317-0.095,0.634-0.095h3.489l2.95,4.667
				v9.865l-1.49,0.72c-0.212,0.104-0.371,0.073-0.476-0.095c-0.106-0.187-0.064-0.365,0.126-0.532
				c0.169-0.146,0.423-0.313,0.761-0.501l0.445-0.218V16.456z"/>
			<path fill-rule="evenodd" clip-rule="evenodd" fill="#FFFFFF" fill-opacity="0.851" d="M37.593,12.415l-1.268,0.752l1.3,0.72
				l-0.539,0.91l-1.269-0.721v1.44H34.77v-1.473l-1.332,0.753l-0.507-0.91l1.27-0.72l-1.27-0.752l0.539-0.907l1.3,0.751v-1.502
				h1.047v1.471l1.269-0.72L37.593,12.415z"/>
		</g>
	</g>
</g>
<g id="guides">
</g>
</svg>
