<?xml version="1.0" encoding="utf-8"?>
<!-- Generator: Adobe Illustrator 16.0.3, SVG Export Plug-In . SVG Version: 6.00 Build 0)  -->
<!DOCTYPE svg PUBLIC "-//W3C//DTD SVG 1.1//EN" "http://www.w3.org/Graphics/SVG/1.1/DTD/svg11.dtd">
<svg version="1.1" xmlns="http://www.w3.org/2000/svg" xmlns:xlink="http://www.w3.org/1999/xlink" x="0px" y="0px"
	 width="32.042px" height="32.125px" viewBox="0 0 32.042 32.125" enable-background="new 0 0 32.042 32.125" xml:space="preserve">
<g id="Selected_Items">
	<path fill="#FFFFFF" d="M19.388,19.039c0-0.15,0-0.261,0-0.261s-2.659-5.824-2.754-5.852c-0.097-0.028-0.192-0.041-0.192-0.041
		l-2.083-4.55c0,0,0.069-0.083-0.096-0.439c-0.165-0.355-0.342-0.301-0.342-0.301l-0.151-0.027l0.028-0.109
		c0,0,0.123-0.151,0.123-0.261s-0.151-0.343-0.151-0.343V6.649h-0.836l-0.11,0.069v0.795H7.999L7.697,7.787c0,0-0.328-0.055-0.603,0
		C6.82,7.842,6.683,8.116,6.71,8.418c0,0-0.356-0.166-0.356,0.438c0,0.603,0.274,0.521,0.274,0.521h1.316v4.276l0.165,0.274h0.274
		v1.882c-2.449,0-6.122,1.005-6.122,6.286c0,5.866,4.897,7.511,8.022,7.511s8.132-1.846,8.132-7.529
		c0-5.375-4.016-6.176-5.777-6.176v-1.932l0.11-0.096l2.501,0.007c1.364,1.309,3.345,5.435,3.365,5.537
		c0.02,0.103,0.178,9.08,0.178,9.128c0,0.048-0.109,0.069-0.186,0.062c-0.075-0.006-0.191,0.082-0.206,0.157
		c-0.014,0.076,0.007,0.192,0.014,0.281s0.15,0.165,0.356,0.165s0.411-0.027,0.521-0.192c0.109-0.165,0.192-0.233,0.178-0.452
		l-0.151-9.196C19.319,19.368,19.388,19.189,19.388,19.039z"/>
	<g>
		<g id="Selected_Items_59_">
			<path fill-rule="evenodd" clip-rule="evenodd" fill="#FFFFFF" fill-opacity="0.6" d="M24.022,4.553
				c0.083,0.032,0.3,0.105,0.652,0.218c0.269,0.083,0.416,0.055,0.439-0.083c0.024-0.138-0.221-0.312-0.732-0.524
				c-0.547-0.217-0.818-0.689-0.818-1.415c0.182,0.174,0.638,0.305,1.366,0.395c0.742,0.109,1.305,0.331,1.69,0.663
				c0.182,0.173,0.334,0.368,0.457,0.583c0.174,0.331,0.263,0.63,0.271,0.896c-0.017,0.405-0.007,0.654,0.03,0.75
				c0.039,0.185,0.21,0.319,0.514,0.407c0.282,0.101,0.434,0.401,0.455,0.901c0,0.301-0.051,0.911-0.156,1.83
				c-0.062,0.529-0.362,1.012-0.901,1.451c-0.021-0.327-0.045-0.672-0.073-1.034c0.081-0.057,0.123-0.104,0.129-0.138l0.032-1.879
				c-0.017-0.109-0.161-0.204-0.429-0.285c-0.289-0.067-0.635-0.109-1.04-0.127c-0.389,0.005-0.724,0.045-1.003,0.12
				c-0.312,0.071-0.461,0.159-0.443,0.269L24.43,9.427l0.031-0.021c0.009,0.055,0.051,0.114,0.127,0.18
				c-0.054,0.66-0.103,1.244-0.142,1.754c-0.045-0.002-0.088-0.009-0.128-0.021c-0.318-0.107-0.682-0.303-1.094-0.586
				c-0.545-0.431-0.888-0.852-1.029-1.265c-0.052-0.417-0.088-0.723-0.107-0.922c-0.058-0.382-0.327-0.764-0.811-1.148l0.418-0.114
				c0.361-0.043,0.709,0.043,1.043,0.259c0.132,0.058,0.354,0.309,0.667,0.752c0.241,0.341,0.329,0.447,0.265,0.311
				c0.015-0.492-0.069-0.931-0.251-1.316c-0.121-0.216-0.473-0.436-1.054-0.66c-0.674-0.188-1.096-0.313-1.262-0.376
				c-0.25-0.096-0.598-0.483-1.047-1.162c-0.463-0.7-0.669-1.204-0.615-1.513c0.34,0.394,0.784,0.639,1.333,0.733
				c0.275,0.046,0.836-0.077,1.683-0.373c0.339-0.119,0.631-0.068,0.877,0.15C23.688,4.381,23.918,4.534,24.022,4.553z"/>
			<path fill-rule="evenodd" clip-rule="evenodd" fill="#FFFFFF" d="M24.905,7.279c0.279-0.075,0.614-0.115,1.003-0.12
				c0.405,0.018,0.751,0.06,1.04,0.127c0.269,0.082,0.413,0.176,0.429,0.285l-0.032,1.879c-0.006,0.034-0.049,0.082-0.129,0.138
				c0.201,2.636,0.299,4.165,0.297,4.589c-0.01,0.157,0.292,0.777,0.901,1.854c0.576,1.072,0.87,1.937,0.88,2.593l-0.05,11.086
				c-0.062,0.254-0.417,0.521-1.067,0.799c-0.717,0.265-1.501,0.396-2.35,0.39c-0.848-0.002-1.629-0.147-2.341-0.428
				c-0.644-0.271-0.995-0.534-1.059-0.793l0.031-11.115c-0.012-0.658,0.288-1.516,0.896-2.58c0.15-0.257,0.353-0.612,0.607-1.063
				c0.183-0.341,0.279-0.589,0.289-0.747c-0.008-0.268,0.105-1.796,0.338-4.588c-0.076-0.066-0.118-0.125-0.127-0.18L24.43,9.427
				l0.032-1.879C24.444,7.438,24.593,7.35,24.905,7.279z"/>
		</g>
	</g>
</g>
<g id="guides">
</g>
</svg>
