<svg width="15" height="32" viewBox="0 0 15 32" fill="none" xmlns="http://www.w3.org/2000/svg">
<path fill-rule="evenodd" clip-rule="evenodd" d="M10.6795 0.888998L10.7272 0.936738V1.02964C10.7272 1.05802 10.7427 1.0748 10.7737 1.0748V1.16899H10.8201V1.21673C10.8498 1.21673 10.8666 1.23221 10.8666 1.26318V1.40382H10.913V1.49801H10.9595V1.5922C10.9904 1.5922 11.0059 1.60768 11.0059 1.63736V1.778L11.0524 1.82445V1.91993L11.0988 1.96637V2.01541H11.1466V2.10701L11.1917 2.15346V2.2012C11.2227 2.2012 11.2395 2.21669 11.2395 2.24765V2.29539L11.2859 2.34055V2.48119C11.2859 2.51087 11.3014 2.52764 11.3324 2.52764V2.57538H11.3788V2.71473H11.4253V2.76118L11.4717 2.80892V2.85408L11.5182 2.90182V2.99472L11.5659 3.04246V3.18439L11.6111 3.23213V3.27987L11.6575 3.32503V3.37277L11.7504 3.46567V3.51341C11.7801 3.51341 11.7969 3.5289 11.7969 3.55986L11.842 3.60631V3.84243L11.8885 3.88888V3.98178L11.9349 4.02952V4.07597L11.9814 4.12242V4.16887L12.0239 4.21661V4.3108H12.0704V4.4037C12.0704 4.43338 12.0872 4.45015 12.1168 4.45015V4.59079C12.1478 4.59079 12.1633 4.60756 12.1633 4.63724V4.73014C12.193 4.73014 12.2097 4.7482 12.2097 4.77788V4.87078H12.2575V4.91723L12.3026 4.96368V5.01142L12.3491 5.05916V5.10432L12.3955 5.15206V5.34044L12.442 5.38689V5.48108H12.4884V5.62043H12.5349V5.71333L12.5813 5.75978V5.80623L12.6278 5.85268V5.94687C12.6588 5.94687 12.6742 5.96364 12.6742 5.99332V6.08621C12.6742 6.11718 12.6897 6.13396 12.7207 6.13396V6.22557L12.7684 6.2746V6.32104H12.8123V6.3662L12.8588 6.41394V6.4591L12.9065 6.50813V6.60103H12.9517V6.74038L12.9994 6.78812V6.83457C12.9994 6.86425 13.0149 6.88231 13.0458 6.88231V6.92747L13.0923 6.97521V7.11456L13.1852 7.20746V7.30165L13.2316 7.3481V7.39584H13.2781V7.48745H13.3245C13.3245 7.51842 13.34 7.5339 13.371 7.5339V7.58293L13.5568 7.77002V8.38032L13.6045 8.42677V8.52096C13.6329 8.52096 13.6497 8.53644 13.6497 8.56741L13.6961 8.61257V8.65902L13.7426 8.70547V8.75321H13.7903V8.8474C13.82 8.8474 13.8368 8.86417 13.8368 8.89385L13.8832 8.93901V8.98675H13.9297V9.0332L14.0226 9.12868C14.0226 9.15706 14.0381 9.17384 14.0677 9.17384V9.22158H14.1155V9.26803L14.2548 9.45512V9.78414C14.2845 9.8151 14.3155 9.83059 14.3464 9.83059V10.4409C14.3464 10.566 14.3464 10.6589 14.3464 10.7222C14.3464 10.8164 14.3464 10.9093 14.3464 11.0034V11.2383C14.3464 11.3312 14.3464 11.4254 14.3464 11.5208V11.7544C14.3464 11.8795 14.3464 11.9892 14.3464 12.0834C14.3464 12.1453 14.3464 12.2382 14.3464 12.3647C14.3464 12.4266 14.3464 12.5208 14.3464 12.646C14.3464 12.7092 14.3464 12.7853 14.3464 12.8808V12.9272C14.3464 12.9905 14.3464 13.0692 14.3464 13.1621C14.3464 13.2253 14.3464 13.3195 14.3464 13.4433C14.3464 13.5053 14.3464 13.5995 14.3464 13.7259C14.3464 13.7879 14.3464 13.8666 14.3464 13.9607C14.3464 14.0549 14.3464 14.1478 14.3464 14.2407C14.3464 14.3349 14.3464 14.4291 14.3464 14.5233C14.3464 14.6175 14.3464 14.7117 14.3464 14.8046C14.3464 14.8988 14.3464 14.9775 14.3464 15.0394C14.3464 15.1659 14.3464 15.2588 14.3464 15.322C14.3464 15.4149 14.3464 15.5091 14.3464 15.602C14.3464 15.6962 14.3464 15.7904 14.3464 15.8845C14.3464 15.9787 14.3464 16.0574 14.3464 16.1207C14.3464 16.2445 14.3464 16.3374 14.3464 16.4007C14.3464 16.4936 14.3464 16.589 14.3464 16.6832C14.3464 16.7761 14.3464 16.8703 14.3464 16.9645C14.3464 17.0587 14.3464 17.1516 14.3464 17.2458C14.3464 17.34 14.3464 17.4342 14.3464 17.5271C14.3464 17.589 14.3464 17.6832 14.3464 17.8096C14.3464 17.8703 14.3464 17.9645 14.3464 18.0896C14.3464 18.1541 14.3464 18.2303 14.3464 18.3257C14.3464 18.4212 14.3464 18.5128 14.3464 18.6083C14.3464 18.669 14.3464 18.7619 14.3464 18.8883C14.3464 18.9502 14.3464 19.0444 14.3464 19.1709C14.3464 19.2328 14.3464 19.3102 14.3464 19.4057C14.3464 19.4973 14.3464 19.5928 14.3464 19.687C14.3464 19.7799 14.3464 19.8754 14.3464 19.9683C14.3464 20.0624 14.3464 20.1566 14.3464 20.2508C14.3464 20.3437 14.3464 20.4211 14.3464 20.4844C14.3464 20.6095 14.3464 20.7024 14.3464 20.7656C14.3464 20.8598 14.3464 20.954 14.3464 21.0469C14.3464 21.1398 14.3464 21.2353 14.3464 21.3282C14.3464 21.4237 14.3464 21.4998 14.3464 21.5643C14.3464 21.6882 14.3464 21.7824 14.3464 21.8443C14.3464 21.9385 14.3464 22.0327 14.3464 22.1269C14.3464 22.2211 14.3464 22.3153 14.3464 22.4082C14.3464 22.5011 14.3464 22.5965 14.3464 22.6907C14.3464 22.7823 14.3464 22.8778 14.3464 22.972C14.3464 23.0352 14.3464 23.1281 14.3464 23.2533C14.3464 23.3165 14.3464 23.4094 14.3464 23.5346C14.3464 23.5978 14.3464 23.6752 14.3464 23.7694C14.3464 23.8636 14.3464 23.9578 14.3464 24.0507C14.3464 24.1152 14.3464 24.2068 14.3464 24.3333C14.3464 24.3939 14.3464 24.4894 14.3464 24.6145C14.3464 24.6778 14.3464 24.7539 14.3464 24.8494C14.3464 24.9448 14.3464 25.0377 14.3464 25.1306C14.3464 25.2235 14.3464 25.319 14.3464 25.4119C14.3464 25.5061 14.3464 25.6003 14.3464 25.6945C14.3464 25.7887 14.3464 25.8661 14.3464 25.9293C14.3464 26.0532 14.3464 26.1474 14.3464 26.2106C14.3464 26.3035 14.3464 26.399 14.3464 26.4919C14.3464 26.5861 14.3464 26.679 14.3464 26.7732C14.3464 26.8673 14.3464 26.9461 14.3464 27.0067C14.3464 27.1331 14.3464 27.226 14.3464 27.2893C14.3464 27.3835 14.3464 27.4776 14.3464 27.5705C14.3464 27.6647 14.3464 27.7744 14.3464 27.8996V27.9938C14.3155 27.9938 14.269 27.9938 14.2071 27.9938V28.0389C14.1761 28.0389 14.1606 28.0557 14.1606 28.0867L14.1155 28.1796H14.0226V28.2273L13.9761 28.2725V28.3202H13.9297V28.4144C13.7142 28.4144 13.4974 28.4144 13.2807 28.4144V27.6634L13.3736 27.5693C13.4045 27.5693 13.4213 27.5551 13.4213 27.5228H13.4678V27.4673H13.5129V27.4209H13.5607C13.5607 27.3267 13.5607 27.2493 13.5607 27.186C13.5607 27.0931 13.5607 27.0299 13.5607 26.9977C13.5607 26.9048 13.5607 26.8106 13.5607 26.7177C13.5607 26.6235 13.5607 26.5293 13.5607 26.4364C13.5607 26.3422 13.5607 26.248 13.5607 26.1551C13.5607 26.0609 13.5607 25.9667 13.5607 25.8725C13.5607 25.8106 13.5607 25.7164 13.5607 25.5926C13.5607 25.528 13.5607 25.4506 13.5607 25.3577C13.5607 25.2648 13.5607 25.1693 13.5607 25.0739C13.5607 24.981 13.5607 24.8868 13.5607 24.7939C13.5607 24.7294 13.5607 24.6378 13.5607 24.5113C13.5607 24.4494 13.5607 24.372 13.5607 24.2778C13.5607 24.1836 13.5607 24.0894 13.5607 23.9965C13.5607 23.9023 13.5607 23.8081 13.5607 23.7152C13.5607 23.6197 13.5607 23.5268 13.5607 23.4326C13.5607 23.3385 13.5607 23.2597 13.5607 23.1978C13.5607 23.0714 13.5607 22.9772 13.5607 22.9152C13.5607 22.7901 13.5607 22.6972 13.5607 22.634C13.5607 22.5411 13.5607 22.4482 13.5607 22.3527C13.5607 22.2598 13.5607 22.1798 13.5607 22.1179C13.5607 21.9927 13.5607 21.8985 13.5607 21.8353C13.5607 21.7101 13.5607 21.6172 13.5607 21.5553C13.5607 21.4624 13.5607 21.3669 13.5607 21.2727C13.5607 21.1811 13.5607 21.0843 13.5607 20.9914C13.5607 20.8985 13.5607 20.8031 13.5607 20.7102C13.5607 20.6173 13.5607 20.5218 13.5607 20.4289C13.5607 20.3657 13.5607 20.2728 13.5607 20.1476C13.5607 20.0844 13.5607 20.007 13.5607 19.9128C13.5607 19.8186 13.5607 19.7244 13.5607 19.6302C13.5607 19.536 13.5607 19.4431 13.5607 19.3489C13.5607 19.287 13.5607 19.1915 13.5607 19.0676C13.5607 19.0057 13.5607 18.9283 13.5607 18.8328C13.5607 18.7373 13.5607 18.6444 13.5607 18.5502C13.5607 18.4251 13.5607 18.3322 13.5607 18.269C13.5607 18.1761 13.5607 18.0806 13.5607 17.9877C13.5607 17.8948 13.5607 17.8161 13.5607 17.7541C13.5607 17.6277 13.5607 17.5335 13.5607 17.4703C13.5607 17.3464 13.5607 17.2522 13.5607 17.189C13.5607 17.0961 13.5607 17.0019 13.5607 16.9103C13.5607 16.8148 13.5607 16.7361 13.5607 16.6742C13.5607 16.5477 13.5607 16.4394 13.5607 16.3465C13.5607 16.251 13.5607 16.1581 13.5607 16.0639C13.5607 16.002 13.5607 15.9078 13.5607 15.7826C13.5607 15.7194 13.5607 15.642 13.5607 15.5491C13.5607 15.4536 13.5607 15.3594 13.5607 15.2652C13.5607 15.171 13.5607 15.0781 13.5607 14.9839C13.5607 14.9207 13.5607 14.8278 13.5607 14.7027C13.5607 14.6394 13.5607 14.5633 13.5607 14.4678C13.5607 14.3723 13.5607 14.2807 13.5607 14.1865C13.5607 14.0924 13.5607 13.9982 13.5607 13.9053C13.5607 13.8111 13.5607 13.7169 13.5607 13.624C13.5607 13.5311 13.5607 13.4511 13.5607 13.3879C13.5607 13.2614 13.5607 13.1698 13.5607 13.1053C13.5607 12.9814 13.5607 12.8872 13.5607 12.8253C13.5607 12.7324 13.5607 12.6369 13.5607 12.5427C13.5607 12.4498 13.5607 12.3724 13.5607 12.3092C13.5607 12.184 13.5607 12.0886 13.5607 12.0279C13.5607 11.9015 13.5607 11.8099 13.5607 11.7454C13.5607 11.6525 13.5607 11.557 13.5607 11.4641C13.5607 11.3712 13.5607 11.2757 13.5607 11.1828C13.5607 11.0886 13.5607 10.9944 13.5607 10.9002C13.5607 10.8086 13.5607 10.7131 13.5607 10.6189C13.5607 10.557 13.5607 10.4628 13.5607 10.3364C13.5607 10.2744 13.5607 10.197 13.5607 10.1015V10.0564C13.5297 10.0564 13.4987 10.0564 13.4678 10.0564L13.4213 10.0099V9.98413L13.3736 9.93768V9.88994H13.3271V9.8422L13.2807 9.79575V9.74801L13.2342 9.70285V9.60866L13.1878 9.56221V9.51447H13.14V9.42157H13.0936V9.37512L13.0471 9.32738H13.0007C13.0007 9.29641 12.9852 9.28222 12.9529 9.28222V9.18803C12.9529 9.15706 12.9388 9.14287 12.9078 9.14287V9.09384H12.8588V9.00094C12.8291 9.00094 12.8123 8.98546 12.8123 8.9532C12.8123 8.92352 12.7968 8.90804 12.7671 8.90804V8.86159H12.7194V8.80998L12.673 8.71579C12.673 8.6874 12.6575 8.66934 12.6265 8.66934V8.62289L12.4872 8.53128V8.48354H12.442V8.39064C12.411 8.39064 12.3955 8.37258 12.3955 8.3429L12.3491 8.29774V8.25H12.3026V8.20355C12.2717 8.1713 12.2407 8.1571 12.211 8.1571V8.10936H12.1633V8.06291C12.1323 8.06291 12.1168 8.04614 12.1168 8.01646V7.92356C12.0872 7.92356 12.0704 7.90679 12.0704 7.87582L12.0239 7.82937V7.78292H11.9788L11.8394 7.59583V7.5468C11.8098 7.5468 11.7943 7.53132 11.7943 7.50035H11.7465V30.3756L11.562 30.4233C11.5001 30.4543 11.4369 30.5008 11.3749 30.5627H11.3298C10.5879 30.9691 9.89371 31.2517 9.24341 31.4065C8.47054 31.6568 7.72992 31.813 7.01769 31.8749C6.36868 32 5.73516 32.031 5.11712 31.9691C4.53134 31.9059 4.0062 31.8284 3.54299 31.7343C2.52367 31.5149 1.73532 31.2504 1.17921 30.9369C0.900509 30.8117 0.685034 30.7033 0.530201 30.6091C0.313435 30.5149 0.206343 30.453 0.206343 30.4208L0.0669934 30.373V7.45261C-0.0555825 7.20101 -0.010423 6.9365 0.206343 6.65522C0.206343 6.62426 0.221826 6.592 0.251502 6.56233C0.344402 6.53136 0.437302 6.51588 0.530201 6.51588V6.46685C0.685034 6.4062 0.886316 6.35846 1.13276 6.32879C1.3792 6.29782 1.73532 6.26556 2.19852 6.23331C2.44497 6.17137 2.70818 6.12492 2.98559 6.09396C3.20107 6.06428 3.3559 6.0488 3.4488 6.0488C3.41912 5.76623 3.41912 5.54817 3.4488 5.39205C3.51073 5.29915 3.55718 5.21915 3.58944 5.15722L3.7275 4.96884V2.9044H3.68105C3.52621 2.9044 3.35719 2.88892 3.17139 2.85666C2.95462 2.85666 2.73915 2.85666 2.52367 2.85666V2.2012H2.56883V2.15346C2.59851 2.15346 2.63076 2.15346 2.66044 2.15346C2.59851 2.06057 2.59851 1.91864 2.66044 1.73155C2.66044 1.63865 2.72237 1.48252 2.84624 1.26447C2.93914 1.04641 3.09397 0.919964 3.30945 0.888998H8.77891L9.01116 0.981898V1.17028C9.19696 0.797388 9.42792 0.467079 9.70662 0.185799V0.139349C9.70662 0.109673 9.70662 0.0774162 9.70662 0.0451593C9.7363 0.0451593 9.78404 0.0451593 9.84468 0.0451593C9.84468 0.0154831 9.86016 0 9.89242 0V0.0451593C10.0473 0.0451593 10.2008 0.0451593 10.3556 0.0451593V0.561268L10.4021 0.607718V0.654168C10.4627 0.654168 10.5414 0.654168 10.6343 0.654168V0.700618L10.6795 0.747068V0.888998ZM4.61004 10.357C3.86685 11.0151 3.27977 11.8292 2.84624 12.7956C2.22949 14.1401 1.91982 15.5 1.91982 16.8742C1.91982 17.9064 2.04369 18.8586 2.29142 19.7334C2.5998 20.8289 3.20365 21.6082 4.0991 22.0779C4.53134 22.3269 5.01132 22.4688 5.53517 22.4985C4.63972 21.9359 4.15974 21.0147 4.0991 19.7321C4.03716 18.7631 4.37779 17.8729 5.11841 17.0626C5.3055 16.9039 5.42937 16.811 5.4913 16.78C5.15196 17.749 5.52098 18.7464 6.60351 19.7799C7.12866 20.3102 7.51574 20.9205 7.76089 21.6069C7.88346 21.9514 7.85379 22.1849 7.66799 22.3114C8.07055 22.4675 8.48731 22.2933 8.91955 21.7966C8.93762 21.7746 8.9531 21.7527 8.966 21.7243C9.59695 21.3295 9.99822 20.6198 10.1711 19.5928C10.3569 18.3748 10.1569 17.1877 9.56856 16.0303C9.16729 15.1865 8.68859 14.4833 8.13249 13.9207C7.45122 13.1401 6.98931 12.2163 6.74157 11.1544C6.43191 9.99832 6.60351 9.01513 7.25123 8.20226C6.38417 8.85772 5.50549 9.57769 4.61004 10.357ZM11.2833 24.1397C11.2833 24.11 11.2833 24.0597 11.2833 24.0004V23.8584C8.7802 24.2352 7.03576 24.421 6.04612 24.421C5.02551 24.421 3.20365 24.2352 0.577941 23.8584C0.577941 23.8907 0.577941 23.9217 0.577941 23.9526C0.577941 23.9836 0.577941 24.0146 0.577941 24.0455V24.7036C0.577941 24.7319 0.577941 24.7655 0.577941 24.7965C0.577941 24.8261 0.577941 24.8584 0.577941 24.8894V24.9823C0.577941 25.0132 0.577941 25.0455 0.577941 25.0752C0.577941 25.1061 0.577941 25.1397 0.577941 25.1693C0.577941 25.2003 0.577941 25.2313 0.577941 25.2648V25.3577C0.577941 25.3874 0.577941 25.4184 0.577941 25.4493C0.577941 25.4803 0.577941 25.5126 0.577941 25.5422V25.5913C3.2359 26.0583 5.09002 26.2932 6.13902 26.2932C7.25123 26.2932 8.966 26.0738 11.2833 25.6377V25.1216C11.2833 25.0906 11.2833 25.0597 11.2833 25.0287V24.981C11.2833 24.919 11.2833 24.8713 11.2833 24.8416C11.2833 24.8106 11.2833 24.7797 11.2833 24.7474V24.7023C11.2833 24.6713 11.2833 24.639 11.2833 24.6081C11.2833 24.5771 11.2833 24.5281 11.2833 24.4687V24.4197C11.2833 24.3887 11.2833 24.3578 11.2833 24.3281C11.2833 24.2958 11.2833 24.2649 11.2833 24.2352C11.2833 24.2016 11.2833 24.1707 11.2833 24.1397ZM8.17765 22.4985H7.9454V22.5462L8.17765 22.4985ZM7.01769 22.5927V22.5462C6.98802 22.5462 6.97124 22.5617 6.97124 22.5927H7.01769ZM4.97906 22.7333C4.88874 22.723 4.80358 22.7075 4.72359 22.6869L4.70036 22.7333C4.79455 22.7333 4.88745 22.7333 4.97906 22.7333Z" fill="white"/>
</svg>
