<svg width="32" height="32" viewBox="0 0 32 32" fill="none" xmlns="http://www.w3.org/2000/svg">
<path d="M16.3323 20.0047L21.1996 15.8586C13.6123 4.1932 6.00421 -0.524886 0 0.0459508C0 0.0459508 3.90475 3.28264 9.29478 11.9919L16.3323 20.0047Z" fill="white"/>
<path d="M24.1043 15.2172L15.5343 22.5178C15.2763 22.7371 15.2703 23.1531 15.5209 23.4471C15.7716 23.7412 16.1829 23.8011 16.4403 23.5818L18.7997 21.5718L26.9251 31.1105C27.8311 32.1745 29.427 32.3018 30.4912 31.3958C31.3319 30.6798 31.5866 29.5358 31.2139 28.5592C29.7012 28.8952 28.8485 27.7578 29.5126 26.3458L29.132 25.8992C27.5646 26.3498 26.58 25.2099 27.2786 23.7239L26.898 23.2772C25.318 23.7312 24.3513 22.576 25.0447 21.1019L24.664 20.6553C23.0841 21.1093 22.1173 19.954 22.8107 18.4799L22.6507 18.2926L25.0101 16.2827C25.2681 16.0634 25.2741 15.6473 25.0234 15.3533C24.7739 15.0578 24.3625 14.9978 24.1045 15.2171L24.1043 15.2172Z" fill="white"/>
</svg>
