<?xml version="1.0" encoding="utf-8"?>
<!-- Generator: Adobe Illustrator 16.0.0, SVG Export Plug-In . SVG Version: 6.00 Build 0)  -->
<!DOCTYPE svg PUBLIC "-//W3C//DTD SVG 1.1//EN" "http://www.w3.org/Graphics/SVG/1.1/DTD/svg11.dtd">
<svg version="1.1" id="Layer_1" xmlns="http://www.w3.org/2000/svg" xmlns:xlink="http://www.w3.org/1999/xlink" x="0px" y="0px"
	 width="30.093px" height="28.943px" viewBox="0 0 30.093 28.943" enable-background="new 0 0 30.093 28.943" xml:space="preserve">
<g id="guides">
</g>
<path fill-rule="evenodd" clip-rule="evenodd" fill="#FFFFFF" d="M11.976,9.917l1.117,3.809L9.66,14.028l2.838,2.314l-1.419,2.688
	l2.688-1.344l0.3,2.988l1.939-2.541l2.389,1.942l-0.67-2.611l3.061-0.971l-2.612-1.419l2.09-3.064l-3.21,0.896l-0.298-3.583
	l-1.868,3.286L11.976,9.917z M18.257,1.363l0.674,8.091l7.249-2.021l-4.722,6.91l5.902,3.207l-6.91,2.188l1.514,5.9l-5.394-4.381
	l-4.382,5.729l-0.674-6.743l-6.069,3.035l3.202-6.069L2.24,11.981l7.755-0.674L7.468,2.711l6.575,6.069L18.257,1.363z
	 M14.478,15.736l-0.971-0.792l1.172-0.1l-0.382-1.303l0.997,0.921l0.636-1.122l0.101,1.223l1.097-0.306l-0.711,1.046l0.892,0.481
	l-1.047,0.334l0.229,0.893l-0.815-0.666l-0.662,0.87l-0.104-1.02l-0.917,0.46L14.478,15.736z"/>
</svg>
