<?xml version="1.0" encoding="utf-8"?>
<!-- Generator: Adobe Illustrator 16.0.3, SVG Export Plug-In . SVG Version: 6.00 Build 0)  -->
<!DOCTYPE svg PUBLIC "-//W3C//DTD SVG 1.1//EN" "http://www.w3.org/Graphics/SVG/1.1/DTD/svg11.dtd">
<svg version="1.1" xmlns="http://www.w3.org/2000/svg" xmlns:xlink="http://www.w3.org/1999/xlink" x="0px" y="0px" width="32px"
	 height="32px" viewBox="0 0 32 32" enable-background="new 0 0 32 32" xml:space="preserve">
<g id="Selected_Items">
	<g>
		<path fill="#FFFFFF" d="M13.919,11.804l-1.008-1.264c0.115-0.14,0.193-0.313,0.193-0.508c0-0.448-0.364-0.812-0.812-0.812
			s-0.812,0.364-0.812,0.812c0,0.449,0.363,0.812,0.812,0.812c0.068,0,0.128-0.022,0.19-0.039l0.649,1.438l-3.967,2.212
			c0.543,1.003,1.41,1.806,2.459,2.269l6.788-6.788c-0.075-0.17-0.155-0.338-0.247-0.499L13.919,11.804z"/>
		<polygon fill="#FFFFFF" points="20.241,23.06 15.617,19.978 14.875,20.72 19.579,23.854 11.048,27.84 11.825,23.77 10.582,25.013 
			9.248,32 10.254,32 10.809,29.095 20.502,24.567 21.786,31.968 22.793,31.968 19.879,15.716 19.102,16.493 		"/>
		<path fill="#FFFFFF" d="M6.365,13.563c0,2.353,0.845,4.502,2.239,6.181l1.219-1.219c-1.085-1.364-1.743-3.083-1.743-4.962
			c0-4.418,3.581-8,8-8c1.879,0,3.603,0.652,4.968,1.737l1.222-1.222c-1.681-1.392-3.838-2.229-6.19-2.229
			C10.714,3.849,6.365,8.198,6.365,13.563z"/>
		<path fill="#FFFFFF" d="M24.079,13.563c0,2.298-0.975,4.364-2.526,5.822l0.3,1.977c2.386-1.77,3.94-4.6,3.94-7.799
			c0-1.126-0.201-2.203-0.554-3.208l-1.379,1.379C23.999,12.322,24.079,12.932,24.079,13.563z"/>
		<path fill="#FFFFFF" d="M26.151,9.443c0.539,1.292,0.839,2.708,0.839,4.196c0,3.23-1.217,6.967-4.652,9.36l0.335,2.167
			c4.321-2.597,6.223-7.117,6.223-11.339c0-2.072-0.503-4.022-1.375-5.753L26.151,9.443z"/>
		<path fill="#FFFFFF" d="M5.168,13.639c0-6.026,4.886-10.911,10.911-10.911c2.664,0,5.103,0.957,6.997,2.543l1.25-1.25
			c-2.229-1.877-5.104-3.012-8.247-3.012C9,1.01,3.262,6.749,3.262,13.827c0,2.995,0.737,5.886,2.889,8.369l1.36-1.36
			C5.739,18.729,5.168,15.998,5.168,13.639z"/>
		
			<rect x="1.087" y="13.755" transform="matrix(0.7071 -0.7071 0.7071 0.7071 -5.6665 16.2821)" fill="#FFFFFF" width="31.468" height="2.452"/>
	</g>
</g>
<g id="guides">
</g>
</svg>
