<?xml version="1.0" encoding="utf-8"?>
<!-- Generator: Adobe Illustrator 16.0.0, SVG Export Plug-In . SVG Version: 6.00 Build 0)  -->
<!DOCTYPE svg PUBLIC "-//W3C//DTD SVG 1.1//EN" "http://www.w3.org/Graphics/SVG/1.1/DTD/svg11.dtd">
<svg version="1.1" id="Layer_1" xmlns="http://www.w3.org/2000/svg" xmlns:xlink="http://www.w3.org/1999/xlink" x="0px" y="0px"
	 width="39.404px" height="26.017px" viewBox="0 0 39.404 26.017" enable-background="new 0 0 39.404 26.017" xml:space="preserve">
<g id="Layer_1_1_">
</g>
<g>
	<path fill-rule="evenodd" clip-rule="evenodd" fill="#E5E5E5" d="M21.336,10.364l-0.882,0.011
		c-2.143,1.755-4.464,3.409-6.964,4.959l-3.244,1.624l-0.92,0.354c-0.23-2.5-0.734-3.828-1.511-3.985l-0.729-0.494
		c-0.241-1.475-0.623-2.612-1.146-3.411C5.789,9.09,5.693,8.755,5.654,8.418C5.615,8.095,5.629,7.77,5.695,7.445
		C5.239,6.784,4.831,6.126,4.471,5.469l12.076-4.393c0.075,1.225-0.056,2.402-0.395,3.53l0.305,0.415l-0.33,0.542l0.641-0.005
		l2.081,1.654c0.512,1.062,1.478,1.804,2.897,2.229L21.336,10.364z"/>
	<path fill-rule="evenodd" clip-rule="evenodd" fill="#CCCCCC" d="M10.368,17.543c-0.038-0.202-0.079-0.396-0.122-0.584l3.244-1.624
		c2.5-1.55,4.822-3.204,6.964-4.959l0.882-0.011C16.711,14.546,13.054,16.939,10.368,17.543z M38.41,15.596
		c-11.414,7.781-23.52,10.437-36.316,7.968l4.752-1.132l-5.705-3.616l5.915,1.362l-4.426-10.09l7.648,10.972
		c0.28,0.548,0.589,0.814,0.926,0.802c2.583-0.518,4.975-1.285,7.175-2.302l0.81-1.7c1.045-0.133,2.29-0.043,3.732,0.27
		c1.795-0.32,3.489-0.768,5.081-1.344c1.848-0.872,2.85-1.733,3.006-2.585l1.389-7.954l0.933,7.332l3.136-3.43l-1.649,5.454
		L38.41,15.596z"/>
	<path fill-rule="evenodd" clip-rule="evenodd" fill="#FFFFFF" d="M10.368,17.543c2.686-0.604,6.342-2.997,10.968-7.179
		c1.896,0.338,4.241,0.495,7.038,0.469c1.589,1.051,2.346,2.026,2.272,2.926c-0.013,0.138-0.044,0.276-0.097,0.412
		c0,0.002-0.002,0.006-0.003,0.012c-0.27,0.681-1.043,1.316-2.321,1.905c-1.586,0.688-3.377,1.206-5.372,1.551
		c-1.288-0.296-2.597-0.389-3.926-0.274l-1.021,1.884c-2.194,0.966-4.396,1.675-6.603,2.126c-0.308,0.074-0.49-0.106-0.545-0.537
		C10.682,19.595,10.551,18.498,10.368,17.543z"/>
</g>
</svg>
