<?xml version="1.0" encoding="utf-8"?>
<!-- Generator: Adobe Illustrator 16.0.0, SVG Export Plug-In . SVG Version: 6.00 Build 0)  -->
<!DOCTYPE svg PUBLIC "-//W3C//DTD SVG 1.1//EN" "http://www.w3.org/Graphics/SVG/1.1/DTD/svg11.dtd">
<svg version="1.1" id="Layer_1" xmlns="http://www.w3.org/2000/svg" xmlns:xlink="http://www.w3.org/1999/xlink" x="0px" y="0px"
	 width="46.875px" height="33px" viewBox="0 0 46.875 33" enable-background="new 0 0 46.875 33" xml:space="preserve">
<path fill-rule="evenodd" clip-rule="evenodd" fill="#FFFFFF" d="M45.763,30.5c-0.233,1.2-1.066,1.801-2.5,1.801h-39.5
	c-1.667,0-2.517-0.816-2.55-2.45c0.133-0.434,0.233-0.851,0.3-1.25v-0.05c2.034-8.301,2.034-16.351,0-24.15
	C1.447,4,1.363,3.633,1.263,3.3c0.133-1.433,0.967-2.15,2.5-2.15h39.5c1.4,0,2.233,0.6,2.5,1.8c-0.1,0.267-0.183,0.55-0.25,0.85
	c-2.267,8.267-2.267,16.833,0,25.7C45.581,29.8,45.664,30.133,45.763,30.5z M42.713,7.45c0-2.167-1.066-3.25-3.2-3.25H7.263
	c-2.167,0-3.25,1.083-3.25,3.25V25.1c0,2.167,1.083,3.25,3.25,3.25h32.25c2.134,0,3.2-1.083,3.2-3.25V7.45z M45.813,28
	c-1.833-7.833-1.833-15.417,0-22.75V28z M41.463,7.45V25.1c0,1.3-0.65,1.95-1.95,1.95H7.263c-1.3,0-1.95-0.65-1.95-1.95V7.45
	c0-1.3,0.65-1.95,1.95-1.95h32.25C40.813,5.5,41.463,6.15,41.463,7.45z M28.938,10.575l-5.6-2.775
	c-0.087-0.046-0.179-0.071-0.275-0.075c-0.096-0.004-0.188,0.012-0.275,0.05L17.063,10.6l-0.025,0.025h-0.1l-7.1,3.4
	c-0.135,0.065-0.235,0.166-0.3,0.3c-0.058,0.138-0.066,0.279-0.025,0.425c0.034,0.142,0.109,0.259,0.225,0.35l5.525,4.25l0.075,0.05
	c0.024,0.018,0.049,0.034,0.075,0.05L22.638,25c0.112,0.085,0.237,0.127,0.375,0.125c0.139,0.002,0.264-0.04,0.375-0.125l7.3-5.6
	l0.075-0.05l5.525-4.25c0.116-0.091,0.19-0.208,0.225-0.35c0.041-0.146,0.032-0.288-0.024-0.425c-0.066-0.134-0.166-0.234-0.301-0.3
	l-7.1-3.4C29.037,10.6,28.987,10.583,28.938,10.575z M27.539,11.25l-4.475,2.675l-4.525-2.65l4.55-2.225L27.539,11.25z
	 M24.289,14.625l4.55-2.7l5.875,2.8l-4.425,3.425L24.289,14.625z M29.188,18.975l-6.175,4.75l-6.175-4.75l6.225-3.6L29.188,18.975z
	 M11.313,14.725l5.875-2.8l4.625,2.725l-6.075,3.5L11.313,14.725z M1.213,5.9c1.567,6.833,1.567,13.867,0,21.1V5.9z"/>
</svg>
