<svg width="30" height="32" viewBox="0 0 30 32" fill="none" xmlns="http://www.w3.org/2000/svg">
<path d="M14.8204 0.393433L17.2975 8.33464L23.9691 3.36603L20.2187 11.1187L29.6234 10.1436L21.6812 15.5062L29.6234 20.7679L20.2187 20.3813L24.1187 27.694L17.2975 21.8439L15.3436 31.1066L12.3434 23.5817L5.67173 28.5503L9.00592 20.8689L0.230743 21.3564L8.0309 16.9688L0.230743 11.1187H8.51841L5.10584 4.78102L12.3434 8.33464L14.8204 0.393433Z" fill="white" fill-opacity="0.4"/>
<path fill-rule="evenodd" clip-rule="evenodd" d="M21.9715 8.21354L19.9552 7.05348V9.42336L18.7466 10.5324V12.8996H18.2439V15.3193H18.7466V17.8384H18.2439V20.2581H18.7466V22.7772H18.2439V25.1968H18.7466V27.5157L19.9552 29.5818V31.2944C19.9552 31.7658 19.7195 32.0001 19.2494 32.0001H10.2805C9.81047 32.0001 9.57349 31.7658 9.57349 31.2944V29.5818L10.7322 27.5157V25.1968H11.2874V22.7772H10.7336V20.2581H11.2887V17.8384H10.7336V15.3167H11.2887V12.897H10.7336V10.5297L9.5748 9.42074V6.19456C9.5748 5.72451 9.81178 5.49014 10.2818 5.49014H10.9863L12.4985 4.1795V2.16313C11.692 2.06362 11.29 1.67868 11.29 1.00831C11.29 0.572299 11.4406 0.284246 11.743 0.150695C11.9106 0.0498763 12.2471 0.00012207 12.7512 0.00012207H18.2923L22.9797 7.50781V23.3795L20.6111 24.5396C20.2746 24.7072 20.0219 24.6574 19.8556 24.3877C19.6867 24.0865 19.7535 23.8011 20.056 23.5327C20.3257 23.297 20.729 23.0273 21.2645 22.7261L21.9715 22.3726V8.21354Z" fill="white"/>
</svg>
