<?xml version="1.0" encoding="utf-8"?>
<!-- Generator: Adobe Illustrator 16.0.0, SVG Export Plug-In . SVG Version: 6.00 Build 0)  -->
<!DOCTYPE svg PUBLIC "-//W3C//DTD SVG 1.1//EN" "http://www.w3.org/Graphics/SVG/1.1/DTD/svg11.dtd">
<svg version="1.1" id="Layer_1" xmlns="http://www.w3.org/2000/svg" xmlns:xlink="http://www.w3.org/1999/xlink" x="0px" y="0px"
	 width="92.059px" height="31.75px" viewBox="0 0 92.059 31.75" enable-background="new 0 0 92.059 31.75" xml:space="preserve">
<g id="guides">
</g>
<path fill-rule="evenodd" clip-rule="evenodd" fill="#FFFFFF" d="M44.317,15.293c-0.236,0-0.438,0.083-0.607,0.248
	c-0.162,0.166-0.245,0.365-0.248,0.598c0.003,0.232,0.086,0.432,0.248,0.597c0.169,0.166,0.372,0.249,0.607,0.249h4.396
	c0.232-0.004,0.43-0.086,0.593-0.249c0.165-0.165,0.25-0.364,0.254-0.597c-0.004-0.232-0.089-0.432-0.254-0.598
	c-0.163-0.162-0.36-0.244-0.593-0.248H44.317z M36.557,4.958c0.513-0.685,1.056-0.685,1.629,0v1.295
	c-0.426,1.593-0.333,3.055,0.282,4.386v1.018c1.443,0.073,2.343-0.623,2.7-2.088c1.157,0,2.298,0.007,3.426,0.019
	c0.22,0.306,0.716,0.465,1.491,0.478l0.101,0.401c0.006,0.16,0.065,0.295,0.176,0.406c0.122,0.122,0.266,0.181,0.436,0.181
	c0.168,0,0.312-0.06,0.43-0.181c0.114-0.111,0.175-0.247,0.182-0.406v-0.339l0.813-0.014v0.335c0.006,0.158,0.064,0.294,0.176,0.406
	c0.122,0.121,0.267,0.181,0.436,0.181c0.168,0,0.312-0.061,0.431-0.181c0.113-0.112,0.174-0.248,0.181-0.406V10.08l0.717-0.029
	v0.368c0.006,0.159,0.065,0.294,0.177,0.406c0.121,0.121,0.266,0.181,0.435,0.181s0.313-0.061,0.43-0.181
	c0.115-0.112,0.176-0.248,0.182-0.406V9.989c15.172-0.022,28.445,1.826,39.821,5.542l-38.616-0.268c-0.01,0-0.021,0-0.029,0
	c-0.235,0-0.438,0.083-0.606,0.249c-0.166,0.169-0.249,0.37-0.249,0.606v0.039c0,0.236,0.083,0.438,0.249,0.606
	c0.169,0.165,0.371,0.249,0.606,0.249c0.009,0,0.02,0,0.029,0l38.616-0.269c-11.376,3.718-24.649,5.565-39.821,5.542v-0.43
	c-0.006-0.159-0.066-0.295-0.182-0.405c-0.117-0.122-0.261-0.182-0.43-0.182s-0.313,0.06-0.435,0.182
	c-0.111,0.11-0.171,0.246-0.177,0.405v0.368l-0.717-0.028v-0.368c-0.007-0.159-0.067-0.295-0.181-0.406
	c-0.119-0.121-0.263-0.181-0.431-0.181c-0.169,0-0.313,0.06-0.436,0.181c-0.111,0.111-0.17,0.247-0.176,0.406v0.334l-0.813-0.014
	v-0.339c-0.007-0.159-0.067-0.295-0.182-0.406c-0.118-0.121-0.262-0.183-0.43-0.183c-0.17,0-0.314,0.062-0.436,0.183
	c-0.111,0.111-0.17,0.247-0.176,0.406l-0.101,0.401c-0.774,0.012-1.271,0.172-1.491,0.478c-1.127,0.013-2.269,0.02-3.426,0.02
	c-0.357-1.466-1.257-2.161-2.7-2.089v1.019c-0.615,1.331-0.708,2.793-0.282,4.386v1.294c-0.573,0.687-1.116,0.687-1.629,0v-1.441
	c0.404-1.976,0.127-3.853-0.831-5.629c-1.163,0.182-2.56,0.363-4.191,0.544c-3.262,0.357-6.058,0.524-8.39,0.502
	c-2.083-0.019-4.346-0.173-6.79-0.458c-2.386-0.278-3.934-0.416-4.645-0.416c-0.889,0-2.612,0.222-5.169,0.664
	c-1.208,0.21-2.036,0.342-2.485,0.397c-0.637,0.078-1.039,0.081-1.204,0.008c-0.58-0.254-1.027-0.892-1.342-1.91
	c-0.319-1.023-0.498-2.173-0.536-3.45c-0.039-1.281,0.151-2.448,0.569-3.502c0.417-1.054,0.853-1.666,1.309-1.835
	c0.175-0.063,0.578-0.059,1.208,0.015c0.51,0.06,1.336,0.189,2.48,0.386c2.558,0.443,4.281,0.665,5.169,0.665
	c0.711,0,2.259-0.14,4.645-0.417c2.443-0.287,4.706-0.439,6.79-0.458c2.332-0.023,5.128,0.144,8.39,0.501
	c1.631,0.181,3.028,0.363,4.191,0.545c0.958-1.778,1.235-3.654,0.831-5.629V4.958z"/>
</svg>
