<svg width="22" height="32" viewBox="0 0 22 32" fill="none" xmlns="http://www.w3.org/2000/svg">
<path fill-rule="evenodd" clip-rule="evenodd" d="M18.6604 4.05376C18.7193 4.14102 18.8785 4.35915 19.1403 4.70699C19.3431 4.97111 19.5034 5.04303 19.619 4.9263C19.7357 4.80957 19.619 4.47588 19.2712 3.92288C18.8927 3.34158 18.9516 2.70251 19.4457 2.0033C19.5034 2.29454 19.8525 2.73081 20.4927 3.31211C21.133 3.92288 21.5244 4.51833 21.6706 5.10081C21.7284 5.39087 21.7426 5.68211 21.7143 5.97217C21.6565 6.40844 21.5398 6.75745 21.3664 7.01921C21.0752 7.3977 20.916 7.64414 20.8865 7.76205C20.7981 7.96603 20.8712 8.21247 21.1047 8.50371C21.3075 8.79259 21.2497 9.18523 20.9302 9.68045C20.7262 9.97051 20.2616 10.5235 19.5353 11.3371C19.1167 11.804 18.4989 12.0658 17.6806 12.1224C17.8834 11.7934 18.0944 11.4444 18.3137 11.0765C18.4305 11.0765 18.5036 11.06 18.533 11.0317L19.8419 9.243C19.8996 9.12627 19.8253 8.93762 19.6225 8.67703C19.3903 8.41527 19.0849 8.13936 18.7076 7.84694C18.3302 7.58754 17.98 7.3977 17.6605 7.28097C17.3127 7.13712 17.1075 7.12061 17.0497 7.23852L15.7409 9.02723H15.7857C15.7574 9.08618 15.7574 9.17226 15.7857 9.28781C15.2846 9.8868 14.8413 10.4162 14.4557 10.8808C14.4133 10.8489 14.3767 10.8112 14.346 10.7735C14.1126 10.4539 13.8956 10.0165 13.6916 9.46468C13.4594 8.67939 13.4157 8.04032 13.5608 7.54627C13.7942 7.10882 13.9676 6.78929 14.0843 6.5853C14.2883 6.17851 14.2883 5.62669 14.0843 4.92866L14.5642 5.10317C14.9415 5.30715 15.2186 5.62669 15.3919 6.06178C15.4803 6.20799 15.5228 6.60063 15.5228 7.2397C15.5228 7.73257 15.5358 7.89411 15.5664 7.71842C15.9143 7.25385 16.1324 6.77396 16.2196 6.27991C16.2491 5.98985 16.0605 5.53826 15.6537 4.92748C15.1313 4.28841 14.8118 3.88043 14.6951 3.70711C14.5206 3.44417 14.4474 2.83575 14.4757 1.87596C14.5052 0.886687 14.6503 0.261761 14.912 0C14.971 0.610776 15.2316 1.14845 15.6973 1.61302C15.9308 1.84412 16.5557 2.10706 17.5721 2.3983C17.98 2.51503 18.2265 2.76264 18.3137 3.13996C18.4564 3.66112 18.5731 3.96533 18.6604 4.05376Z" fill="white" fill-opacity="0.6"/>
<path fill-rule="evenodd" clip-rule="evenodd" d="M17.657 7.27979C17.9765 7.3977 18.3267 7.58754 18.704 7.84576C19.0813 8.13818 19.3879 8.41409 19.619 8.67585C19.8218 8.93761 19.8961 9.12627 19.8383 9.24182L18.5295 11.0305C18.5 11.0588 18.4269 11.0753 18.3102 11.0753C16.7113 13.7507 15.7657 15.2894 15.4756 15.6974C15.3589 15.8413 15.228 16.6442 15.0818 18.0957C14.9085 19.5201 14.6031 20.553 14.1668 21.192L6.57928 31.8358C6.347 32.0386 5.82348 32.054 5.00871 31.8795C4.13736 31.6472 3.29312 31.2392 2.48071 30.6567C1.66595 30.0778 1.01155 29.4069 0.516325 28.6522C0.080056 27.953 -0.0791231 27.4602 0.0364291 27.1678L7.62633 16.4827C8.0626 15.8413 8.93513 15.2187 10.2439 14.6067C10.5635 14.4617 10.9997 14.2577 11.5516 13.996C11.9595 13.792 12.2201 13.6187 12.338 13.4736C12.5125 13.2095 13.661 11.8158 15.7834 9.28427C15.7551 9.16872 15.7551 9.08264 15.7834 9.02369H15.7386L17.0474 7.23498C17.104 7.11943 17.308 7.13594 17.657 7.27979Z" fill="white"/>
</svg>
