<?xml version="1.0" encoding="utf-8"?>
<!-- Generator: Adobe Illustrator 16.0.0, SVG Export Plug-In . SVG Version: 6.00 Build 0)  -->
<!DOCTYPE svg PUBLIC "-//W3C//DTD SVG 1.1//EN" "http://www.w3.org/Graphics/SVG/1.1/DTD/svg11.dtd">
<svg version="1.1" id="Layer_1" xmlns="http://www.w3.org/2000/svg" xmlns:xlink="http://www.w3.org/1999/xlink" x="0px" y="0px"
	 width="39.816px" height="32px" viewBox="0 0 39.816 32" enable-background="new 0 0 39.816 32" xml:space="preserve">
<g id="Selected_Items">
	<g>
		<g id="Selected_Items_52_">
			<path fill="#FFFFFF" d="M38.175,7.93h-0.938V9.49l0.225,0.179v0.758l-0.225,0.179l-0.088,1.517H27.024
				c-0.06,0-0.119,0.028-0.179,0.089c-0.149,0.119-0.266,0.281-0.358,0.492c-0.118,0.324-0.712,1.783-1.781,4.37
				c-0.151,0.267-0.298,0.43-0.448,0.489c-0.088,0.06-0.327,0.104-0.713,0.133l-4.638,0.179c-0.178-0.089-0.4-0.179-0.67-0.267
				c-0.475-0.209-0.862-0.328-1.16-0.355c-0.326-0.061-0.55-0.091-0.668-0.091c-0.12,0.03-0.341,0.073-0.667,0.135
				c-0.271,0.088-0.536,0.12-0.805,0.088l-0.313-0.088L12.35,26.93l-0.089,1.068l0.491,0.714l-9.588-0.089
				c0-0.564,0.03-1.292,0.09-2.184c0.179-1.787,0.46-3.479,0.847-5.086c0.415-1.636,0.951-3.168,1.605-4.595
				c0.029-0.087,0.238-0.522,0.625-1.293c0.178-0.386,0.283-0.655,0.311-0.802c0.091-0.355,0.015-0.641-0.223-0.848
				c-0.179-0.18-0.563-0.373-1.159-0.58c-0.597-0.209-0.982-0.34-1.16-0.4c-0.238-0.09-0.358-0.208-0.358-0.357
				c-0.029-0.207-0.014-0.551,0.046-1.025l0.089-0.668l-1.651-0.178c-0.119,0-0.224-0.031-0.312-0.092
				c-0.208-0.147-0.298-0.34-0.269-0.578c0.06-0.299,0.255-0.446,0.581-0.446c0.179-0.031,0.342-0.015,0.49,0.046l0.224-1.163
				l1.339,0.849l0.58-2.899l0.937-1.784V3.78l0.714,0.401l2.854,0.045l0.269,0.222h9.722v0.18h5.44V4.493h9.368V3.288h2.229
				l0.268,0.315v0.803l0.313-0.045l0.313,0.399v0.716h0.893 M24.438,12.21l-5.083,0.045c-0.506,0.504-0.864,0.877-1.07,1.115
				c-0.327,0.416-0.506,0.653-0.536,0.714c-0.208,0.327-0.327,0.698-0.354,1.114c-0.033,0.208,0,0.505,0.087,0.892
				c0.059,0.178,0.118,0.33,0.178,0.446l-0.312,0.223C17.2,16.552,17.08,16.299,16.992,16c-0.237-0.534-0.342-0.98-0.313-1.336
				c0.06-0.594,0.283-1.146,0.67-1.65c0.149-0.238,0.312-0.433,0.491-0.58c-0.208,0.028-0.444,0.088-0.715,0.178
				c-0.534,0.179-0.921,0.386-1.159,0.625c-0.327,0.354-0.534,0.742-0.624,1.158c-0.119,0.446-0.09,0.862,0.09,1.248
				c0.177,0.356,0.431,0.656,0.757,0.894c0.327,0.239,0.713,0.399,1.16,0.491c0.268,0.027,0.7,0.045,1.293,0.045
				c0.505-0.031,0.833,0,0.98,0.088c0.209,0.06,0.938,0.091,2.187,0.091c1.189-0.031,1.843-0.077,1.962-0.135
				c0.147-0.089,0.446-0.757,0.892-2.005l0.67-1.875c0-0.09,0-0.182,0-0.27c0-0.178-0.031-0.326-0.09-0.445
				c-0.12-0.119-0.284-0.207-0.491-0.268L24.438,12.21z"/>
		</g>
	</g>
</g>
<g id="guides">
</g>
</svg>
