<?xml version="1.0" encoding="utf-8"?>
<!-- Generator: Adobe Illustrator 16.0.3, SVG Export Plug-In . SVG Version: 6.00 Build 0)  -->
<!DOCTYPE svg PUBLIC "-//W3C//DTD SVG 1.1//EN" "http://www.w3.org/Graphics/SVG/1.1/DTD/svg11.dtd">
<svg version="1.1" xmlns="http://www.w3.org/2000/svg" xmlns:xlink="http://www.w3.org/1999/xlink" x="0px" y="0px"
	 width="39.833px" height="32px" viewBox="0 0 39.833 32" enable-background="new 0 0 39.833 32" xml:space="preserve">
<g id="Selected_Items">
</g>
<g id="guides">
	<g>
		<rect x="4.736" y="6.848" fill="#FFFFFF" width="2.749" height="1.419"/>
		<polygon fill="#FFFFFF" points="4.819,26.272 7.583,26.289 7.583,23.326 7.204,23.326 7.204,21.872 7.583,21.872 7.583,20.998 
			7.17,20.998 7.17,19.542 7.583,19.542 7.583,13.041 4.819,12.74 		"/>
		<polygon fill="#FFFFFF" points="4.367,11.323 7.695,11.704 7.695,9.431 4.367,9.431 		"/>
		<polygon fill="#FFFFFF" points="36.882,8.446 8.442,8.446 8.442,10.562 36.882,13.815 		"/>
		<rect x="8.855" y="5.559" fill="#FFFFFF" width="3.073" height="1.586"/>
		<polygon fill="#FFFFFF" points="18.305,5.233 26.23,5.233 26.23,6.982 28.636,6.982 28.636,3.688 16.231,3.688 16.231,6.982 
			18.305,6.982 		"/>
		<polygon fill="#FFFFFF" points="39.24,6.943 39.24,6.941 39.239,6.941 38.067,5.356 34.796,5.369 34.796,6.968 37.981,6.968 
			37.981,15.197 36.87,15.197 36.87,20.688 37.981,20.688 39.128,20.688 39.24,20.688 39.24,6.968 39.258,6.968 		"/>
		<path fill="#FFFFFF" d="M8.948,12.146v15.13l27.329,0.163L36.24,15.115L8.948,12.146z M11.577,19.752h9.369v1.627h-9.369V19.752z
			 M20.983,23.983h-9.369v-1.627h9.369V23.983z"/>
		<rect x="1.087" y="8.554" fill="#FFFFFF" width="2.577" height="1.216"/>
		<polygon fill="#FFFFFF" points="1.166,25.208 3.756,25.222 3.756,22.682 3.401,22.682 3.401,21.435 3.756,21.435 3.756,20.685 
			3.37,20.685 3.37,19.438 3.756,19.438 3.756,13.864 1.166,13.606 		"/>
		<polygon fill="#FFFFFF" points="0.742,12.391 3.861,12.717 3.861,10.768 0.742,10.768 		"/>
	</g>
</g>
</svg>
