<svg width="30" height="32" viewBox="0 0 30 32" fill="none" xmlns="http://www.w3.org/2000/svg">
<path fill-rule="evenodd" clip-rule="evenodd" d="M21.4516 8.21445L19.4362 7.0551V9.42391L18.2268 10.5331V12.9006H17.7229V15.3209H18.2268V17.84H17.7229V20.259H18.2268V22.7781H17.7229V25.1957H18.2268V27.5144L19.4362 29.5799V31.2932C19.4362 31.7627 19.2015 32.0001 18.7293 32.0001H9.76053C9.29099 32.0001 9.05622 31.7627 9.05622 31.2932V29.5799L10.2129 27.5144V25.1957H10.7682V22.7781H10.2129V20.259H10.7682V17.84H10.2129V15.3209H10.7682V12.9006H10.2129V10.5331L9.0549 9.42391V6.19912C9.0549 5.72958 9.28967 5.49349 9.75921 5.49349H10.4648L11.9763 4.18378V2.16581C11.1692 2.06689 10.7669 1.68045 10.7669 1.00779C10.7669 0.57254 10.9172 0.285012 11.2206 0.151799C11.3881 0.0515602 11.7244 0.00012207 12.2283 0.00012207H17.7704L22.4579 7.51014V23.3822L20.0904 24.5415C19.7541 24.709 19.5022 24.6589 19.3347 24.3899C19.1659 24.0878 19.2331 23.8029 19.5352 23.5339C19.8042 23.2991 20.2078 23.03 20.7446 22.728L21.4516 22.3772V8.21445Z" fill="white"/>
<path fill-rule="evenodd" clip-rule="evenodd" d="M5.04421 8.15875V10.2293L6.85874 9.19444L7.61234 10.4626L5.7288 11.5315L7.61234 12.5995L6.85874 13.8686L5.04421 12.867V14.9375H3.50297V12.8014L1.58718 13.8686L0.833588 12.5995L2.75117 11.5315L0.833588 10.4626L1.58718 9.19444L3.50297 10.2957V8.15875H5.04421Z" fill="white" fill-opacity="0.851"/>
<path d="M6.09169 22.8359L7.53888 23.6675L8.1545 22.619L6.67038 21.7865L8.11851 20.9171L7.53888 19.8696L6.09169 20.7011V19.0001H4.89738V20.7371L3.41421 19.8696L2.79858 20.9171L4.28176 21.7865L2.79858 22.619L3.37822 23.6675L4.89833 22.7999V24.5H6.09169V22.8359Z" fill="white" fill-opacity="0.851"/>
<path d="M27.6214 16.0338L29.012 15.2202L28.4559 14.2391L27.0653 15.0182V13.4273H25.9177V15.0518L24.4925 14.2391L23.9009 15.2202L25.2924 16.0338L23.9009 16.812L24.457 17.7948L25.9177 16.9812V18.573H27.0653V17.0158L28.4559 17.7948L29.0466 16.812L27.6214 16.0338Z" fill="white" fill-opacity="0.851"/>
</svg>
