<?xml version="1.0" encoding="utf-8"?>
<!-- Generator: Adobe Illustrator 16.0.0, SVG Export Plug-In . SVG Version: 6.00 Build 0)  -->
<!DOCTYPE svg PUBLIC "-//W3C//DTD SVG 1.1//EN" "http://www.w3.org/Graphics/SVG/1.1/DTD/svg11.dtd">
<svg version="1.1" xmlns="http://www.w3.org/2000/svg" xmlns:xlink="http://www.w3.org/1999/xlink" x="0px" y="0px" width="24px"
	 height="32px" viewBox="0 0 24 32" enable-background="new 0 0 24 32" xml:space="preserve">
<g id="Selected_Items">
	<g>
		<g id="Selected_Items_56_">
			<path fill-rule="evenodd" clip-rule="evenodd" fill="#FFFFFF" d="M17.921,13.187l-1.528-0.879v1.796l-0.917,0.841v1.795h-0.382
				v1.835h0.382v1.91h-0.382v1.834h0.382v1.91h-0.382v1.833h0.382v1.758l0.917,1.566v1.299c0,0.356-0.178,0.536-0.536,0.536h-6.8
				c-0.356,0-0.534-0.18-0.534-0.536v-1.299L9.4,27.82v-1.758h0.421v-1.833H9.4v-1.91h0.421v-1.834H9.4v-1.91h0.421V16.74H9.4
				v-1.795l-0.878-0.841v-2.445c0-0.356,0.178-0.535,0.534-0.535h0.535l1.146-0.993V8.601c-0.612-0.075-0.917-0.368-0.917-0.878
				c0-0.33,0.114-0.548,0.344-0.649c0.127-0.076,0.382-0.115,0.764-0.115h4.202l3.554,5.694v12.034l-1.795,0.879
				c-0.255,0.127-0.446,0.089-0.573-0.115c-0.128-0.229-0.077-0.445,0.152-0.649c0.204-0.178,0.51-0.382,0.917-0.611l0.536-0.266
				V13.187z"/>
			<path fill-rule="evenodd" clip-rule="evenodd" fill="#FFFFFF" fill-opacity="0.851" d="M5.847,3.062v2.369l2.025-1.184
				l0.841,1.451L6.611,6.921l2.102,1.222L7.872,9.595L5.847,8.449v2.369h-1.72V8.374L1.989,9.595L1.148,8.143l2.14-1.222
				l-2.14-1.223l0.841-1.451l2.138,1.26V3.062H5.847z M23.728,8.257L22.2,9.175l1.566,0.878l-0.649,1.109l-1.528-0.879v1.757h-1.261
				v-1.796l-1.605,0.918l-0.611-1.109l1.529-0.878l-1.529-0.918l0.65-1.107l1.566,0.917V6.234h1.261v1.795l1.528-0.879L23.728,8.257
				z M5.006,19.72l-1.528-0.878v1.757H2.218v-1.795L0.613,19.72l-0.612-1.107l1.566-0.879l-1.566-0.918l0.65-1.106l1.566,0.916
				v-1.834h1.261v1.796l1.528-0.878l0.612,1.106l-1.529,0.918l1.567,0.879L5.006,19.72z"/>
		</g>
	</g>
</g>
<g id="guides">
</g>
</svg>
