<?xml version="1.0" encoding="utf-8"?>
<!-- Generator: Adobe Illustrator 16.0.0, SVG Export Plug-In . SVG Version: 6.00 Build 0)  -->
<!DOCTYPE svg PUBLIC "-//W3C//DTD SVG 1.1//EN" "http://www.w3.org/Graphics/SVG/1.1/DTD/svg11.dtd">
<svg version="1.1" id="Layer_1" xmlns="http://www.w3.org/2000/svg" xmlns:xlink="http://www.w3.org/1999/xlink" x="0px" y="0px"
	 width="31.97px" height="37.588px" viewBox="0 0 31.97 37.588" enable-background="new 0 0 31.97 37.588" xml:space="preserve">
<g>
	<g>
		<path fill="#FFFFFF" d="M26.966,35.596c-5.051,0-10.102,0-15.151,0c-0.029-0.469,0.089-0.932,0.055-1.4
			c-0.024-0.352,0.038-0.7,0.069-1.047c0.029-0.336,0.014-0.692,0.187-1.014c0.06-0.109,0.082-0.265,0.061-0.389
			c-0.096-0.548-0.187-1.1-0.327-1.637c-0.158-0.603-0.332-1.209-0.65-1.752c-0.24-0.407-0.605-0.723-0.936-1.051
			c-1.668-1.666-3.286-3.381-5.043-4.955c-0.483-0.433-0.938-0.896-1.406-1.346c-0.077-0.074-0.159-0.141-0.245-0.206
			c-0.215-0.164-0.393-0.346-0.352-0.671c0.052-0.404,0.112-0.809,0.198-1.206c0.161-0.749,0.307-1.492,0.308-2.268
			c0.001-1.607-0.075-3.215,0.043-4.821c0.029-0.399,0.091-0.794,0.175-1.184c0.112-0.517,0.389-0.869,0.903-1.108
			C5.958,9.028,7.094,8.586,8.2,8.074c0.494-0.229,1.007-0.327,1.556-0.29c0.421,0.028,0.846,0.005,1.331,0.005
			C10.638,7.621,10.209,7.61,9.78,7.427c0.846-0.367,1.653-0.679,2.425-1.063c0.479-0.239,0.903-0.332,1.35,0.017
			c0.013,0.01,0.025,0.02,0.045,0.034c0.007,0.2,0.095,0.397,0.06,0.606c-0.089,0.537-0.051,1.087-0.164,1.621
			c-0.066,0.318-0.125,0.638-0.24,0.946c-0.194,0.518-0.684,0.737-1.054,1.073c-0.434,0.394-0.905,0.747-1.36,1.117
			c-0.373,0.303-0.756,0.593-1.113,0.912c-0.395,0.351-0.833,0.646-1.2,1.021c0.014,0.193,0.096,0.361,0.137,0.54
			c0.147,0.636,0.295,1.271,0.443,1.906c-0.084,0.079-0.058,0.182-0.064,0.278C9.037,16.511,9.052,16.583,9,16.663
			c-0.31,0.479-0.62,0.957-0.9,1.452c-0.092,0.162-0.276,0.302-0.222,0.604c1.012-0.827,1.985-1.624,2.946-2.41
			c0.295,0.148,0.555,0.297,0.829,0.414c1.055,0.449,1.977,1.099,2.764,1.921c0.232,0.243,0.483,0.326,0.757,0.323
			c0.658-0.008,1.313,0.071,1.97,0.066c0.393-0.002,0.789-0.035,1.176,0.074c0.014,0.136,0.085,0.25,0.152,0.36
			c0.354,0.595,0.715,1.185,1.037,1.798c0.086,0.164,0.099,0.334,0.062,0.495c-0.081,0.355-0.1,0.718-0.147,1.076
			c-0.054,0.412-0.109,0.825-0.155,1.237c-0.025,0.23-0.079,0.47-0.065,0.695c0.161,0.06,0.183-0.061,0.208-0.131
			c0.275-0.755,0.547-1.511,0.812-2.27c0.14-0.404,0.333-0.807,0.375-1.223c0.078-0.793,0.064-1.595,0.12-2.391
			c0.029-0.41-0.034-0.825,0.082-1.236c0.379-0.157,0.775-0.143,1.176-0.089c0.339,0.046,0.667,0.074,0.95-0.193
			c0.547-0.516,1.004-1.102,1.411-1.73c0.512,0.129,1.021,0.257,1.523,0.384c0.042-0.129-0.006-0.183-0.063-0.231
			c-0.317-0.271-0.632-0.547-0.957-0.81c-0.091-0.073-0.16-0.208-0.315-0.169c0.08-0.205,0.111-0.422,0.165-0.634
			c0.067-0.272,0.061-0.559,0.161-0.825c0.125,0.002,0.245-0.012,0.362-0.058c0.723-0.278,1.446-0.551,2.168-0.832
			c0.069-0.027,0.187-0.057,0.101-0.199c-0.107,0-0.226-0.013-0.339,0.002c-0.705,0.091-1.416,0.094-2.124,0.154
			c-0.037-0.182,0.034-0.354,0.046-0.531c0.033-0.525,0.128-1.042,0.177-1.566c0.056-0.599,0.188-1.19,0.002-1.779
			c0.047-0.04,0.073-0.011,0.104,0.004c0.03,0.015,0.068,0.017,0.104,0.021c0.684,0.068,1.23,0.378,1.648,0.921
			c0.552,0.717,1.104,1.433,1.659,2.148c0.19,0.245,0.398,0.494,0.427,0.808c0.064,0.737,0.145,1.469,0.079,2.219
			c-0.063,0.721-0.078,1.45-0.118,2.175c-0.03,0.545-0.088,1.087-0.124,1.632c-0.046,0.702-0.146,1.399-0.208,2.1
			c-0.047,0.525-0.056,1.056-0.121,1.578c-0.027,0.215-0.015,0.431-0.051,0.641c-0.086,0.492-0.091,0.992-0.153,1.486
			c-0.054,0.426-0.065,0.854-0.117,1.279c-0.079,0.633-0.172,1.266-0.269,1.896c-0.05,0.33-0.109,0.666-0.345,0.926
			c-0.161,0.18-0.285,0.385-0.411,0.587c-0.231,0.372-0.393,0.761-0.389,1.222C26.974,31.905,26.966,33.75,26.966,35.596z"/>
		<path fill="#D8D9D8" d="M26.966,35.596c0-1.846,0.009-3.69-0.006-5.537c-0.003-0.459,0.157-0.85,0.389-1.222
			c0.126-0.202,0.25-0.407,0.411-0.587c0.235-0.261,0.295-0.595,0.345-0.926c0.096-0.631,0.189-1.262,0.268-1.896
			c0.053-0.425,0.064-0.854,0.118-1.279c0.063-0.494,0.066-0.993,0.153-1.486c0.037-0.21,0.023-0.426,0.051-0.641
			c0.064-0.522,0.073-1.053,0.121-1.578c0.063-0.7,0.162-1.397,0.208-2.1c0.036-0.544,0.093-1.087,0.124-1.632
			c0.041-0.725,0.055-1.454,0.118-2.175c0.065-0.75-0.015-1.482-0.079-2.219c-0.028-0.314-0.236-0.563-0.427-0.808
			c-0.554-0.715-1.106-1.431-1.658-2.148c-0.418-0.543-0.965-0.854-1.648-0.921c-0.035-0.003-0.073-0.006-0.104-0.021
			c-0.032-0.016-0.058-0.044-0.105-0.004c0.187,0.589,0.054,1.181-0.001,1.78c-0.049,0.523-0.144,1.041-0.177,1.565
			c-0.011,0.177-0.084,0.349-0.046,0.531c-0.148,0.294-0.144,0.616-0.168,0.932c-0.102,0.266-0.094,0.552-0.161,0.825
			c-0.053,0.211-0.085,0.429-0.165,0.633c-0.034,0.209-0.154,0.352-0.329,0.467c-0.197,0.13-0.405,0.234-0.626,0.309
			c-0.483,0.163-0.955,0.365-1.48,0.373c-0.254,0.004-0.474-0.1-0.702-0.17c-0.535-0.162-1.048-0.376-1.453-0.782
			c-0.049-0.049-0.086-0.115-0.188-0.086c0.022,0.196-0.024,0.364-0.192,0.496c-0.416,0.325-0.883,0.555-1.371,0.742
			c-0.041,0.016-0.089,0.015-0.135,0.012c-0.771-0.039-1.478-0.278-2.12-0.7c-0.181-0.118-0.285-0.296-0.26-0.532
			c0.014-0.118,0.002-0.239,0.002-0.404c-0.373,0.318-0.773,0.269-1.133,0.207c-1.048-0.182-2.086-0.42-3.12-0.679
			c-0.186-0.046-0.246-0.129-0.26-0.311c-0.022-0.297-0.033-0.601-0.144-0.897c-0.052,0.015-0.092,0.015-0.116,0.035
			c-0.405,0.327-0.812,0.652-1.209,0.987c-0.086,0.072-0.189,0.141-0.208,0.273c-0.033,0.23-0.064,0.46-0.11,0.688
			c-0.097,0.48-0.135,0.97-0.262,1.445c-0.147-0.635-0.295-1.271-0.443-1.906c-0.042-0.178-0.123-0.347-0.137-0.54
			c0.367-0.374,0.806-0.67,1.2-1.021c0.357-0.319,0.742-0.609,1.114-0.912c0.455-0.371,0.927-0.723,1.36-1.117
			c0.37-0.336,0.859-0.555,1.053-1.073c0.116-0.309,0.175-0.628,0.241-0.946c0.113-0.534,0.075-1.084,0.164-1.621
			c0.035-0.209-0.053-0.406-0.06-0.606C13.581,6.4,13.567,6.39,13.554,6.38c-0.446-0.348-0.87-0.255-1.35-0.017
			C11.433,6.747,10.626,7.06,9.78,7.426c0.429,0.184,0.858,0.194,1.307,0.362c-0.485,0-0.91,0.023-1.331-0.005
			C9.207,7.747,8.693,7.845,8.2,8.074C7.094,8.586,5.958,9.028,4.853,9.543c-0.515,0.24-0.791,0.592-0.903,1.108
			c-0.084,0.39-0.146,0.784-0.175,1.184c-0.118,1.606-0.042,3.214-0.043,4.821c-0.001,0.776-0.146,1.52-0.308,2.268
			c-0.085,0.398-0.146,0.801-0.198,1.206c-0.042,0.325,0.136,0.507,0.352,0.671c0.086,0.065,0.168,0.133,0.245,0.206
			c0.469,0.449,0.923,0.914,1.406,1.347c1.758,1.572,3.375,3.289,5.043,4.953c0.33,0.33,0.695,0.645,0.936,1.053
			c0.319,0.541,0.492,1.148,0.65,1.752c0.141,0.537,0.231,1.088,0.327,1.636c0.021,0.124-0.001,0.278-0.061,0.389
			c-0.173,0.321-0.157,0.677-0.187,1.015c-0.031,0.346-0.094,0.694-0.069,1.045c0.034,0.47-0.084,0.933-0.055,1.402
			c-0.563,0-1.123,0-1.685,0c0.002-0.693-0.007-1.387,0.051-2.08c0.041-0.496,0.084-0.992,0.232-1.468
			c0.045-0.146,0.062-0.29,0.033-0.422c-0.146-0.688-0.288-1.38-0.538-2.042c-0.074-0.195-0.092-0.416-0.254-0.575
			c-0.458-0.446-0.882-0.928-1.334-1.378c-1.29-1.287-2.541-2.611-3.91-3.818c-0.594-0.524-1.144-1.1-1.714-1.651
			c-0.039-0.038-0.074-0.079-0.116-0.114c-0.459-0.386-0.939-0.755-1.086-1.386c0-0.181,0-0.362,0-0.543
			c0.041-0.013,0.053-0.043,0.053-0.082c-0.002-0.448,0.12-0.876,0.207-1.311c0.092-0.46,0.21-0.925,0.22-1.389
			c0.027-1.492,0.011-2.986,0.01-4.479c0-0.072,0.012-0.155-0.02-0.213c-0.188-0.363-0.089-0.689,0.111-1.005
			c0.028-0.044,0.07-0.077,0.072-0.139c0.018-0.49,0.141-0.962,0.271-1.43c0.18-0.637,0.493-1.187,1.13-1.456
			c0.255-0.107,0.259-0.271,0.211-0.47C3.646,7.666,3.516,7.19,3.399,6.71C3.32,6.379,3.222,6.043,3.302,5.705
			c0.188-0.788,0.491-1.531,0.98-2.182c0.256-0.34,0.498-0.701,0.86-0.949c0.427-0.292,0.93-0.362,1.415-0.487
			c0.498-0.129,1.008-0.195,1.516-0.261C8.417,1.781,8.794,1.772,9.08,1.989C9.277,2.14,9.468,2.319,9.648,2.5
			c0.19,0.193,0.22,0.188,0.376-0.051c0.235-0.361,0.527-0.654,0.97-0.736c0.375-0.069,0.757-0.096,1.129-0.175
			c0.224-0.047,0.458,0.005,0.668-0.102c0.29,0,0.58,0,0.869,0c0.009,0.014,0.02,0.041,0.028,0.041
			c0.479-0.001,0.82,0.28,1.118,0.599c0.515,0.553,0.956,1.164,1.307,1.835c0.055,0.105,0.1,0.217,0.255,0.184
			c0.38-0.081,0.759-0.163,1.14-0.238c0.366-0.071,0.735-0.17,1.1,0.001c0.267,0.126,0.494,0.308,0.724,0.492
			c0.456,0.365,0.89,0.749,1.253,1.208c0.203,0.257,0.402,0.469,0.815,0.344c0.595-0.181,1.215-0.273,1.848-0.235
			c0.22,0.013,0.396,0.083,0.549,0.231c0.053,0.05,0.101,0.106,0.159,0.146c0.538,0.368,1.025,0.79,1.416,1.316
			c0.071,0.096,0.183,0.127,0.297,0.163c0.284,0.088,0.579,0.137,0.851,0.276c0.457,0.235,0.739,0.65,1.055,1.021
			c0.545,0.642,1.042,1.325,1.567,1.985c0.348,0.437,0.604,0.9,0.666,1.475c0.019,0.181-0.038,0.392,0.091,0.56
			c0,0.996,0,1.992,0,2.987c-0.071,0.024-0.052,0.085-0.055,0.136c-0.013,0.35-0.02,0.698-0.043,1.048
			c-0.044,0.66-0.114,1.316-0.169,1.975c-0.064,0.782-0.138,1.563-0.216,2.343c-0.057,0.576-0.106,1.153-0.164,1.729
			c-0.063,0.664-0.146,1.326-0.218,1.99c-0.086,0.803-0.198,1.604-0.331,2.399c-0.127,0.756-0.3,1.487-0.878,2.056
			c-0.159,0.156-0.216,0.366-0.214,0.609c0.011,1.828,0.006,3.654,0.006,5.482C27.401,35.596,27.184,35.596,26.966,35.596z
			 M16.04,5.588c0.053,0.188-0.047,0.334-0.046,0.498c0.011,2.917-0.029,5.836,0.056,8.753c0,0.009,0.001,0.018,0,0.027
			c-0.007,0.099,0.03,0.154,0.122,0.211c0.318,0.198,0.659,0.335,1.014,0.449c0.438,0.142,0.877,0.239,1.313-0.003
			c0.285-0.159,0.567-0.323,0.853-0.486c0.041-0.594,0.098-1.191,0.115-1.79c0.014-0.422,0.057-0.842,0.076-1.263
			c0.014-0.294,0.005-0.593,0.043-0.884c0.095-0.71,0.103-1.426,0.147-2.138c0.03-0.456,0.102-0.912,0.064-1.372
			c-0.004-0.056,0.037-0.106,0.038-0.154c0.001-0.278,0.074-0.548-0.136-0.817c-0.396-0.51-0.917-0.878-1.384-1.305
			c-0.131-0.12-0.29-0.159-0.492-0.103c-0.33,0.093-0.679,0.118-1.015,0.194C16.561,5.46,16.303,5.475,16.04,5.588z M21.385,7.459
			c-0.309,0.834-0.389,1.698-0.498,2.554c-0.047,0.361-0.081,0.726-0.127,1.087c-0.054,0.432-0.104,0.865-0.14,1.297
			c-0.04,0.498-0.084,0.998-0.133,1.494c-0.031,0.312,0.071,0.477,0.294,0.636c0.36,0.258,0.78,0.367,1.195,0.481
			c0.118,0.033,0.229,0.128,0.371,0.062c0.384-0.18,0.789-0.3,1.197-0.408c0.109-0.029,0.189-0.078,0.215-0.198
			c0.033-0.146,0.089-0.288,0.107-0.436c0.08-0.633,0.2-1.26,0.288-1.891c0.095-0.677,0.172-1.355,0.27-2.03
			c0.035-0.246,0.029-0.494,0.082-0.741c0.055-0.253,0.04-0.517-0.14-0.764c-0.386-0.529-0.886-0.923-1.409-1.297
			c-0.098-0.07-0.209-0.067-0.332-0.039C22.23,7.36,21.842,7.501,21.385,7.459z M11.567,13.589c1.118,0.235,2.223,0.572,3.379,0.675
			c0.01-0.072,0.016-0.099,0.017-0.125c0.021-1.571-0.031-3.142,0.05-4.713c0.046-0.891-0.077-1.783-0.052-2.676
			c0.019-0.624,0-1.249,0.005-1.874c0.001-0.13-0.024-0.244-0.09-0.356c-0.306-0.523-0.678-0.997-1.077-1.45
			c-0.141-0.16-0.314-0.234-0.543-0.228c-0.563,0.015-1.111,0.151-1.674,0.181c-0.175,0.01-0.334,0.103-0.445,0.257
			c-0.243,0.338-0.487,0.675-0.738,1.007c-0.043,0.058-0.061,0.114-0.047,0.174c0.121,0.556,0.146,1.125,0.236,1.684
			c0.044,0.017,0.087,0.014,0.13-0.005c0.477-0.211,0.948-0.433,1.431-0.629c0.209-0.085,0.398-0.22,0.646-0.226
			c0.517-0.012,0.913,0.251,1.306,0.528c0.192,0.136,0.3,0.311,0.333,0.567c0.055,0.432,0.021,0.853-0.001,1.282
			c-0.035,0.643-0.132,1.272-0.286,1.893c-0.09,0.362-0.224,0.733-0.503,0.977c-0.705,0.611-1.444,1.183-2.171,1.768
			c-0.063,0.05-0.106,0.097-0.084,0.179C11.485,12.838,11.452,13.218,11.567,13.589z M9.765,6.536
			C9.759,6.193,9.692,5.899,9.638,5.604c-0.08-0.441-0.13-0.893-0.326-1.305C9.137,3.932,8.8,3.703,8.548,3.401
			C8.395,3.218,8.211,3.197,8.016,3.234C7.375,3.358,6.737,3.493,6.104,3.651C5.965,3.686,5.873,3.75,5.798,3.844
			c-0.399,0.51-0.771,1.04-0.982,1.659C4.724,5.769,4.658,6.038,4.748,6.334c0.142,0.463,0.24,0.939,0.364,1.408
			c0.062,0.234,0.08,0.483,0.205,0.709C6.789,7.746,8.3,7.177,9.765,6.536z"/>
		<path fill="#8C8C8C" d="M9.107,16.155c0.126-0.475,0.165-0.965,0.262-1.445c0.046-0.228,0.078-0.458,0.11-0.688
			c0.019-0.132,0.123-0.201,0.208-0.273c0.398-0.334,0.805-0.66,1.209-0.987c0.024-0.02,0.064-0.02,0.116-0.035
			c0.11,0.296,0.12,0.6,0.144,0.897c0.014,0.182,0.074,0.264,0.26,0.311c1.033,0.258,2.071,0.497,3.12,0.679
			c0.359,0.063,0.761,0.111,1.133-0.207c0,0.165,0.012,0.286-0.002,0.404c-0.025,0.235,0.079,0.414,0.259,0.532
			c0.644,0.422,1.351,0.661,2.121,0.7c0.044,0.002,0.094,0.003,0.135-0.012c0.488-0.188,0.955-0.417,1.37-0.742
			c0.169-0.132,0.216-0.299,0.193-0.496c0.102-0.029,0.137,0.037,0.188,0.086c0.405,0.406,0.917,0.62,1.452,0.782
			c0.23,0.07,0.449,0.174,0.703,0.17c0.525-0.007,0.997-0.209,1.48-0.373c0.222-0.075,0.43-0.179,0.626-0.309
			c0.174-0.116,0.294-0.258,0.329-0.467c0.155-0.039,0.226,0.096,0.315,0.169c0.325,0.263,0.64,0.538,0.957,0.81
			c0.057,0.048,0.105,0.102,0.063,0.231c-0.503-0.127-1.012-0.256-1.523-0.385c-0.407,0.628-0.864,1.214-1.411,1.73
			c-0.283,0.268-0.611,0.239-0.95,0.193c-0.4-0.054-0.798-0.068-1.176,0.089c-0.116,0.411-0.053,0.827-0.082,1.236
			c-0.056,0.796-0.042,1.599-0.12,2.39c-0.042,0.416-0.235,0.819-0.375,1.225c-0.264,0.759-0.535,1.515-0.812,2.27
			c-0.025,0.07-0.048,0.189-0.208,0.131c-0.013-0.226,0.04-0.463,0.065-0.695c0.046-0.413,0.102-0.825,0.155-1.237
			c0.048-0.358,0.066-0.721,0.146-1.077c0.037-0.16,0.025-0.332-0.062-0.494c-0.321-0.613-0.683-1.205-1.037-1.799
			c-0.066-0.111-0.139-0.225-0.152-0.361c-0.387-0.107-0.783-0.075-1.176-0.072c-0.657,0.004-1.312-0.074-1.97-0.066
			c-0.273,0.003-0.524-0.081-0.757-0.323c-0.787-0.822-1.708-1.472-2.763-1.921c-0.274-0.117-0.534-0.266-0.829-0.414
			c-0.961,0.787-1.936,1.584-2.946,2.411c-0.056-0.302,0.129-0.442,0.222-0.604C8.379,17.62,8.69,17.142,9,16.664
			c0.052-0.081,0.038-0.153,0.043-0.23C9.051,16.337,9.023,16.234,9.107,16.155z"/>
		<path fill="#8C8C8C" d="M24.849,13.225c0.025-0.316,0.02-0.638,0.168-0.932c0.707-0.06,1.418-0.063,2.124-0.154
			c0.113-0.015,0.231-0.002,0.339-0.002c0.087,0.142-0.03,0.172-0.101,0.199c-0.721,0.28-1.444,0.554-2.167,0.831
			C25.094,13.212,24.974,13.227,24.849,13.225z"/>
		<path fill="#FFFFFF" d="M16.04,5.588c0.264-0.114,0.521-0.128,0.77-0.184c0.336-0.076,0.685-0.101,1.015-0.194
			c0.202-0.056,0.361-0.017,0.492,0.103c0.467,0.427,0.987,0.795,1.384,1.305c0.21,0.27,0.137,0.54,0.135,0.817
			c0,0.047-0.042,0.098-0.037,0.154c0.037,0.46-0.034,0.917-0.064,1.372c-0.046,0.712-0.054,1.428-0.148,2.138
			c-0.039,0.292-0.029,0.59-0.043,0.884c-0.019,0.421-0.062,0.841-0.075,1.263c-0.019,0.599-0.075,1.196-0.115,1.79
			c-0.285,0.163-0.567,0.328-0.854,0.486c-0.436,0.242-0.874,0.145-1.313,0.003c-0.354-0.114-0.694-0.251-1.013-0.449
			c-0.092-0.058-0.129-0.112-0.122-0.211c0.001-0.009,0-0.018,0-0.027c-0.086-2.917-0.045-5.835-0.056-8.753
			C15.993,5.923,16.093,5.776,16.04,5.588z"/>
		<path fill="#FFFFFF" d="M21.385,7.459c0.457,0.042,0.846-0.099,1.241-0.192c0.122-0.029,0.233-0.032,0.332,0.039
			c0.522,0.374,1.023,0.768,1.409,1.297c0.18,0.247,0.194,0.51,0.14,0.764c-0.052,0.247-0.046,0.495-0.082,0.741
			c-0.097,0.675-0.174,1.354-0.269,2.03c-0.088,0.631-0.208,1.258-0.288,1.891c-0.019,0.147-0.074,0.29-0.106,0.436
			c-0.026,0.12-0.106,0.169-0.217,0.198c-0.408,0.108-0.813,0.228-1.197,0.408c-0.144,0.067-0.253-0.029-0.371-0.062
			c-0.416-0.114-0.835-0.223-1.195-0.481c-0.223-0.16-0.325-0.325-0.294-0.636c0.049-0.496,0.093-0.996,0.133-1.494
			c0.035-0.432,0.086-0.865,0.14-1.297c0.046-0.361,0.08-0.726,0.127-1.087C20.996,9.157,21.076,8.293,21.385,7.459z"/>
		<path fill="#FFFFFF" d="M11.567,13.589c-0.115-0.371-0.082-0.751-0.181-1.11c-0.022-0.082,0.021-0.129,0.084-0.179
			c0.728-0.585,1.466-1.157,2.171-1.768c0.279-0.243,0.413-0.615,0.503-0.977c0.154-0.621,0.251-1.25,0.287-1.893
			c0.022-0.429,0.055-0.85,0-1.282c-0.033-0.256-0.141-0.431-0.333-0.567c-0.394-0.276-0.79-0.54-1.307-0.528
			c-0.247,0.006-0.436,0.141-0.646,0.226c-0.482,0.196-0.954,0.417-1.431,0.629c-0.043,0.019-0.086,0.022-0.13,0.005
			c-0.091-0.559-0.115-1.128-0.236-1.684c-0.014-0.061,0.003-0.116,0.047-0.174c0.251-0.332,0.495-0.669,0.737-1.007
			c0.111-0.155,0.271-0.248,0.446-0.257c0.563-0.03,1.11-0.166,1.674-0.181c0.229-0.006,0.402,0.068,0.543,0.228
			c0.399,0.453,0.771,0.927,1.077,1.45c0.065,0.112,0.092,0.226,0.09,0.356c-0.004,0.625,0.014,1.25-0.005,1.874
			c-0.025,0.894,0.098,1.785,0.051,2.676c-0.08,1.571-0.027,3.142-0.049,4.713c0,0.026-0.007,0.052-0.017,0.125
			C13.79,14.161,12.685,13.824,11.567,13.589z"/>
		<path fill="#FFFFFF" d="M9.765,6.536C8.3,7.177,6.789,7.746,5.317,8.452c-0.125-0.227-0.144-0.476-0.205-0.71
			C4.988,7.273,4.889,6.797,4.748,6.334c-0.09-0.296-0.023-0.565,0.067-0.831c0.212-0.619,0.583-1.149,0.982-1.659
			C5.873,3.75,5.965,3.686,6.104,3.651c0.634-0.158,1.271-0.293,1.913-0.417c0.194-0.038,0.378-0.017,0.531,0.167
			C8.8,3.703,9.137,3.932,9.312,4.299c0.196,0.413,0.246,0.864,0.326,1.305C9.692,5.899,9.759,6.193,9.765,6.536z"/>
	</g>
</g>
</svg>
