<?xml version="1.0" encoding="utf-8"?>
<!-- Generator: Adobe Illustrator 16.0.0, SVG Export Plug-In . SVG Version: 6.00 Build 0)  -->
<!DOCTYPE svg PUBLIC "-//W3C//DTD SVG 1.1//EN" "http://www.w3.org/Graphics/SVG/1.1/DTD/svg11.dtd">
<svg version="1.1" xmlns="http://www.w3.org/2000/svg" xmlns:xlink="http://www.w3.org/1999/xlink" x="0px" y="0px"
	 width="19.438px" height="32px" viewBox="0 0 19.438 32" enable-background="new 0 0 19.438 32" xml:space="preserve">
<g id="Selected_Items">
	<g>
		<g id="Selected_Items_57_">
			<path fill-rule="evenodd" clip-rule="evenodd" fill="#FFFFFF" d="M14.917,11.512c0,0.024,0,0.049,0,0.072
				c0.022,0.023,0.034,0.048,0.034,0.072c0,0.023,0.012,0.047,0.036,0.072v0.035c0.025,0.023,0.037,0.048,0.037,0.072
				c0.024,0.023,0.047,0.047,0.071,0.071v0.036c0,0.024,0.013,0.035,0.036,0.035c0,0.024,0,0.048,0,0.072
				c0.025,0.023,0.036,0.048,0.036,0.072s0.012,0.048,0.037,0.073l0.035,0.035c0,0.024,0,0.047,0,0.071
				c0.025,0.023,0.037,0.048,0.037,0.071l0.036,0.037v0.035c0,0.023,0,0.049,0,0.073c0.024,0.024,0.048,0.046,0.072,0.071
				c0,0.024,0.011,0.047,0.034,0.073l0.036,0.036c0,0.023,0,0.047,0,0.071c0.024,0.023,0.037,0.048,0.037,0.072v0.036
				c0.023,0,0.035,0.011,0.035,0.035c0,0.022,0,0.048,0,0.071c0.025,0.023,0.036,0.048,0.036,0.072
				c0.024,0.023,0.036,0.047,0.036,0.072c0.023,0,0.036,0.013,0.036,0.036c0.023,0.023,0.037,0.047,0.037,0.072
				c0.023,0.024,0.034,0.047,0.034,0.071c0.025,0,0.048,0,0.071,0c0,0.024,0.024,0.037,0.073,0.037
				c0.024,0.022,0.047,0.046,0.071,0.07c0.023,0.024,0.037,0.047,0.037,0.072c0.022,0.024,0.035,0.048,0.035,0.071v0.073
				c0.023,0.022,0.036,0.046,0.036,0.069c0,0.026,0.013,0.048,0.036,0.071v0.038c0,0.023,0.011,0.046,0.036,0.07
				c0,0.024,0,0.047,0,0.073c0.024,0.024,0.036,0.047,0.036,0.071c0.024,0,0.037,0.012,0.037,0.035v0.037
				c0.024,0.023,0.036,0.046,0.036,0.071c0,0.024,0,0.048,0,0.073l0.035,0.036c0,0.023,0.011,0.045,0.037,0.07
				c0,0.024,0.012,0.049,0.036,0.072c0,0.023,0,0.047,0,0.072c0.025,0,0.036,0.011,0.036,0.036l0.035,0.037
				c0.025,0.023,0.036,0.046,0.036,0.071c0.024,0.026,0.036,0.048,0.036,0.071v0.037c0.023,0.023,0.036,0.047,0.036,0.071
				c0.023,0.025,0.037,0.049,0.037,0.072l0.034,0.035c0.025,0.024,0.036,0.047,0.036,0.07l0.037,0.038c0,0.023,0,0.046,0,0.072
				c0.023,0.023,0.034,0.047,0.034,0.071l0.037,0.036c0,0.022,0.012,0.047,0.036,0.072c0,0.023,0.011,0.049,0.034,0.071v0.036
				c0.026,0.024,0.038,0.047,0.038,0.072l0.034,0.036c0.025,0.023,0.037,0.047,0.037,0.071c0,0.024,0.012,0.036,0.035,0.036
				c0,0.023,0,0.048,0,0.072c0.024,0.024,0.036,0.047,0.036,0.072c0.024,0.023,0.036,0.048,0.036,0.072l0.037,0.035
				c0.023,0.024,0.036,0.049,0.036,0.072l0.035,0.036c0,0.024,0,0.047,0,0.072l0.035,0.035c0,0.026,0,0.048,0,0.071
				c0,0.024,0.013,0.049,0.037,0.072c0,0.024,0,0.049,0,0.073c0.023,0,0.036,0.011,0.036,0.034c0.024,0.023,0.035,0.048,0.035,0.073
				v0.035c0.025,0.024,0.049,0.047,0.072,0.072l0.037,0.037c0,0.023,0,0.047,0,0.071c0,0.024,0.012,0.048,0.035,0.071
				c0,0.024,0,0.049,0,0.072c0.024,0,0.037,0.012,0.037,0.035c0,0.025,0,0.049,0,0.073l0.035,0.037c0,0.023,0,0.046,0,0.069
				l0.036,0.039c0,0.022,0.012,0.045,0.035,0.069c0,0.023,0.013,0.047,0.037,0.071v0.037c0,0.025,0,0.047,0,0.072
				c0.023,0.023,0.036,0.048,0.036,0.071l0.037,0.037c0.023,0.022,0.046,0.047,0.072,0.07v0.037
				c0.024,0.024,0.035,0.048,0.035,0.072c0,0.023,0,0.047,0,0.071l0.036,0.036c0.024,0.023,0.036,0.049,0.036,0.071
				c0,0.024,0,0.049,0,0.074l0.037,0.035v0.035c0.024,0.024,0.047,0.048,0.071,0.073c0,0.023,0.012,0.047,0.036,0.07
				c0,0.024,0.012,0.049,0.035,0.074c0,0.022,0.013,0.036,0.036,0.036c0,0.023,0,0.047,0,0.07c0,0.025,0,0.048,0,0.073l0.071,0.072
				c0.025,0.023,0.048,0.047,0.072,0.07c0,0.024,0,0.049,0,0.072c0.024,0.023,0.048,0.049,0.072,0.074v0.034
				c0.023,0.024,0.035,0.048,0.035,0.073c0.025,0.023,0.037,0.048,0.037,0.071v0.036c0.023,0.024,0.047,0.037,0.072,0.037
				c0,0.024,0.012,0.048,0.036,0.072c0,0.023,0.012,0.047,0.036,0.071c0,0.024,0.011,0.048,0.036,0.071v0.035
				c0,0.025,0,0.049,0,0.073c0.023,0.023,0.034,0.047,0.034,0.071l0.037,0.037c0.024,0,0.047,0.011,0.072,0.036
				c0,0.024,0,0.049,0,0.071c0.023,0.025,0.035,0.048,0.035,0.072l0.036,0.035v0.037c0,0.024,0,0.047,0,0.071v0.037
				c0.025,0,0.049,0.011,0.073,0.034c0,0.025,0.011,0.05,0.034,0.072c0.024,0,0.036,0.011,0.036,0.035
				c0,0.023,0.013,0.048,0.036,0.071v0.037c0,0.024,0,0.047,0,0.071v0.037c0,0.023,0,0.047,0,0.07s0,0.049,0,0.072
				c0,0.025,0,0.049,0,0.073c-0.023,0-0.036,0.011-0.036,0.034c0,0.025,0,0.048,0,0.072l-0.036,0.036c0,0.143,0,0.286,0,0.43
				c0,0.167,0,0.333,0,0.5c0,0.167,0,0.334,0,0.501c0,0.192,0,0.37,0,0.538c0,0.189,0,0.37,0,0.537c0,0.192,0,0.357,0,0.501
				c0,0.12,0,0.227,0,0.324c0,0.023,0,0.046,0,0.07v0.144c0,0.022,0,0.047,0,0.071v0.106c0,0.024,0,0.049,0,0.074
				c0,0.023,0,0.047,0,0.071v0.036c0,0.023,0,0.046,0,0.071v0.036c0,0.024,0,0.048,0,0.071c0,0.024,0,0.048,0,0.071l0.036,0.037
				c0,0.025,0,0.048,0,0.071c0,0.025,0.013,0.048,0.036,0.071v0.037c0,0.024,0,0.048,0,0.072v0.035c0,0.023,0,0.047,0,0.071v0.037
				c0,0.023,0,0.047,0,0.07c0,0.025,0,0.048,0,0.073c0,0.024,0,0.047,0,0.07v0.037c0,0.023,0,0.047,0,0.072v0.036
				c0,0.024,0,0.048,0,0.072v0.037c0,0.022,0,0.045,0,0.07s0,0.048,0,0.072s0,0.047,0,0.071v0.037c0,0.023,0,0.048,0,0.071
				l0.036,0.036c0,0.024,0,0.046,0,0.07l0.036,0.038c0,0.023,0,0.047,0,0.071c0,0.023,0,0.046,0,0.071s0,0.048,0,0.07v0.038
				c0,0.024,0,0.047,0,0.071v0.037c0,0.023,0,0.047,0,0.071v0.037c0,0.024,0,0.046,0,0.071s0,0.049,0,0.071v0.036
				c0,0.024,0,0.049,0,0.072c0,0.023,0,0.048,0,0.071v0.036c0,0.024,0,0.048,0,0.073v0.037c0,0.023,0,0.047,0,0.07
				c0,0.024,0,0.049,0,0.073v0.036c0,0.024,0,0.047,0,0.071c0,0.023,0,0.048,0,0.072v0.071c0,0.023,0,0.048,0,0.071
				c0,0.024,0,0.047,0,0.072c0,0.025,0,0.049,0,0.072l0.035,0.036c0,0.023,0.012,0.048,0.036,0.072c0,0.023,0,0.048,0,0.072v0.07
				c0,0.024,0,0.049,0,0.072c0,0.024,0,0.047,0,0.072c0,0.023,0,0.047,0,0.071v0.035c0,0.024,0,0.049,0,0.072
				c0,0.024,0,0.047,0,0.072v0.071c0,0.024,0,0.047,0,0.072s0,0.049,0,0.071c0,0.025,0,0.05,0,0.074v0.035c0,0.023,0,0.048,0,0.071
				c0,0.024,0,0.048,0,0.073v0.071c0,0.024,0,0.047,0,0.07c0,0.024,0,0.048,0,0.071c0,0.025,0,0.049,0,0.074
				c-0.024,0-0.036,0.011-0.036,0.035c0,0.024,0,0.049,0,0.072c-0.024,0.022-0.035,0.046-0.035,0.072v0.071c0,0.024,0,0.048,0,0.072
				c0,0.024,0,0.047,0,0.071v0.037c0,0.022,0,0.046,0,0.07c0,0.023,0,0.048,0,0.072c0,0.023,0,0.048,0,0.071v0.073
				c0,0.022,0,0.046,0,0.071c0,0.023,0,0.048,0,0.072v0.034c0,0.026,0,0.05,0,0.073c0,0.023,0,0.046,0,0.073c0,0.022,0,0.046,0,0.07
				c0,0.024,0,0.049,0,0.072c0,0.024,0,0.049,0,0.073c0,0.022,0,0.047,0,0.071v0.035c0,0.025,0,0.048,0,0.071
				c0,0.024,0,0.049,0,0.073c0,0.024,0,0.048,0,0.072c0,0.025-0.013,0.048-0.036,0.071c0,0.024,0,0.049,0,0.072
				s-0.013,0.047-0.036,0.072l-0.036,0.036c0,0.024-0.012,0.047-0.036,0.07c-0.023,0.024-0.034,0.048-0.034,0.072
				c-0.024,0.025-0.037,0.048-0.037,0.072h-0.037c0,0.024-0.011,0.048-0.036,0.072H18.64c-0.072,0.025-0.12,0.048-0.143,0.071
				c-0.048,0-0.095,0.012-0.144,0.035c-0.072,0-0.155,0-0.251,0c-0.048-0.023-0.094-0.035-0.142-0.035
				c-0.024-0.023-0.06-0.046-0.107-0.071c0-0.024-0.013-0.048-0.037-0.072v-0.035c0-0.024,0-0.048,0-0.072c0-0.025,0-0.048,0-0.071
				c0-0.023,0-0.048,0-0.072v-0.037l0.037-0.035c0.024-0.023,0.047-0.048,0.071-0.072c0.024-0.023,0.048-0.046,0.071-0.071
				c0.048,0,0.096,0,0.143,0c0.024-0.023,0.048-0.047,0.071-0.072c0-0.073,0-0.131,0-0.178c0-0.167,0-0.348,0-0.537
				c0-0.167,0-0.347,0-0.538c0-0.166,0-0.335,0-0.501c0-0.168,0-0.334,0-0.501c0-0.192,0-0.37,0-0.537c0-0.192,0-0.371,0-0.537
				s0-0.335,0-0.502c0-0.167,0-0.346,0-0.536c0-0.168,0-0.347,0-0.536c0-0.145,0-0.312,0-0.503c0-0.048,0-0.106,0-0.179v-0.144
				c0-0.023,0-0.048,0-0.072v-0.036c0-0.024,0-0.046,0-0.071v-0.072c0-0.025,0-0.048,0-0.071v-0.145c0-0.023,0-0.047,0-0.07v-0.109
				c-0.022-0.023-0.035-0.046-0.035-0.071c-0.024-0.024-0.047-0.037-0.072-0.037c0-0.023,0-0.047,0-0.071v-0.035
				c0-0.023,0-0.047,0-0.073c0-0.024,0-0.046,0-0.071v-0.036c0-0.023,0-0.048,0-0.073c0-0.023,0-0.046,0-0.07v-0.037
				c0-0.023,0-0.047,0-0.071v-0.037c0-0.023,0-0.048,0-0.072v-0.036c0-0.023,0-0.047,0-0.07c0-0.023,0-0.047,0-0.072
				c0-0.023,0-0.048,0-0.071v-0.037c-0.023-0.024-0.035-0.046-0.035-0.071v-0.037c-0.024-0.023-0.036-0.047-0.036-0.072v-0.036
				c0-0.023,0-0.047,0-0.07c0-0.024,0-0.049,0-0.074c0-0.024,0-0.046,0-0.07v-0.035c0-0.024,0-0.048,0-0.072v-0.036
				c0-0.024,0-0.048,0-0.071v-0.037c0-0.022,0-0.047,0-0.07c0-0.026,0-0.05,0-0.073c0-0.023,0-0.047,0-0.071v-0.037
				c0-0.023,0-0.047,0-0.071V21.79c0-0.024,0-0.048,0-0.072v-0.036c0-0.023,0-0.045,0-0.07s0-0.048,0-0.072
				c-0.023-0.024-0.048-0.047-0.071-0.071v-0.037c0-0.023,0-0.047,0-0.071v-0.037c0-0.023,0-0.046,0-0.071v-0.036
				c0-0.023,0-0.049,0-0.073c0-0.023,0-0.047,0-0.071v-0.036c-0.024-0.022-0.036-0.047-0.036-0.07
				c-0.024-0.024-0.035-0.049-0.035-0.072v-0.072c0-0.024,0-0.048,0-0.073c0-0.023,0-0.046,0-0.071s0-0.048,0-0.072l-0.036-0.035
				c-0.024-0.024-0.037-0.049-0.037-0.072c0-0.023,0-0.048,0-0.071v-0.072c0-0.022,0-0.049,0-0.071
				c-0.024-0.024-0.036-0.047-0.036-0.072s0-0.049,0-0.071c-0.024,0-0.036-0.013-0.036-0.036c0-0.025-0.011-0.048-0.035-0.073
				c0-0.023,0-0.048,0-0.071c-0.025,0-0.048-0.012-0.072-0.036v-0.037c0-0.023,0-0.047,0-0.071c0-0.024,0-0.048,0-0.072
				c0-0.023,0-0.047,0-0.071v-0.035c0-0.026,0-0.049,0-0.071c0-0.026,0-0.049,0-0.073c-0.025,0-0.037-0.011-0.037-0.036
				c-0.024,0-0.036-0.012-0.036-0.037c0-0.023-0.012-0.047-0.037-0.07c0-0.024-0.011-0.047-0.035-0.072c0-0.023,0-0.048,0-0.071
				c-0.023,0-0.036-0.012-0.036-0.037c0-0.023-0.011-0.048-0.035-0.071c-0.024-0.024-0.037-0.048-0.037-0.073
				c-0.023,0-0.035-0.011-0.035-0.035v-0.035c-0.024-0.024-0.037-0.047-0.037-0.071c-0.023-0.024-0.047-0.049-0.072-0.072
				c0-0.024-0.011-0.036-0.035-0.036c0-0.025-0.013-0.048-0.036-0.072c0-0.023,0-0.047,0-0.071
				c-0.024-0.025-0.037-0.049-0.037-0.073v-0.034L17.1,18.495c0-0.024-0.011-0.047-0.035-0.071c0-0.024-0.013-0.049-0.036-0.07
				c0-0.027-0.013-0.037-0.037-0.037c0-0.025,0-0.049,0-0.072c-0.023-0.024-0.036-0.048-0.036-0.073
				c-0.024-0.023-0.036-0.047-0.036-0.07h-0.035c0-0.025,0-0.048,0-0.073s-0.011-0.047-0.037-0.071c0-0.024,0-0.047,0-0.073
				c-0.023-0.023-0.045-0.035-0.072-0.035c0-0.023-0.011-0.048-0.034-0.07c-0.024,0-0.048,0-0.073,0
				c-0.023-0.025-0.058-0.049-0.107-0.074c-0.024-0.022-0.034-0.047-0.034-0.071c-0.025,0-0.049-0.011-0.073-0.036
				c0-0.023,0-0.048,0-0.071c-0.024-0.024-0.036-0.047-0.036-0.072l-0.036-0.037c0-0.023,0-0.048,0-0.07
				c-0.023,0-0.046-0.014-0.071-0.037c-0.024-0.023-0.048-0.047-0.073-0.071c0-0.025-0.012-0.047-0.035-0.072v-0.037
				c0-0.023-0.012-0.048-0.036-0.071c0-0.024-0.012-0.047-0.037-0.069c0-0.027-0.012-0.039-0.036-0.039c0-0.023,0-0.046,0-0.069
				c-0.025,0-0.036-0.012-0.036-0.037c-0.023-0.023-0.048-0.048-0.071-0.073V16.74c0-0.023-0.013-0.048-0.035-0.072
				c0-0.023,0-0.046,0-0.071c-0.024-0.024-0.048-0.047-0.072-0.071l-0.036-0.037c-0.024-0.025-0.049-0.048-0.073-0.072v-0.035
				c0-0.024,0-0.049,0-0.073v-0.034c-0.023-0.024-0.046-0.048-0.071-0.073c-0.023-0.023-0.048-0.048-0.071-0.072
				c0-0.023-0.013-0.045-0.036-0.071l-0.036-0.035c-0.023-0.024-0.036-0.048-0.036-0.072l-0.035-0.036c0-0.023,0-0.047,0-0.072
				c-0.024,0-0.037-0.013-0.037-0.035c-0.024-0.024-0.047-0.049-0.07-0.072c0-0.024-0.013-0.047-0.036-0.072
				c-0.025-0.023-0.036-0.048-0.036-0.072l-0.036-0.036c-0.024-0.023-0.037-0.047-0.037-0.071c-0.023,0-0.047-0.011-0.072-0.036
				c0-0.024,0-0.048,0-0.072c-0.024,0-0.036-0.012-0.036-0.036c-0.023-0.022-0.036-0.048-0.036-0.071
				c-0.023-0.025-0.047-0.049-0.071-0.072c0-0.024-0.012-0.036-0.037-0.036c0-0.023-0.012-0.048-0.036-0.071
				c-0.023-0.026-0.047-0.049-0.071-0.072l-0.036-0.038c-0.023-0.023-0.047-0.046-0.072-0.07l-0.033-0.035
				c0-0.022-0.013-0.046-0.038-0.072c0-0.024,0-0.048,0-0.071c-0.023-0.023-0.047-0.037-0.071-0.037
				c0-0.023-0.012-0.045-0.036-0.071c-0.024-0.024-0.037-0.048-0.037-0.071c-0.023,0-0.036-0.012-0.036-0.037
				c-0.023-0.025-0.048-0.036-0.07-0.036c-0.025-0.024-0.036-0.048-0.036-0.072c0-0.023-0.013-0.048-0.036-0.072
				c-0.908,0-1.827,0.013-2.758,0.036c0,0.024-0.012,0.036-0.036,0.036c0,0.023-0.011,0.047-0.035,0.072v0.036
				c0,0.024,0,0.049,0,0.072s0,0.047,0,0.072v0.035c0,0.024,0,0.048,0,0.073c0,0.023,0,0.048,0,0.071v0.071c0,0.024,0,0.047,0,0.07
				c0,0.026,0,0.049,0,0.073c0,0.023,0,0.048,0,0.071v0.037c0,0.023,0,0.047,0,0.072c0,0.023,0,0.048,0,0.071v0.072
				c0,0.024,0,0.047,0,0.072c0,0.025,0,0.048,0,0.071c0,0.024,0,0.049,0,0.072v0.036c0,0.023,0,0.047,0,0.072
				c0,0.023,0,0.048,0,0.073v0.07c0,0.024,0,0.049,0,0.072c0,0.023,0,0.048,0,0.072c0,0.023,0,0.046,0,0.071v0.036
				c0,0.024,0,0.049,0,0.072c0,0.025,0,0.048,0,0.072v0.07c0,0.023,0,0.048,0,0.073c0,0.023,0,0.046,0,0.071v0.036
				c0,0.023,0,0.047,0,0.072c0.024,0,0.047,0,0.071,0c0.024,0,0.047,0,0.072,0c0.071,0,0.144,0.011,0.214,0.035
				c0,0.024,0.012,0.037,0.037,0.037c0.094,0.022,0.166,0.034,0.215,0.034c0.047,0,0.095,0.013,0.143,0.037c0.025,0,0.048,0,0.072,0
				c0.143,0.023,0.299,0.035,0.465,0.035c0.072,0,0.131,0,0.18,0c0.022,0.024,0.047,0.035,0.071,0.035
				c0.024,0.025,0.047,0.038,0.071,0.038c0.048,0,0.085,0.012,0.108,0.035h0.037c0.095,0.024,0.178,0.037,0.25,0.037
				c0.07,0,0.131,0.011,0.179,0.036c0.023,0.023,0.048,0.034,0.071,0.034c0.024,0,0.048,0,0.072,0c0.048,0,0.083,0.012,0.107,0.039
				c0.025,0,0.049,0,0.072,0c0.047,0.022,0.097,0.032,0.143,0.032c0.048,0,0.109,0.013,0.18,0.037
				c0.023,0.023,0.047,0.047,0.072,0.071c0.047,0.024,0.083,0.037,0.106,0.037h0.073c0.071,0,0.141,0.012,0.213,0.037
				c0.025,0.022,0.049,0.047,0.073,0.071c0.022,0.024,0.058,0.048,0.107,0.072c0.047,0.022,0.095,0.047,0.143,0.07
				c0.024,0,0.061,0.012,0.108,0.037c0.023,0.024,0.06,0.036,0.108,0.036c0.046,0.024,0.094,0.048,0.142,0.07
				c0,0.025,0.025,0.049,0.072,0.072l0.036,0.037c0.023,0.023,0.048,0.047,0.071,0.071c0.025,0.023,0.048,0.047,0.071,0.072v0.035
				c0.049,0.024,0.084,0.048,0.109,0.073c0.024,0.023,0.058,0.035,0.107,0.035c0,0.024,0.023,0.047,0.071,0.071
				c0,0.024,0.011,0.048,0.036,0.073c0.024,0,0.048,0.013,0.072,0.036s0.036,0.045,0.036,0.07c0.023,0.026,0.046,0.049,0.071,0.073
				c0.024,0.023,0.048,0.036,0.072,0.036c0.023,0.023,0.047,0.047,0.071,0.07l0.036,0.037c0.023,0.024,0.047,0.047,0.073,0.071
				c0,0.023,0.01,0.038,0.034,0.038c0,0.023,0.013,0.047,0.036,0.07c0.024,0.024,0.037,0.047,0.037,0.072
				c0.023,0.023,0.034,0.048,0.034,0.071l0.037,0.037c0.024,0.024,0.036,0.048,0.036,0.072l0.034,0.036c0,0.024,0,0.047,0,0.071
				l0.038,0.035c0,0.024,0,0.047,0,0.071c0.022,0.023,0.034,0.048,0.034,0.071c0.025,0.024,0.037,0.049,0.037,0.073v0.036
				c0.023,0.024,0.035,0.049,0.035,0.071v0.037c0.024,0.023,0.049,0.047,0.072,0.07v0.037c0,0.024,0.012,0.047,0.037,0.071
				c0,0.023,0,0.048,0,0.071c0,0.025,0,0.05,0,0.072c0.023,0,0.036,0.011,0.036,0.035c0.024,0.023,0.035,0.048,0.035,0.071v0.037
				c0.024,0.024,0.035,0.047,0.035,0.071v0.037c0,0.023,0,0.047,0,0.07s0.013,0.049,0.037,0.072c0,0.025,0,0.049,0,0.073v0.034
				c0.023,0.025,0.036,0.048,0.036,0.072l0.035,0.036c0,0.022,0,0.048,0,0.071c0.025,0,0.036,0.012,0.036,0.036s0,0.047,0,0.07
				c0,0.025,0.013,0.049,0.036,0.073v0.036c0,0.023,0.012,0.048,0.037,0.072c0,0.023,0,0.047,0,0.072v0.034
				c0,0.025,0.012,0.048,0.035,0.073v0.036c0.024,0.023,0.037,0.048,0.037,0.071c0.024,0.024,0.035,0.048,0.035,0.072l0.036,0.035
				c0.024,0.024,0.035,0.048,0.035,0.072c0.025,0.024,0.037,0.049,0.037,0.072v0.072c0,0.024,0.012,0.048,0.036,0.071
				c0,0.025,0,0.049,0,0.072s0.011,0.049,0.037,0.073v0.035c0.023,0.024,0.035,0.048,0.035,0.072
				c0.024,0.024,0.037,0.049,0.037,0.073v0.034l0.035,0.036c0,0.024,0,0.048,0,0.072s0,0.047,0,0.071c0,0.023,0,0.049,0,0.072v0.035
				c0,0.025,0,0.049,0,0.072c0.023,0.025,0.036,0.048,0.036,0.072v0.035l0.036,0.037c0,0.023,0,0.046,0,0.071
				c0,0.023,0,0.049,0,0.072c0,0.022,0,0.049,0,0.071v0.036c0,0.024,0,0.047,0,0.071c0,0.024,0,0.048,0,0.071v0.072
				c0,0.025,0,0.049,0,0.072c0,0.025,0,0.047,0,0.072v0.036c0,0.024,0,0.049,0,0.072c0,0.024,0,0.047,0,0.072
				c0,0.023,0,0.045,0,0.07v0.072c0,0.024,0,0.049,0,0.072c0,0.024,0,0.048,0,0.072v0.036c0,0.024,0,0.047,0,0.072
				c0,0.023,0,0.048,0,0.072c0,0.024,0,0.047,0,0.071s0,0.047,0,0.071c0,0.025,0,0.049,0,0.073s0,0.047,0,0.07v0.036
				c0,0.024,0,0.048,0,0.073c0,0.022,0,0.047,0,0.071c-0.024,0.025-0.036,0.047-0.036,0.072c-0.024,0.023-0.036,0.046-0.036,0.07
				c0,0.025,0,0.048,0,0.073c0,0.023,0,0.047,0,0.072v0.035c0,0.023,0,0.048,0,0.072s0,0.048,0,0.071c0,0.024,0,0.048,0,0.071
				c0,0.024-0.011,0.049-0.035,0.072c0,0.023,0,0.047,0,0.071c0,0.024-0.013,0.046-0.037,0.072l-0.035,0.035
				c0,0.023,0,0.049,0,0.072s0,0.047,0,0.071l-0.037,0.037v0.035c-0.024,0.023-0.036,0.048-0.036,0.072c0,0.022,0,0.047,0,0.072
				c0,0.023,0,0.046,0,0.07v0.036c-0.024,0.023-0.037,0.049-0.037,0.072c-0.023,0.024-0.035,0.048-0.035,0.072l-0.036,0.037v0.034
				c-0.023,0.024-0.035,0.048-0.035,0.072s0,0.048,0,0.072c0,0.023-0.012,0.035-0.037,0.035c0,0.023,0,0.049,0,0.073
				c-0.023,0.023-0.035,0.047-0.035,0.071c0,0.024,0,0.046,0,0.07l-0.072,0.073c0,0.023-0.011,0.048-0.036,0.072
				c0,0.023,0,0.048,0,0.071c0,0.024-0.011,0.035-0.035,0.035c0,0.025-0.013,0.049-0.036,0.074c0,0.023-0.012,0.048-0.037,0.072
				c0,0.023,0,0.047,0,0.071L17.1,26.267v0.035c-0.022,0.024-0.048,0.048-0.071,0.073c0,0.023,0,0.046,0,0.07
				c-0.024,0-0.037,0.013-0.037,0.036c0,0.025,0,0.047,0,0.072c-0.023,0.023-0.036,0.046-0.036,0.07
				c0,0.024-0.012,0.048-0.036,0.073v0.037l-0.035,0.035c0,0.023-0.011,0.049-0.037,0.072c0,0.023,0,0.046,0,0.071l-0.034,0.036
				c0,0.022-0.011,0.048-0.038,0.072c0,0.023,0,0.046,0,0.07l-0.034,0.036c-0.024,0.023-0.036,0.048-0.036,0.071l-0.037,0.037
				c0,0.023-0.011,0.047-0.034,0.072c0,0.023,0,0.047,0,0.072l-0.037,0.036c0,0.022-0.011,0.048-0.036,0.072
				c0,0.023-0.012,0.046-0.034,0.07c0,0.023-0.014,0.036-0.037,0.036c-0.024,0.024-0.036,0.049-0.036,0.072
				c0,0.024-0.012,0.037-0.036,0.037c0,0.022-0.011,0.046-0.036,0.07c0,0.024-0.011,0.037-0.035,0.037
				c0,0.023-0.011,0.047-0.036,0.07c0,0.024-0.012,0.049-0.036,0.072c-0.025,0.024-0.048,0.048-0.071,0.072v0.036
				c-0.024,0.024-0.036,0.047-0.036,0.072c-0.024,0.024-0.048,0.036-0.072,0.036c0,0.023-0.012,0.048-0.036,0.071
				c0,0.025-0.012,0.038-0.036,0.038c0,0.022-0.012,0.046-0.036,0.07c0,0.024,0,0.048,0,0.071c-0.024,0.025-0.049,0.049-0.072,0.073
				c-0.023,0-0.047,0.011-0.071,0.036c-0.024,0.024-0.049,0.047-0.073,0.07v0.035c-0.023,0.024-0.046,0.048-0.071,0.073
				c0,0.025-0.011,0.037-0.034,0.037c0,0.023-0.014,0.047-0.037,0.07c0,0.024-0.013,0.047-0.036,0.072
				c-0.023,0.024-0.047,0.048-0.072,0.071l-0.035,0.037c-0.024,0.024-0.037,0.048-0.037,0.072c-0.047,0.024-0.083,0.035-0.106,0.035
				c-0.025,0.025-0.036,0.048-0.036,0.073l-0.036,0.034c-0.048,0.024-0.084,0.047-0.108,0.071c-0.048,0.025-0.083,0.048-0.107,0.073
				c-0.024,0.024-0.047,0.048-0.072,0.071c-0.024,0-0.048,0.011-0.07,0.037c-0.024,0.022-0.037,0.046-0.037,0.071
				c-0.024,0.023-0.047,0.035-0.071,0.035c-0.047,0.024-0.096,0.048-0.144,0.071c-0.024,0-0.059,0.013-0.108,0.037
				c-0.048,0.024-0.084,0.047-0.106,0.072c-0.025,0.024-0.049,0.047-0.072,0.072s-0.047,0.035-0.071,0.035
				c-0.049,0.024-0.085,0.049-0.109,0.072c-0.046,0.024-0.096,0.049-0.143,0.073c-0.047,0.022-0.083,0.035-0.107,0.035
				c0,0.024-0.012,0.047-0.035,0.071l-0.037,0.036c-0.047,0.024-0.083,0.048-0.106,0.072c-0.024,0.025-0.049,0.036-0.073,0.036
				c-0.048,0.024-0.095,0.037-0.143,0.037c-0.024,0.023-0.048,0.035-0.072,0.035c-0.05,0-0.083,0.012-0.107,0.036
				c-0.071,0.024-0.119,0.049-0.144,0.072c-0.048,0.024-0.084,0.036-0.108,0.036c-0.047,0.023-0.084,0.035-0.106,0.035
				c-0.073,0-0.132,0.012-0.18,0.037c-0.024,0-0.047,0-0.072,0c-0.046,0.023-0.094,0.036-0.141,0.036
				c-0.051,0.024-0.098,0.036-0.146,0.036c-0.046,0.023-0.083,0.046-0.106,0.071c-0.047,0.024-0.095,0.047-0.144,0.072l-0.071,0.035
				c-0.073,0-0.143,0-0.215,0c-0.025,0.024-0.037,0.048-0.037,0.072c-0.024,0-0.046,0-0.07,0c-0.047,0.025-0.096,0.037-0.144,0.037
				c-0.025,0-0.06,0.011-0.108,0.034c-0.024,0-0.047,0-0.071,0c-0.024,0.024-0.06,0.035-0.107,0.035
				c-0.095,0-0.179,0.013-0.25,0.037c-0.048,0-0.084,0-0.107,0c-0.024,0.025-0.061,0.036-0.107,0.036
				c-0.048,0-0.096,0.012-0.144,0.037h-0.037c-0.046,0.023-0.093,0.035-0.141,0.035c-0.048,0-0.109,0.012-0.18,0.035
				c-0.048,0.023-0.083,0.037-0.107,0.037c-0.024,0.023-0.06,0.034-0.108,0.034c-0.119,0-0.225,0-0.322,0
				c-0.048,0.024-0.095,0.047-0.143,0.072c-0.048,0.024-0.084,0.037-0.108,0.037c-0.023,0.024-0.06,0.037-0.107,0.037
				c-0.072,0-0.155,0.012-0.25,0.036H9.258c-0.023,0.023-0.06,0.036-0.108,0.036c-0.548,0-1.087,0-1.611,0
				c-0.049,0-0.096-0.013-0.144-0.036H7.361c-0.024-0.024-0.049-0.036-0.073-0.036c-0.072-0.024-0.131-0.037-0.18-0.037
				c-0.046-0.024-0.095-0.047-0.143-0.072c0-0.024-0.012-0.037-0.036-0.037H6.895c-0.049-0.022-0.107-0.034-0.18-0.034
				c-0.024-0.024-0.06-0.048-0.106-0.072l-0.037-0.035c-0.047-0.024-0.084-0.037-0.107-0.037c-0.072-0.023-0.144-0.036-0.216-0.036
				l-0.071-0.037H6.142c-0.073-0.023-0.13-0.035-0.178-0.035c-0.049-0.023-0.097-0.046-0.144-0.071
				c-0.048-0.024-0.095-0.048-0.143-0.072H5.569c-0.072-0.024-0.143-0.047-0.214-0.072c-0.023-0.024-0.049-0.048-0.071-0.072H5.248
				C5.176,30.611,5.127,30.6,5.104,30.6c-0.072-0.023-0.144-0.048-0.214-0.072c-0.025,0-0.051-0.012-0.073-0.037H4.781
				c-0.072-0.023-0.119-0.035-0.143-0.035c-0.048-0.023-0.107-0.048-0.179-0.072c-0.023-0.023-0.06-0.046-0.108-0.071
				c-0.047,0-0.094-0.012-0.142-0.035c-0.048-0.024-0.108-0.048-0.181-0.073c-0.023-0.024-0.033-0.048-0.033-0.072
				c-0.049-0.023-0.097-0.036-0.145-0.036c-0.024-0.023-0.048-0.046-0.072-0.071c-0.024,0-0.048-0.013-0.072-0.035
				c-0.022-0.024-0.046-0.048-0.07-0.073c-0.048-0.023-0.072-0.047-0.072-0.072c-0.024,0-0.048-0.011-0.072-0.035
				c-0.023-0.024-0.048-0.047-0.072-0.072c-0.022-0.025-0.045-0.048-0.071-0.072c-0.025-0.023-0.059-0.037-0.107-0.037
				c-0.024-0.023-0.06-0.046-0.106-0.071c-0.024,0-0.037-0.012-0.037-0.035c-0.024-0.024-0.048-0.049-0.071-0.071
				c-0.024-0.026-0.049-0.037-0.073-0.037c0-0.023-0.012-0.047-0.035-0.071c-0.024-0.025-0.037-0.048-0.037-0.073
				c-0.024-0.024-0.047-0.047-0.071-0.071c-0.023-0.023-0.047-0.034-0.071-0.034c-0.024-0.025-0.048-0.048-0.071-0.073
				c-0.023,0-0.037-0.011-0.037-0.035c-0.047-0.023-0.095-0.048-0.143-0.072c0-0.024-0.012-0.037-0.034-0.037
				c-0.024-0.023-0.038-0.047-0.038-0.071c-0.024-0.025-0.047-0.048-0.072-0.072c-0.023-0.023-0.047-0.047-0.072-0.07
				c-0.022,0-0.046-0.012-0.07-0.037c0-0.025-0.013-0.048-0.036-0.073c-0.023,0-0.048-0.011-0.072-0.035
				c0-0.023-0.012-0.046-0.036-0.07c0-0.025-0.012-0.036-0.036-0.036c0-0.023-0.012-0.048-0.036-0.073
				c-0.023-0.023-0.035-0.046-0.035-0.071c-0.024-0.024-0.048-0.048-0.073-0.07c-0.023,0-0.047-0.012-0.071-0.038
				c-0.024-0.023-0.037-0.047-0.037-0.071c-0.024,0-0.036-0.012-0.036-0.036s0-0.048,0-0.072l-0.035-0.036c0-0.023,0-0.047,0-0.072
				c-0.023-0.023-0.049-0.048-0.072-0.072c0-0.023-0.012-0.047-0.036-0.07c-0.023,0-0.036-0.013-0.036-0.037
				c-0.024-0.023-0.035-0.048-0.035-0.07l-0.036-0.037c0-0.023-0.013-0.047-0.037-0.072l-0.071-0.07
				c-0.024-0.024-0.047-0.049-0.071-0.072c0-0.024-0.013-0.048-0.036-0.072V27.34c0-0.023,0-0.047,0-0.072
				c0-0.024-0.013-0.047-0.036-0.072c0-0.023-0.012-0.048-0.036-0.071c-0.024,0-0.036-0.011-0.036-0.036
				c-0.024,0-0.049-0.012-0.071-0.035c0-0.023,0-0.048,0-0.072c0-0.024-0.012-0.047-0.037-0.071v-0.036
				c0-0.024-0.011-0.048-0.035-0.073c0-0.023-0.012-0.047-0.037-0.07c0-0.024-0.012-0.037-0.035-0.037c0-0.025,0-0.048,0-0.073
				v-0.036c0-0.023-0.012-0.048-0.036-0.071c0-0.023,0-0.048,0-0.072c-0.025,0-0.037-0.011-0.037-0.036
				c0-0.022-0.011-0.046-0.035-0.071c0-0.024,0-0.047,0-0.071c0-0.025-0.013-0.037-0.037-0.037c0-0.023,0-0.048,0-0.071
				c-0.023,0-0.035-0.013-0.035-0.037c0-0.024,0-0.047,0-0.071l-0.036-0.038c0-0.022,0-0.046,0-0.07s-0.012-0.047-0.036-0.071
				c0-0.024-0.012-0.048-0.035-0.071l-0.036-0.038c0-0.023,0-0.045,0-0.07v-0.036c0-0.023-0.013-0.048-0.037-0.071v-0.037
				c0-0.023,0-0.046,0-0.071s0-0.048,0-0.072s0-0.047,0-0.07c-0.022,0-0.034-0.014-0.034-0.037
				c-0.024-0.024-0.048-0.048-0.072-0.072v-0.036c0-0.025,0-0.048,0-0.072v-0.037c0-0.023,0-0.046,0-0.07c0-0.024,0-0.048,0-0.073
				c0-0.023,0-0.047,0-0.07v-0.037c-0.023-0.024-0.036-0.048-0.036-0.071v-0.035c-0.024-0.024-0.036-0.048-0.036-0.072v-0.037
				c0-0.022,0-0.046,0-0.071c0-0.023-0.013-0.046-0.037-0.071v-0.037c0-0.023-0.012-0.046-0.036-0.071c0-0.023,0-0.047,0-0.071
				v-0.036c0-0.025,0-0.048,0-0.071v-0.036c0-0.024,0-0.048,0-0.071c0-0.024,0-0.049,0-0.074v-0.034c0-0.025,0-0.047,0-0.072
				c0-0.024,0-0.049,0-0.071v-0.073c0-0.023,0-0.047,0-0.071c0-0.024,0-0.047,0-0.07c0-0.025,0-0.05,0-0.073v-0.035
				c0-0.024,0-0.047,0-0.071c0-0.024,0-0.049,0-0.072v-0.072c0-0.023,0-0.047,0-0.071s0-0.047,0-0.073c0-0.024,0-0.049,0-0.072
				v-0.036c0-0.024,0-0.046,0-0.07c0-0.024,0-0.048,0-0.072v-0.072c0-0.024,0-0.046,0-0.071s0-0.049,0-0.073
				c0-0.024,0-0.047,0-0.072v-0.037c0-0.023,0-0.047,0-0.071c0-0.024,0-0.047,0-0.071v-0.071c0-0.024,0-0.048,0-0.072
				c0-0.024,0-0.048,0-0.072s0-0.048,0-0.072v-0.035c0.024-0.024,0.036-0.047,0.036-0.072c0-0.023,0.012-0.047,0.037-0.072v-0.071
				c0-0.023,0-0.047,0-0.071c0-0.024,0-0.047,0-0.072v-0.036c0-0.024,0-0.047,0-0.07c0-0.023,0-0.048,0-0.073
				c0-0.023,0.012-0.048,0.036-0.072v-0.035c0.024,0,0.036-0.013,0.036-0.037c0-0.023,0-0.047,0-0.071c0-0.024,0-0.048,0-0.071
				v-0.037c0-0.024,0-0.047,0-0.072c0-0.023,0-0.048,0-0.072c0.024-0.023,0.048-0.047,0.072-0.072H0.59c0-0.022,0-0.047,0-0.07
				c0-0.024,0-0.049,0-0.072s0-0.049,0-0.072v-0.036c0-0.024,0-0.048,0-0.071c0-0.024,0.013-0.049,0.037-0.072
				c0-0.024,0-0.049,0-0.072c0-0.024,0-0.049,0-0.072c0-0.023,0-0.048,0-0.071c0.023-0.023,0.036-0.047,0.036-0.072
				c0.023,0,0.035-0.013,0.035-0.035c0.024-0.025,0.047-0.049,0.072-0.072c0-0.024,0-0.047,0-0.072c0-0.023,0.012-0.034,0.035-0.034
				v-0.036c0-0.025,0-0.048,0-0.073c0-0.023,0-0.048,0-0.071c0.023-0.023,0.037-0.049,0.037-0.073v-0.036
				c0.023-0.023,0.046-0.047,0.071-0.072c0-0.023,0.013-0.048,0.036-0.071v-0.035c0.023,0,0.035-0.011,0.035-0.035
				c0.024-0.026,0.037-0.049,0.037-0.071c0.024-0.026,0.035-0.049,0.035-0.073v-0.036c0-0.024,0-0.048,0-0.072
				c0.025-0.024,0.037-0.047,0.037-0.072c0-0.022,0-0.046,0-0.071v-0.036c0.022,0,0.036-0.012,0.036-0.037
				c0.023-0.023,0.035-0.048,0.035-0.071c0.024-0.024,0.049-0.048,0.072-0.073l0.036-0.035c0-0.023,0-0.047,0-0.071
				c0.023-0.024,0.036-0.048,0.036-0.071c0.024-0.024,0.047-0.048,0.071-0.072L1.45,18.71c0.024-0.023,0.037-0.047,0.037-0.071
				c0.023-0.025,0.036-0.049,0.036-0.073l0.035-0.034c0.024-0.025,0.036-0.051,0.036-0.074c0.024-0.023,0.036-0.047,0.036-0.072
				c0.023-0.023,0.049-0.046,0.072-0.07c0.023,0,0.035-0.013,0.035-0.036c0.024,0,0.049-0.013,0.073-0.036
				c0.023-0.024,0.047-0.048,0.071-0.073c0.024-0.023,0.049-0.047,0.073-0.07l0.035-0.036c0.024-0.025,0.036-0.049,0.036-0.074
				c0.024-0.022,0.049-0.046,0.072-0.07c0.024-0.024,0.049-0.048,0.072-0.073c0.023,0,0.036-0.012,0.036-0.035
				c0.024,0,0.048-0.013,0.07-0.035c0.024-0.025,0.048-0.049,0.072-0.074c0.024-0.022,0.048-0.047,0.072-0.071L2.455,17.6
				c0.022-0.023,0.034-0.048,0.034-0.071c0.025-0.024,0.048-0.047,0.071-0.072c0.024-0.024,0.049-0.037,0.072-0.037
				c0-0.023,0.014-0.048,0.037-0.07c0.047,0,0.095-0.014,0.142-0.037c0.024-0.023,0.047-0.047,0.071-0.071
				c0.025-0.025,0.061-0.047,0.109-0.072c0.046,0,0.083,0,0.107,0c0.024,0,0.059,0,0.108,0c0.023-0.023,0.046-0.047,0.07-0.072
				c0.047-0.023,0.098-0.048,0.143-0.073c0.072-0.023,0.121-0.046,0.145-0.071c0.047,0,0.096-0.01,0.142-0.034
				c0.048-0.025,0.108-0.036,0.18-0.036c0.024,0,0.048-0.012,0.072-0.037h0.037c0.047-0.023,0.093-0.035,0.141-0.035
				c0.047-0.025,0.084-0.038,0.108-0.038c0.047-0.023,0.094-0.035,0.142-0.035c0.049,0,0.084,0,0.108,0
				c0.048,0,0.095-0.012,0.143-0.035h0.036c0.048-0.024,0.095-0.037,0.143-0.037c0.096-0.023,0.203-0.034,0.322-0.034
				c0.025-0.025,0.061-0.049,0.109-0.072c0.046,0,0.095-0.012,0.143-0.036c0.023-0.025,0.047-0.037,0.071-0.037
				c0.048,0,0.084-0.013,0.108-0.036l0.036-0.036c0.049,0,0.095,0,0.143,0c0.216,0,0.442-0.011,0.68-0.035c0.024,0,0.049,0,0.072,0
				c0.024,0,0.059,0,0.108,0v-0.035c0.118,0,0.236,0,0.356,0V16.24c0-0.024,0-0.047,0-0.072c0-0.023,0-0.048,0-0.072V16.06
				c0-0.024,0-0.048,0-0.071c0-0.024,0-0.048,0-0.072c0-0.023,0-0.047,0-0.072v-0.07c0-0.025,0-0.049,0-0.073
				c0-0.025,0-0.049,0-0.072v-0.036c0-0.023,0-0.047,0-0.072c0-0.023,0-0.046,0-0.071c0-0.024,0-0.048,0-0.072v-0.072
				c0-0.023,0-0.048,0-0.071c0-0.025,0-0.048,0-0.072v-0.037c0-0.023,0-0.047,0-0.071c0-0.024,0-0.047,0-0.073
				c-0.023-0.023-0.036-0.046-0.036-0.07v-0.071c0-0.023,0-0.048,0-0.071c0-0.024,0-0.048,0-0.073v-0.035c0-0.024,0-0.049,0-0.072
				s0-0.048,0-0.072v-0.036c0-0.024,0-0.048,0-0.072v-0.036c-0.096,0-0.191,0-0.286,0c0-0.023-0.013-0.047-0.035-0.071
				c0-0.022,0-0.047,0-0.07c0-0.025,0-0.048,0-0.073c-0.024,0-0.061,0-0.108,0c0-0.025,0-0.047,0-0.071v-0.072
				c0-0.024,0-0.047,0-0.071c0-0.025,0-0.049,0-0.073v-0.108c0-0.023,0-0.045,0-0.071c0-0.023,0-0.047,0-0.069v-0.323
				c0-0.024,0-0.047,0-0.071c0-0.024,0-0.048,0-0.072v-0.036c0-0.024,0-0.049,0-0.072c0-0.024,0-0.049,0-0.072s0-0.049,0-0.071
				v-0.071c0-0.023,0-0.048,0-0.072c0-0.024,0-0.048,0-0.071v-0.036c0-0.026,0-0.049,0-0.073c0-0.025,0-0.047,0-0.071
				c0-0.024,0-0.049,0-0.073v-0.071c0-0.023,0-0.048,0-0.071c0-0.024,0-0.047,0-0.071v-0.035c0-0.024,0-0.049,0-0.073
				s0-0.048,0-0.072c0-0.024,0-0.048,0-0.072v-0.071c0-0.024,0-0.048,0-0.071c0-0.024,0-0.049,0-0.072v-0.035
				c0-0.025,0-0.048,0-0.072c0-0.024,0-0.048,0-0.072c0-0.023,0-0.047,0-0.072v-0.071c0-0.026,0-0.049,0-0.072
				c0-0.024,0-0.048,0-0.071v-0.036c0-0.024,0-0.049,0-0.072c0-0.024,0-0.048,0-0.072v-0.034c0-0.025,0-0.051,0-0.074v-0.035
				c0-0.025,0-0.049,0-0.072v-0.036c0-0.024,0-0.048,0-0.071c0-0.025,0-0.049,0-0.072s0-0.047,0-0.072v-0.036
				c0-0.025,0-0.048,0-0.072v-0.036c0-0.024,0-0.048,0-0.072v-0.035c0-0.025,0-0.049,0-0.072c0-0.024,0-0.048,0-0.072
				c0-0.022,0-0.046,0-0.071v-0.036c0-0.023,0-0.047,0-0.071v-0.036c0-0.024,0-0.047,0-0.072V9.937c0-0.024,0-0.049,0-0.072
				c0-0.024,0-0.047,0-0.071c0-0.023,0-0.048,0-0.072V9.685c0-0.023,0-0.047,0-0.071V9.578c0-0.022,0-0.046,0-0.072V9.471
				c-0.239,0-0.466,0.013-0.681,0.035c-0.048,0-0.083,0-0.107,0C5.666,9.531,5.617,9.542,5.569,9.542H5.534
				c-0.049,0-0.085,0-0.107,0C5.378,9.52,5.318,9.506,5.248,9.506c-0.048,0-0.083-0.011-0.109-0.035
				C5.093,9.447,5.032,9.422,4.96,9.399c-0.024-0.023-0.036-0.047-0.036-0.07C4.901,9.305,4.876,9.282,4.853,9.256
				c-0.025,0-0.036-0.012-0.036-0.036C4.792,9.197,4.781,9.173,4.781,9.148V9.113C4.757,9.089,4.746,9.064,4.746,9.042V9.006
				c0-0.026,0-0.049,0-0.073c0-0.022,0-0.047,0-0.071c0-0.023,0.011-0.036,0.036-0.036c0-0.023,0-0.047,0-0.071
				c0-0.023,0.011-0.046,0.036-0.072l0.036-0.036C4.876,8.625,4.901,8.6,4.924,8.576L4.96,8.54c0.048-0.024,0.096-0.037,0.144-0.037
				h0.035V8.469c0-0.024,0-0.047,0-0.072V8.36c0-0.023,0-0.047,0-0.07c0-0.025,0-0.046,0-0.074V8.182l0.037-0.036
				C5.2,8.123,5.223,8.099,5.248,8.075c0.023-0.023,0.036-0.048,0.036-0.072C5.305,7.978,5.331,7.955,5.354,7.93
				c0-0.023,0.012-0.037,0.036-0.037c0.023-0.022,0.047-0.046,0.071-0.07c0.048,0,0.084-0.011,0.108-0.035l0.036-0.036
				c0.049,0,0.095,0,0.143,0c0.167,0,0.334,0,0.501,0V7.716C6.273,7.692,6.297,7.68,6.322,7.68c0.022-0.023,0.046-0.047,0.071-0.071
				c0.047,0,0.084-0.011,0.107-0.035V7.538c0-0.024,0-0.048,0-0.071c1.766,0,3.522,0,5.264,0V7.43c0-0.024,0-0.048,0-0.073
				c0-0.022,0-0.047,0-0.07c0-0.025,0-0.048,0-0.071V7.18c0-0.024,0-0.048,0-0.072c0-0.025,0-0.048,0-0.072V6.964
				c0-0.024,0-0.047,0-0.071c0-0.025,0-0.049,0-0.072V6.785c0-0.023,0-0.046,0-0.07c0-0.023,0-0.047,0-0.071V6.606
				c0.025-0.024,0.061-0.036,0.108-0.036V6.535c0.31,0,0.621,0,0.931,0V6.57c0,0.024,0,0.048,0,0.073c0,0.023,0,0.048,0,0.071
				c0,0.024,0,0.047,0,0.07l0.036,0.037c0,0.023,0,0.046,0,0.072c0.024,0.023,0.036,0.046,0.036,0.071L12.911,7v0.036
				c0.024,0.024,0.035,0.047,0.035,0.072c0,0.024,0,0.048,0,0.072c0,0.022-0.011,0.036-0.035,0.036c0,0.023,0,0.046,0,0.071
				c-0.024,0.023-0.036,0.047-0.036,0.07c-0.024,0.024-0.036,0.048-0.036,0.073v0.072c0,0.023,0,0.046,0,0.072
				c0.048,0,0.096,0,0.143,0c0.025,0.023,0.049,0.047,0.071,0.07c0.025,0.025,0.048,0.036,0.073,0.036
				c0.023,0.024,0.036,0.048,0.036,0.073c0.024,0,0.048,0.013,0.072,0.036c0.024,0.024,0.036,0.047,0.036,0.071l0.037,0.034
				c0.023,0.024,0.035,0.05,0.035,0.073c0.024,0.024,0.037,0.048,0.037,0.073v0.036c0.024,0.024,0.035,0.048,0.035,0.071v0.036
				c0,0.025,0,0.049,0,0.071c0,0.023-0.011,0.047-0.035,0.071V8.36h0.035c0,0.024,0.012,0.049,0.035,0.072c0,0.023,0,0.049,0,0.071
				c0.024,0.024,0.037,0.048,0.037,0.073l0.035,0.036c0,0.024,0,0.049,0,0.072c0,0.026,0,0.048,0,0.072
				c0.024,0.024,0.037,0.048,0.037,0.071h0.036c0.023,0.023,0.035,0.048,0.035,0.071c0.024,0,0.049,0.014,0.072,0.036
				c0.024,0.024,0.036,0.047,0.036,0.073l0.037,0.035c0.023,0.023,0.035,0.048,0.035,0.071l0.037,0.036c0,0.024,0,0.048,0,0.071
				l0.035,0.036c0,0.026,0,0.049,0,0.073c0,0.023,0.012,0.047,0.037,0.07c0,0.023,0,0.048,0,0.072l0.035,0.035
				c0,0.025,0,0.05,0,0.072l0.035,0.036c0,0.024,0,0.048,0,0.071l0.037,0.037c0,0.024,0.012,0.048,0.035,0.072
				c0,0.024,0,0.047,0,0.071c0.024,0.023,0.047,0.048,0.072,0.072c0.024,0,0.037,0.013,0.037,0.035
				c0.022,0.025,0.034,0.048,0.034,0.072v0.036c0,0.024,0,0.048,0,0.071l0.037,0.036c0.023,0.024,0.047,0.049,0.072,0.071
				c0,0.023,0.011,0.047,0.036,0.072c0,0.023,0.012,0.047,0.035,0.072v0.035c0.023,0.024,0.036,0.048,0.036,0.072v0.036
				c0.024,0.024,0.036,0.047,0.036,0.072c0.022,0,0.047,0.012,0.07,0.036c0,0.024,0,0.049,0,0.072
				c0.024,0.023,0.036,0.047,0.036,0.072c0,0.023,0,0.047,0,0.071c0.024,0,0.037,0.013,0.037,0.036
				c0.024,0.022,0.036,0.047,0.036,0.072v0.035c0,0.023,0.011,0.049,0.035,0.074l0.036,0.034c0,0.024,0.012,0.048,0.038,0.072
				c0,0.022,0.01,0.047,0.033,0.072v0.036c0.025,0.023,0.038,0.047,0.038,0.071c0.023,0.023,0.035,0.046,0.035,0.072l0.036,0.034
				C14.879,11.5,14.892,11.512,14.917,11.512z M1.415,21.896c0-0.023,0-0.047,0-0.071c0-0.024,0-0.047,0-0.072v-0.036l-0.036,0.036
				c0,0.024,0,0.048,0,0.072c-0.024,0.024-0.035,0.048-0.035,0.071v0.071c0,0.025,0,0.049,0,0.072c0,0.023,0,0.048,0,0.072
				c0-0.024,0.012-0.049,0.035-0.072c0-0.023,0-0.047,0-0.072c0.025,0,0.036-0.011,0.036-0.035V21.896z"/>
		</g>
	</g>
</g>
<g id="guides">
</g>
</svg>
