<svg width="44" height="32" viewBox="0 0 44 32" fill="none" xmlns="http://www.w3.org/2000/svg">
<path d="M1.60732 31.4503L0.823372 30.476L0.202745 29.3857L0 28.0938L4.80169 24.7496L7.6818 28.8743L2.61542 32L1.60732 31.4503ZM8.7158 28.1704L5.91566 23.9938L6.78634 23.4025L6.90236 22.489L16.8369 15.7364C17.1241 16.7074 17.551 17.6062 18.1187 18.4408C18.8463 19.512 19.7091 20.3692 20.7026 21.0168L10.6171 27.8708L9.65069 27.6151L8.7158 28.1704ZM22.9057 17.6513L20.8738 14.6619L23.6728 12.7583L21.6048 9.71376L24.5401 7.71785L26.6081 10.7635L29.5175 8.78677L31.5495 11.7773L28.6401 13.7529L30.4321 16.3908L27.4968 18.3879L25.7048 15.7499L22.9057 17.6513ZM35.4546 11.1499C35.2372 9.89398 34.7585 8.72144 34.0196 7.63337C33.3911 6.70975 32.695 5.97874 31.9302 5.43809L34.9747 3.36783L38.7075 8.97712L35.4546 11.1499ZM43.9935 4.70933L43.6117 4.96727L43.2051 4.37029L39.7821 6.69623L40.4838 7.73024L39.6131 8.32045L35.9175 2.76635L36.733 2.21105L37.2962 3.09975L40.6674 0.809856L40.3069 0.220767L40.6325 0L42.4988 0.758043L43.7919 2.65935L43.9935 4.70933Z" fill="white"/>
<path fill-rule="evenodd" clip-rule="evenodd" d="M26.125 21.9375C31.0956 21.9375 35.125 17.9081 35.125 12.9375C35.125 7.96694 31.0956 3.9375 26.125 3.9375C21.1544 3.9375 17.125 7.96694 17.125 12.9375C17.125 17.9081 21.1544 21.9375 26.125 21.9375ZM26.125 19.5625C29.7839 19.5625 32.75 16.5964 32.75 12.9375C32.75 9.27861 29.7839 6.3125 26.125 6.3125C22.4661 6.3125 19.5 9.27861 19.5 12.9375C19.5 16.5964 22.4661 19.5625 26.125 19.5625Z" fill="white"/>
</svg>
