<?xml version="1.0" encoding="utf-8"?>
<!-- Generator: Adobe Illustrator 16.0.3, SVG Export Plug-In . SVG Version: 6.00 Build 0)  -->
<!DOCTYPE svg PUBLIC "-//W3C//DTD SVG 1.1 Tiny//EN" "http://www.w3.org/Graphics/SVG/1.1/DTD/svg11-tiny.dtd">
<svg version="1.1" baseProfile="tiny" xmlns="http://www.w3.org/2000/svg" xmlns:xlink="http://www.w3.org/1999/xlink" x="0px"
	 y="0px" width="48.75px" height="32px" viewBox="0 0 48.75 32" xml:space="preserve">
<g id="Selected_Items">
	<path fill="#FFFFFF" d="M39.845,19.241c-0.206-0.051-0.824-1.133-0.618-1.442c0.206-0.309,0.309-0.154,0.566-0.669
		c0.257-0.515,1.597-8.959,0.979-10.556c-0.618-1.596-0.669-0.875-1.081-1.03c-0.413-0.154-0.67-0.669-0.67-0.669l-0.772-0.103
		c0,0,0.413-4.545-3.502-4.737c-1.571-0.078-2.575,0-2.575,0s-4.222,0.72-5.613,3.141c-0.405,0.705-0.622,1.098-0.725,1.303
		l-1.489,1.117l-0.979,1.287c0,0-1.236,7.313-1.339,8.445s0.051,2.421,0.051,2.575s-0.772,1.029-0.772,1.029l0.257,1.391
		l0.567,0.566l0.412,2.369l-0.361,0.206v1.854l0.566,0.772c0,0,1.957,4.48,2.317,4.583c0.361,0.103,2.112,1.545,4.377,1.596
		c2.266,0.052,5.716-0.154,7.055-1.699s1.545-3.708,1.648-4.12c0.103-0.412,1.184-1.39,1.287-1.956
		c0.103-0.567-0.464-0.722-0.412-1.133c0.052-0.412,1.236-2.472,1.236-2.833C40.257,20.168,40.051,19.293,39.845,19.241z
		 M35.751,4.257c-1.184,1.802-3.77,1.55-3.99,1.854c-0.206,0.283-0.361,0.592-0.747,0.747c-0.302,0.121-0.463-0.901-0.618-0.901
		c-0.154,0-0.927,0.103-1.957-0.979c-1.029-1.082-0.309-1.854,0.824-2.987c1.133-1.132,3.244-1.107,4.686-1.107
		c0,0,1.808,0.275,2.575,0.747C37.193,2.042,36.626,3.33,35.751,4.257z M38.609,17.181c-0.669,0.207-0.772-0.412-1.082-3.347
		s2.266-7.183,2.266-7.183s0.309,0.231,0.464,0.437c0.154,0.206-0.052,4.943-0.155,6.025C40,14.194,39.279,16.975,38.609,17.181z"/>
	<path fill="#FFFFFF" d="M45.767,5.75c0,0-4.84,0.67-6.127,3.656c-1.287,2.987-1.185,5.304-0.309,6.282
		c0.875,0.979,1.905,3.914,2.008,4.428c0.103,0.516,0.103,0.979,0.103,0.979l-1.39,1.442l0.052,0.566l0.515,0.31l-0.309,2.008
		l-0.978,0.567l0.103,1.184l0.515,0.669c0,0-0.721,1.957-0.618,2.214c0.103,0.257,3.45,0.412,4.171,1.082
		c0.721,0.669,0.566,0.103,0.566,0.103l1.596-2.987l0.309-0.103l1.647-5.355l0.052-1.236c0,0,0.206-0.927-0.052-1.493
		s-1.184-0.721-1.184-0.721l-0.103-0.927c0,0-0.154-3.759-0.36-4.274c-0.207-0.515,1.185-1.494,1.185-1.494s-0.104-4.376-0.31-4.531
		c-0.206-0.155-0.154-1.494-0.154-1.494h-0.515L45.767,5.75z"/>
	<path fill="#FFFFFF" d="M21.874,11.569l0.669-2.214c0,0-1.185-3.605-2.729-3.708s-1.442,0.876-1.442,0.876l-0.669,0.206
		c0,0-1.288,5.149-0.824,6.025c0.463,0.875,1.287,1.957,1.287,1.957s0.103,2.935,0.103,3.398c0,0.464-0.515,0.824-0.515,0.824
		l-0.309,3.089l1.163,4.999l2.417,0.375l0.917-1.042c0,0-1-1.208-0.5-3.167c0.15-0.588,0.304-1.5-0.392-2.311
		c-0.625-0.729-0.403-1.09-0.348-1.815c0.077-1.004,0.734-1.159,0.425-2.124C20.985,16.493,21.874,11.569,21.874,11.569z"/>
	<g>
		<path fill="#FFFFFF" d="M15.859,21.267c-0.029-0.116-0.057-0.244-0.077-0.389c-0.268-1.874-0.229-7.479-1.166-8.613
			c-0.853-1.032-1.975-1.928-5.563-3.14C8.958,9.092,8.874,8.586,8.874,8.586L8.605,7.958H6.991L6.542,9.214
			c0,0-5.203,3.14-5.203,4.845c0,1.705-0.072,7.323,0.269,8.612c0.808,3.051,2.243,3.902,2.243,3.902s4.037,2.289,6.011,2.109
			c1.302-0.118,3.925-2.082,5.196-3.091C16.011,23.82,15.927,21.932,15.859,21.267z M3.313,16.661
			c-0.36-1.167,2.871-2.602,4.037-1.255C7.349,15.406,6.9,17.379,3.313,16.661z M10.131,15.674
			c-0.898-1.974,2.959-1.346,3.408-0.089C10.849,17.199,10.131,15.674,10.131,15.674z"/>
	</g>
</g>
<g id="guides">
</g>
</svg>
