<?xml version="1.0" encoding="utf-8"?>
<!-- Generator: Adobe Illustrator 16.0.0, SVG Export Plug-In . SVG Version: 6.00 Build 0)  -->
<!DOCTYPE svg PUBLIC "-//W3C//DTD SVG 1.1//EN" "http://www.w3.org/Graphics/SVG/1.1/DTD/svg11.dtd">
<svg version="1.1" xmlns="http://www.w3.org/2000/svg" xmlns:xlink="http://www.w3.org/1999/xlink" x="0px" y="0px" width="19.75px"
	 height="32px" viewBox="0 0 19.75 32" enable-background="new 0 0 19.75 32" xml:space="preserve">
<g id="Selected_Items">
	<path fill="#FFFFFF" d="M19.558,16.983c0,0-0.133-1.724-0.265-2.52c-0.133-0.796-0.802-1.316-0.802-1.316s0.265-7.56-7.494-7.56
		c-2.973,0-5.503,1.159-6.838,2.588c-2.149,2.301-2.048,5.303-2.048,5.303s-0.929,0.117-1.658,0.357c-0.729,0.24,0,0.704,0,0.704
		S1.189,14.75,2.25,14.75c1.061,0,1.32,0.047,1.32,0.047s0,0,0,0.528c0,0.107-0.304,0.048-0.304,0.177
		c0,0.353,0.044,1.157,0.044,1.68c0,0.265,0.267,0.101,0.279,0.265c0.008,0.113-0.16,0.143-0.146,0.266
		c0.025,0.221,0.06,0.457,0.102,0.7c0.021,0.119,0.14,0.194,0.163,0.317c0.335,1.712,0.856,3.702,0.856,3.702
		s-0.295,0.033-0.312,0.454c-0.036,0.897,0.336,1.785,0.663,2.387c0.126,0.232,0.279,0.27,0.751,0.663
		c0.531,0.442,1.896,0.651,2.697,0.302c1.525-0.663,1.837-1.154,1.837-1.154s2.719-0.265,3.847-0.729
		c1.127-0.464,2.697-2.596,3.161-3.061c0.149-0.149,0.41,0.07,0.6-0.174c0.4-0.515,0.785-0.969,0.843-1.506
		c0.093-0.856,0.104-1.626,0.104-1.626s0,0,0.53-0.066C19.817,17.855,19.558,16.983,19.558,16.983z M5.227,25.161
		c0.666,0.012,1.811-0.021,1.811-0.021C6.065,25.67,4.868,25.154,5.227,25.161z M10.069,22.875
		c-0.022,0.499-0.243,0.718-0.243,0.718s-0.818,0.032-1.282,0.032c-0.464,0-0.928,0-0.928,0s1.24-1.27,1.589-1.601
		s1.152-0.22,1.152-0.22C10.042,22.386,10.092,22.345,10.069,22.875z M10.688,18.982c0.133,0.862,0.221,1.547,0.221,1.547
		s-1.834,0.443-2.431,0.907C7.88,21.9,7.682,22.498,6.952,22.927c-0.729,0.43-1.26-0.032-1.857-0.629
		c-0.378-0.378-0.277-2.251-0.151-3.57c0.012-0.125,0.124-0.15,0.135-0.264c0.03-0.288,0.074-0.47,0.044-0.664
		c-0.03-0.193-0.132-0.398-0.132-0.398s1.961-0.012,2.956-0.012s3.846-0.332,3.846-0.332l0.044,0.685l-1.282,0.376
		C10.555,18.12,10.555,18.12,10.688,18.982z M14.247,22.696c-1.629,0.618-2.346,0.852-2.346,0.852s-0.078-1.035,0.555-1.648
		c0.086-0.083,0.067-0.372,0.18-0.32c0.317,0.146,0.814-1.181,0.621-1.228c-0.183-0.043,0.127-0.275,0.127-0.275
		s0.83,0.009,1.559,0.057c0.862,0.057,1.954,0.452,1.954,0.452C16.896,20.984,15.72,22.137,14.247,22.696z M14.225,17.612
		l0.022-0.552h1.923l0.531,0.597L14.225,17.612z"/>
</g>
<g id="guides">
</g>
</svg>
