<?xml version="1.0" encoding="utf-8"?>
<!-- Generator: Adobe Illustrator 16.0.3, SVG Export Plug-In . SVG Version: 6.00 Build 0)  -->
<!DOCTYPE svg PUBLIC "-//W3C//DTD SVG 1.1//EN" "http://www.w3.org/Graphics/SVG/1.1/DTD/svg11.dtd">
<svg version="1.1" id="Selected_Items" xmlns="http://www.w3.org/2000/svg" xmlns:xlink="http://www.w3.org/1999/xlink" x="0px"
	 y="0px" width="32.167px" height="32px" viewBox="0 0 32.167 32" enable-background="new 0 0 32.167 32" xml:space="preserve">
<g>
	<g id="Selected_Items_13_">
		<path fill-rule="evenodd" clip-rule="evenodd" fill="#FFFFFF" d="M31.837,11.611c-0.104,0.206-0.271,0.321-0.501,0.347
			c-0.386,0.025-3.011,0.063-7.874,0.116c-0.153,0-0.32,0.039-0.501,0.116c-0.309,0.103-0.515,0.283-0.617,0.541
			c-0.078,0.205-0.09,0.617-0.039,1.234c0.025,0.308,0.077,0.771,0.155,1.389c0.025,0.31,0.077,0.63,0.153,0.966
			c0,0.179-0.141,0.282-0.424,0.307c-0.591,0.129-1.131,0.219-1.621,0.271c-0.875,0.128-1.814,0.206-2.816,0.231
			c-1.57,0.026-3.32-0.025-5.249-0.154c-1.672,4.451-2.508,6.817-2.508,7.101c0,0.309,0.064,1.299,0.193,2.972
			c0.386,0.282,0.694,0.476,0.926,0.578c0.18,0.078,0.257,0.18,0.232,0.31c0,0.076-0.026,0.128-0.078,0.154l-0.27,0.154
			c-0.283,0.078-0.592,0.09-0.926,0.039c-0.489-0.077-3.77-0.733-9.841-1.969c-0.309-0.051-0.309-0.9,0-2.547
			c0.129-0.695,0.424-1.698,0.888-3.009c0.489-1.339,0.939-2.393,1.351-3.165c0.437-0.798,0.785-1.66,1.041-2.586
			c0.309-0.927,0.438-1.583,0.385-1.968c-0.051-0.283-0.411-0.618-1.08-1.003c-0.514-0.257-1.002-0.45-1.466-0.579
			c-0.258-0.026-0.464-0.154-0.618-0.385c-0.103-0.104-0.219-0.246-0.347-0.425c-0.078-0.103-0.115-0.373-0.115-0.81
			c0-0.207,0-0.528,0-0.964c0-0.669,0.05-1.082,0.154-1.236c0.489-0.849,0.861-1.479,1.118-1.89
			c0.231-0.335,0.451-0.593,0.657-0.773c0.231-0.231,0.437-0.334,0.617-0.309c0.18,0.026,0.386,0.026,0.617,0L3.82,4.626
			c0.129-0.232,0.244-0.399,0.348-0.502C4.271,4.021,4.656,4.06,5.325,4.24l0.154,0.424h10.613v0.347h4.592V4.664l10.574-0.038
			l0.348,0.193c0.206,0.127,0.309,0.283,0.309,0.462c0.051,1.004,0.103,1.943,0.155,2.818c0.051,1.724,0.038,2.675-0.039,2.855
			C31.901,11.366,31.837,11.585,31.837,11.611z M20.761,12.575c-0.128-0.051-0.231-0.078-0.308-0.078v0.078l-3.436-0.038
			c-0.129,0.488-0.077,0.899,0.154,1.234c0.309,0.488,0.567,0.835,0.772,1.042c0.207,0.18,0.451,0.295,0.734,0.346
			c0.256,0.026,0.372,0.091,0.346,0.193c-0.025,0.129-0.128,0.193-0.309,0.193c-0.102,0-0.27,0-0.5,0
			c-0.284-0.051-0.593-0.231-0.927-0.54c-0.54-0.463-0.887-0.85-1.043-1.157c-0.102-0.335-0.153-0.773-0.153-1.312l-0.695-0.04
			c-0.412,0-0.771,0.167-1.08,0.502c-0.257,0.309-0.386,0.669-0.386,1.08c0,0.257,0,0.605,0,1.042
			c0.051,0.31,0.309,0.554,0.772,0.734c0.668,0.258,1.313,0.36,1.929,0.309c0.721-0.104,1.287-0.168,1.698-0.194
			c0.206-0.025,0.579-0.012,1.12,0.039c0.54,0.052,0.913,0.077,1.119,0.077c0.335,0,0.553-0.025,0.655-0.077
			c0.052-0.051,0.156-0.154,0.31-0.308c0.102-0.155,0.127-0.567,0.077-1.235c-0.026-0.644-0.128-1.12-0.309-1.428
			C21.199,12.807,21.018,12.653,20.761,12.575z"/>
	</g>
</g>
</svg>
