<?xml version="1.0" encoding="utf-8"?>
<!-- Generator: Adobe Illustrator 16.0.0, SVG Export Plug-In . SVG Version: 6.00 Build 0)  -->
<!DOCTYPE svg PUBLIC "-//W3C//DTD SVG 1.1//EN" "http://www.w3.org/Graphics/SVG/1.1/DTD/svg11.dtd">
<svg version="1.1" id="Selected_Items" xmlns="http://www.w3.org/2000/svg" xmlns:xlink="http://www.w3.org/1999/xlink" x="0px"
	 y="0px" width="26px" height="32px" viewBox="0 0 26 32" enable-background="new 0 0 26 32" xml:space="preserve">
<path fill="#FFFFFF" d="M25.987,7.639c-0.056-2.788-0.781-4.516-1.505-5.63c-0.725-1.115-1.115-1.06-1.115-1.06
	s-1.227-0.278-2.063-0.446c-0.836-0.167-2.397-0.334-2.397-0.334s-0.558,0.111-0.836,0.39c-0.278,0.279-0.446,0.502-0.446,0.502
	s-0.558-0.056-1.003,0.279s-1.059,0.892-1.059,0.892s-1.021,0.035-1.84-0.056c-1.003-0.111-3.735-1.672-3.735-1.672
	s-0.836,0.056-1.84,0.334S6.141,1.395,6.141,1.395S5.417,1.841,4.97,2.175C4.524,2.51,4.246,2.733,4.246,2.733
	s-0.279-0.056-0.725,0.39c-0.446,0.446-3.568,4.46-3.512,7.359c0.056,2.898,1.338,6.355,1.45,6.913
	c0.111,0.557,0.278,1.449,0.278,1.449s-0.725,0.279-0.725,0.502c0,0.223,0,2.787,0.279,3.01s0.334,0.111,0.558,0
	c0.223-0.111,0.223-0.111,0.223-0.111v1.951c0,0-0.669,0.39-0.725,0.725s0.167,3.122,0.167,3.289c0,0.167,0.446-0.279,0.446-0.279
	l0.334-0.223c0,0,0,1.505,0,1.729c0,0.223-0.39,0.278-0.334,0.613c0.056,0.334-0.167,1.449,8.028,1.672
	c8.195,0.223,8.808,0.056,9.477-0.056c0.669-0.111,0.948-0.613,0.948-1.059c0-0.446,0.111-1.115,0.111-1.115
	s0.279-0.167,0.725-0.167c0.446,0,0.446,0,0.446,0s-0.056,0.669,0,1.06c0.056,0.39,0.39,0.836,0.892,0.557
	c0.502-0.279,0.781-0.669,0.725-0.892c-0.056-0.223-0.056-0.223-0.056-0.223l-0.167-0.781c0,0,0.279,0.056,0.279-0.501
	s-0.112-1.617-0.056-2.174c0.056-0.557,0.223-1.449,0.223-1.449L23.2,24.809c0,0,0-0.613,0.111-1.004
	c0.112-0.39,0.112-0.39,0.112-0.39l0.334-0.167c0,0,0.334-1.282,0.446-2.174c0.112-0.892,0.334-1.338,0.334-1.338l-0.613-0.279
	c0,0-0.056-0.613,0.279-0.836c0.334-0.223,0.558-0.39,0.725-0.613c0.167-0.223,0-0.613-0.056-0.836S24.761,16,25.151,14.105
	C25.541,12.21,26.043,10.426,25.987,7.639z M7.981,7.193C6.42,7.416,6.364,6.691,6.364,6.133c0-0.557,0.167-1.784,0.501-2.118
	s1.059-0.892,1.059-0.892s0.669,0.669,1.115,1.45c0.446,0.78,0.669,1.951,0.669,1.951S9.542,6.97,7.981,7.193z M12.217,5.242
	c-0.78,0.613-1.839,1.115-1.839,1.115S9.932,5.074,9.542,4.294c-0.39-0.781-1.059-1.505-1.059-1.505S8.706,2.51,9.04,2.175
	s0.78-0.948,0.78-0.948s0.558,0.334,2.063,1.115c1.505,0.78,3.122,0.613,3.122,0.613S12.998,4.628,12.217,5.242z M22.196,24.92
	c-0.167,0.613-0.056,0.334-0.446,0.446c-0.391,0.112-1.06,0.167-1.06,0.167l0.056-2.397c0,0,0.557-0.056,1.003-0.056
	c0.446,0,1.115,0.056,1.115,0.056S22.364,24.307,22.196,24.92z M24.482,13.213c-0.39,1.394-0.334,2.174-0.446,2.899
	c-0.112,0.725,0.167,1.282,0.167,1.282s-0.39,0.557-0.725,0.78S23.2,19.401,23.2,19.401s-0.613,0-1.059,0s-1.45-0.056-1.45-0.056
	s0.167-0.781-0.056-1.505c-0.223-0.725-1.561-1.951-2.229-2.843c-0.669-0.892-0.502-2.731-0.391-5.073
	c0.112-2.341,1.394-5.185,1.84-6.132c0.446-0.948,1.672-1.728,2.62-2.118c0,0,0.836,0.056,1.338,0.725s1.449,3.624,1.394,5.296
	S24.872,11.82,24.482,13.213z"/>
</svg>
