<?xml version="1.0" encoding="utf-8"?>
<!-- Generator: Adobe Illustrator 16.0.3, SVG Export Plug-In . SVG Version: 6.00 Build 0)  -->
<!DOCTYPE svg PUBLIC "-//W3C//DTD SVG 1.1 Tiny//EN" "http://www.w3.org/Graphics/SVG/1.1/DTD/svg11-tiny.dtd">
<svg version="1.1" baseProfile="tiny" xmlns="http://www.w3.org/2000/svg" xmlns:xlink="http://www.w3.org/1999/xlink" x="0px"
	 y="0px" width="27.969px" height="32px" viewBox="0 0 27.969 32" xml:space="preserve">
<g id="Selected_Items">
</g>
<g id="guides">
	<path fill-rule="evenodd" fill="#FFFFFF" d="M0.402,17.462c0.041-0.88,0.201-1.618,0.545-2.326
		c0.125-0.257,0.166-0.586,0.146-0.875c-0.068-1.024,0.127-1.986,0.567-2.907c0.174-0.365,0.302-0.757,0.511-1.1
		c0.323-0.529,0.687-1.036,1.055-1.536c0.369-0.501,0.724-1.024,1.16-1.463c0.658-0.662,1.354-1.312,2.311-1.52
		C7.15,5.636,7.625,5.637,8.088,5.576c0.111-0.015,0.27-0.068,0.31-0.151c0.34-0.699,0.976-0.982,1.64-1.264
		c0.364-0.154,0.713-0.378,1.015-0.635c0.525-0.448,1.166-0.589,1.796-0.757c0.329-0.087,0.677-0.119,1.019-0.133
		c0.832-0.034,1.67-0.107,2.496-0.046c1.403,0.104,2.824,0.289,4.063,0.99c1.018,0.576,1.984,1.275,2.872,2.038
		c0.708,0.608,1.289,1.357,1.758,2.206c0.524,0.949,1.064,1.886,1.405,2.913c0.271,0.817,0.469,1.661,0.655,2.502
		c0.186,0.841,0.39,1.688,0.45,2.542c0.067,0.96,0.011,1.933-0.048,2.897c-0.032,0.522-0.138,1.05-0.293,1.549
		c-0.121,0.388-0.336,0.758-0.567,1.097c-0.295,0.432-0.538,0.874-0.737,1.363c-0.306,0.752-0.577,1.546-1.181,2.137
		c-0.402,0.393-0.907,0.539-1.46,0.63c-0.642,0.106-1.306,0.311-1.589,0.975c-0.394,0.921-1.152,1.367-2.014,1.694
		c-0.864,0.328-1.724,0.72-2.623,0.887c-0.685,0.127-1.383,0.22-2.069,0.368c-0.543,0.117-1.056,0.048-1.581-0.165
		c-0.742-0.301-1.551-0.275-2.337-0.327c-0.209-0.014-0.425,0.078-0.639,0.12c-0.716,0.143-1.403,0.016-2.074-0.234
		c-0.575-0.214-1.162-0.403-1.715-0.663c-0.535-0.252-1.052-0.552-1.542-0.884c-0.561-0.379-0.884-0.944-0.909-1.623
		c-0.022-0.598-0.149-1.106-0.697-1.439c-0.088-0.053-0.158-0.174-0.188-0.277c-0.23-0.792-0.737-1.407-1.248-2.027
		c-0.584-0.707-0.93-1.546-1.241-2.397c-0.124-0.34-0.228-0.692-0.299-1.046C0.447,18.07,0.431,17.715,0.402,17.462z"/>
</g>
</svg>
