<?xml version="1.0" encoding="utf-8"?>
<!-- Generator: Adobe Illustrator 16.0.0, SVG Export Plug-In . SVG Version: 6.00 Build 0)  -->
<!DOCTYPE svg PUBLIC "-//W3C//DTD SVG 1.1//EN" "http://www.w3.org/Graphics/SVG/1.1/DTD/svg11.dtd">
<svg version="1.1" id="Layer_1" xmlns="http://www.w3.org/2000/svg" xmlns:xlink="http://www.w3.org/1999/xlink" x="0px" y="0px"
	 width="63.746px" height="29.201px" viewBox="0 0 63.746 29.201" enable-background="new 0 0 63.746 29.201" xml:space="preserve">
<path fill-rule="evenodd" clip-rule="evenodd" fill="#FFFFFF" d="M52.33,1.738c0.166-0.033,0.316-0.1,0.449-0.2
	c1.033-0.167,2.15-0.233,3.35-0.2c1.701,0.167,3.268,1.217,4.701,3.15c0.732,1.034,1.299,2.034,1.699,3l-4.949-1l-2.451,2.9
	l1.352,2.6l5.398,1l-0.148,0.95c-0.268,0.867-1.068,1.683-2.4,2.45c-2.066,1.167-3.734,1.667-5,1.5l-0.551,2.3
	c-1-0.4-2.066-0.75-3.2-1.05l0.15-1.3l-0.95-0.051l-0.15,1.45h-0.05c-0.167-0.167-0.35-0.233-0.55-0.2
	c-1.867-0.533-3.65-0.866-5.35-1c-1.9-0.166-8.617,1.417-20.15,4.75c-10.5,3.066-16.133,4.816-16.9,5.25
	c-0.5,0.268-1.184,0.268-2.05,0c-1.133-0.434-2.05-1.366-2.75-2.8c-0.667-1.433-0.6-2.667,0.2-3.7l1.45-0.949
	c5.9-1.467,11.983-2.984,18.25-4.551c12.2-3.133,18.899-5,20.1-5.6c1.134-0.433,2.767-1.833,4.9-4.2l3-3.35
	c0.267-0.267,0.667-0.567,1.2-0.9l0.05,0.1c0.167-0.066,0.299-0.133,0.399-0.2l-0.75,7.15l0.951,0.1L52.33,1.738z M45.129,10.238
	l-0.25,5.25c-0.033,0.133-0.016,0.3,0.051,0.5c0.1,0.067,0.217,0.101,0.35,0.101l1.95,0.199c0.1,0,0.183-0.016,0.25-0.05
	c0.1-0.033,0.167-0.083,0.2-0.149c0.1-0.066,0.149-0.15,0.149-0.25l0.45-5.3c-0.033-0.133-0.1-0.267-0.2-0.4
	c-0.066-0.133-0.167-0.184-0.3-0.15l-2.1-0.15c-0.101-0.033-0.184-0.033-0.25,0c-0.101,0.067-0.15,0.133-0.15,0.2
	C45.18,10.105,45.129,10.172,45.129,10.238z M42.379,14.838c-0.066-0.5-0.266-0.933-0.6-1.3l-0.05-0.05c-0.4-0.367-0.9-0.6-1.5-0.7
	c-0.134-0.033-0.267,0.017-0.4,0.15c-0.167-0.033-0.3-0.033-0.399,0l-31.9,7.75c-0.133,0.033-0.233,0.117-0.3,0.25
	c-0.1,0.1-0.133,0.217-0.1,0.35c0,0.134,0.05,0.234,0.15,0.301c1.3,0.967,1.8,2.3,1.5,4c-0.1,0.133-0.1,0.232,0,0.3
	c0.033,0.1,0.117,0.167,0.25,0.2c0.133,0.1,0.25,0.133,0.35,0.1l31.65-9.35h0.1c0.268-0.101,0.484-0.25,0.65-0.45
	c0.4-0.4,0.6-0.883,0.6-1.45C42.379,14.905,42.379,14.872,42.379,14.838z M40.98,14.238c0.233,0.2,0.366,0.434,0.399,0.7
	c-0.033,0.267-0.116,0.5-0.25,0.7l-0.1,0.05c-0.066,0.1-0.15,0.167-0.25,0.2v-0.05l-30.95,9.1c0.133-1.434-0.25-2.617-1.15-3.55
	l30.95-7.45h0.101c0-0.033,0.066-0.033,0.2,0c0.133,0,0.283-0.017,0.449-0.05c0.234,0,0.45,0.117,0.65,0.35H40.98z M3.88,25.839
	c0.433,0.399,0.95,0.583,1.55,0.55c0.6,0,1.1-0.2,1.5-0.601c0.4-0.434,0.6-0.982,0.6-1.649c0-0.534-0.217-1.017-0.65-1.45
	c-0.434-0.4-0.967-0.633-1.6-0.7c-0.6,0.101-1.1,0.351-1.5,0.75c-0.4,0.4-0.6,0.9-0.6,1.5C3.18,24.905,3.413,25.438,3.88,25.839z"/>
</svg>
