<?xml version="1.0" encoding="utf-8"?>
<!-- Generator: Adobe Illustrator 16.0.0, SVG Export Plug-In . SVG Version: 6.00 Build 0)  -->
<!DOCTYPE svg PUBLIC "-//W3C//DTD SVG 1.1//EN" "http://www.w3.org/Graphics/SVG/1.1/DTD/svg11.dtd">
<svg version="1.1" id="Layer_1" xmlns="http://www.w3.org/2000/svg" xmlns:xlink="http://www.w3.org/1999/xlink" x="0px" y="0px"
	 width="19.354px" height="32.125px" viewBox="0 0 19.354 32.125" enable-background="new 0 0 19.354 32.125" xml:space="preserve">
<g id="guides">
</g>
<g>
	<path fill-rule="evenodd" clip-rule="evenodd" fill="#FFFFFF" fill-opacity="0.9961" d="M4.752,2.9H4.86v0.072h0.035v0.683
		L5.291,3.44V3.404h5.934l0.396,0.288V2.973h0.035V2.9h0.072V2.865h3.129V2.9h0.18v0.036h0.035v3.093h-0.035v0.144h-0.072v0.036
		h-0.646l0.215,0.288v1.007h-0.07V7.54H2.055V7.504H1.983V7.468H1.946V6.641l0.252-0.359L1.551,6.209V6.173H1.443V6.029H1.406V2.865
		h3.346V2.9z M15.181,18.617h-0.9l0.182,0.287l0.035,6.869h-0.035v0.035h-0.037v0.072h0.539v0.072h0.072v0.107h0.035v3.094h-0.035
		v0.035h-0.18v0.072h-3.129v-0.072h-0.072v-0.07H11.62v-0.324h0.035v-0.18h-0.107v0.07h-0.035v0.072h-0.037v0.037H5.039v-0.037
		H4.967v-0.072H4.932V28.65H4.86v0.539H4.752v0.072H1.406v-3.201h0.036v-0.107h0.108v-0.072h0.574v-0.035h-0.07v-0.072H1.983v-6.869
		l0.18-0.287H1.515V18.58H1.443v-0.035H1.371v-2.302h0.035v-0.071h0.036v-0.037h0.72l-0.217-0.252v-4.351h0.037v-0.072h0.072v-0.072
		h12.407v0.036h0.035v4.387l-0.217,0.323h0.9V18.617z M1.983,8.547V8.511h0.072V8.439h1.617v2.049H1.983v-0.036H1.946V8.547H1.983z
		 M11.154,19.084l1.725-1.689v-0.18l-1.725-1.763V19.084z M5.434,15.631l-1.941,1.583l1.941,1.799V15.631z"/>
	<polygon fill-rule="evenodd" clip-rule="evenodd" fill="#FFFFFF" fill-opacity="0.9804" points="16.296,10.309 16.907,12.431 
		17.122,17.143 17.374,18.904 17.769,20.092 18.058,20.164 18.31,20.99 18.849,22.645 17.734,23.004 17.087,21.027 16.907,20.451 
		17.05,20.234 16.583,18.939 16.331,17.178 16.079,12.466 15.54,11.028 15.323,10.488 12.771,10.488 12.771,8.439 14.532,8.439 
		14.532,9.158 15.54,9.194 16.331,9.913 	"/>
	<rect x="4.283" y="8.439" fill-rule="evenodd" clip-rule="evenodd" fill="#FFFFFF" width="7.876" height="2.049"/>
</g>
</svg>
