<?xml version="1.0" encoding="utf-8"?>
<!-- Generator: Adobe Illustrator 16.0.0, SVG Export Plug-In . SVG Version: 6.00 Build 0)  -->
<!DOCTYPE svg PUBLIC "-//W3C//DTD SVG 1.1//EN" "http://www.w3.org/Graphics/SVG/1.1/DTD/svg11.dtd">
<svg version="1.1" id="Layer_1" xmlns="http://www.w3.org/2000/svg" xmlns:xlink="http://www.w3.org/1999/xlink" x="0px" y="0px"
	 width="43.454px" height="29.438px" viewBox="0 0 43.454 29.438" enable-background="new 0 0 43.454 29.438" xml:space="preserve">
<g>
	<path fill="#FFFFFF" d="M41.088,22.257c-0.368,0.313-0.765,0.468-1.189,0.468l-26.556,0.042c-0.481-0.026-0.878-0.185-1.19-0.467
		c-0.312-0.396-0.467-0.764-0.467-1.104V9.893L1.489,9.935V8.108l10.154-0.042l0.042-1.316c0-0.396,0.155-0.766,0.467-1.104
		c0.313-0.283,0.708-0.425,1.19-0.425h26.516c0.452,0,0.862,0.142,1.23,0.425c0.369,0.339,0.54,0.708,0.511,1.104l0.043,14.361
		C41.614,21.507,41.429,21.889,41.088,22.257z M25.963,7.089H14.745c-0.368,0-0.553,0.184-0.553,0.552v6.714
		c0,0.339,0.198,0.496,0.596,0.468h11.175c0.141,0,0.27-0.058,0.382-0.171c0.17-0.085,0.241-0.197,0.213-0.339l-0.043-6.714
		c0-0.17-0.07-0.297-0.213-0.383C26.216,7.131,26.104,7.089,25.963,7.089z M20.949,15.841c-0.085,0.085-0.127,0.184-0.127,0.298
		v1.317c0,0.142,0.042,0.255,0.127,0.34c0.112,0.085,0.226,0.127,0.34,0.127h1.444c0.142,0,0.256-0.043,0.341-0.127
		c0.112-0.059,0.169-0.17,0.169-0.34v-1.317c0-0.113-0.057-0.227-0.169-0.34c-0.085-0.085-0.213-0.128-0.384-0.128l-1.486,0.043
		C21.117,15.714,21.034,15.756,20.949,15.841z M23.965,16.139l0.043,1.317c0,0.142,0.028,0.255,0.085,0.34
		c0.171,0.085,0.313,0.127,0.425,0.127h1.402c0.084,0,0.184-0.043,0.297-0.127c0.143-0.086,0.213-0.198,0.213-0.34v-1.317
		c0-0.113-0.042-0.227-0.127-0.34c-0.17-0.085-0.311-0.113-0.426-0.085h-1.443c-0.113,0-0.213,0.028-0.297,0.085
		C24.051,15.969,23.994,16.082,23.965,16.139z M16.317,15.714h-1.401c-0.17,0-0.269,0.028-0.297,0.085
		c-0.085,0.113-0.156,0.213-0.212,0.297l0.085,1.36c0,0.142,0.027,0.255,0.085,0.34c0.112,0.085,0.227,0.127,0.339,0.127h1.444
		c0.084,0,0.185-0.043,0.298-0.127c0.113-0.059,0.17-0.17,0.17-0.34l-0.042-1.317c0.057-0.113,0.027-0.213-0.084-0.298
		C16.558,15.756,16.43,15.714,16.317,15.714z M17.762,15.841c-0.085,0.143-0.128,0.241-0.128,0.298v1.317
		c0,0.17,0.042,0.281,0.128,0.34c0.113,0.085,0.228,0.113,0.339,0.085l1.445,0.043c0.142,0,0.269-0.043,0.383-0.127
		c0.084-0.058,0.127-0.171,0.127-0.34l-0.085-1.317c0.057-0.056,0.042-0.155-0.042-0.298c-0.199-0.085-0.369-0.128-0.511-0.128
		l-1.401-0.042C17.932,15.699,17.847,15.756,17.762,15.841z M19.928,18.986c-0.198-0.113-0.354-0.17-0.467-0.17h-1.445
		c-0.085,0-0.17,0.057-0.255,0.17c-0.085,0.057-0.127,0.156-0.127,0.299V20.6c0,0.144,0.042,0.271,0.127,0.383
		c0.085,0.085,0.198,0.113,0.339,0.085l1.36,0.044c0.142,0,0.297-0.044,0.467-0.128c0.084-0.112,0.127-0.24,0.127-0.383
		l-0.084-1.316C19.971,19.17,19.957,19.071,19.928,18.986z M16.36,18.816h-1.444c-0.143,0-0.255,0.042-0.34,0.126
		c-0.113,0.115-0.17,0.214-0.17,0.3L14.49,20.6c0,0.114,0.042,0.229,0.128,0.341c0.057,0.113,0.155,0.17,0.297,0.17l1.444-0.044
		c0.084,0,0.198-0.026,0.341-0.085c0.084-0.111,0.112-0.239,0.084-0.383v-1.314c0.027-0.113-0.015-0.214-0.128-0.299
		C16.544,18.871,16.445,18.816,16.36,18.816z M24.092,18.986c-0.085,0.057-0.127,0.156-0.127,0.299V20.6
		c0.029,0.144,0.086,0.255,0.171,0.341c0.142,0.084,0.239,0.126,0.297,0.126l1.487,0.044c0.084,0,0.213-0.057,0.382-0.17
		c0.086-0.087,0.127-0.197,0.127-0.341l-0.041-1.315c0-0.143-0.056-0.256-0.171-0.342c-0.113-0.085-0.226-0.126-0.34-0.126h-1.359
		C24.348,18.816,24.207,18.871,24.092,18.986z M23.073,18.986c-0.085-0.113-0.213-0.17-0.384-0.17h-1.486
		c-0.086,0-0.185,0.057-0.297,0.17c-0.057,0.057-0.084,0.156-0.084,0.299V20.6c0,0.144,0.056,0.271,0.17,0.383
		c0.085,0.085,0.184,0.128,0.297,0.128h1.444c0.142,0,0.27-0.057,0.383-0.17c0.086-0.087,0.1-0.197,0.043-0.341l0.084-1.315
		C23.187,19.142,23.13,19.042,23.073,18.986z"/>
	<path fill="none" stroke="#FFFFFF" stroke-linecap="round" stroke-linejoin="round" stroke-miterlimit="3" d="M10.793,19.579
		c-2.976,0.905-4.49,2.169-4.547,3.781c-0.028,1.049,0.85,2.124,2.635,3.229c2.153,1.303,4.461,1.432,6.925,0.383
		c2.438-1.048,4.292-1.601,5.567-1.657c0.764-0.026,1.727,0.101,2.889,0.384c1.021,0.112,1.884-0.057,2.591-0.511
		c0.624-0.425,0.937-0.937,0.937-1.528"/>
</g>
</svg>
