<?xml version="1.0" encoding="utf-8"?>
<!-- Generator: Adobe Illustrator 16.0.0, SVG Export Plug-In . SVG Version: 6.00 Build 0)  -->
<!DOCTYPE svg PUBLIC "-//W3C//DTD SVG 1.1//EN" "http://www.w3.org/Graphics/SVG/1.1/DTD/svg11.dtd">
<svg version="1.1" id="Layer_1" xmlns="http://www.w3.org/2000/svg" xmlns:xlink="http://www.w3.org/1999/xlink" x="0px" y="0px"
	 width="60.178px" height="35.005px" viewBox="0 0 60.178 35.005" enable-background="new 0 0 60.178 35.005" xml:space="preserve">
<path fill-rule="evenodd" clip-rule="evenodd" fill="#FFFFFF" d="M50.473,3.899c1.734,0.933,3.083,2.417,4.05,4.45
	c0.967,1.966,1.467,3.583,1.5,4.85l-0.451,1.35c-0.232,0.967-0.217,1.833,0.051,2.6c0.533,1.2,1.334,2.233,2.4,3.1l1,2.351
	l-5.551,2.05l-0.949-2.55c0.232-1.2,0.133-2.384-0.301-3.55c-0.266-0.733-0.949-1.4-2.049-2c-0.567-0.333-1.083-0.583-1.55-0.75
	l-2,0.8l-2.051-5.4c2.601-1.267,3.95-2.333,4.051-3.2c0-0.6-1.551-1.95-4.65-4.05c-1.533-1.033-3.084-2.033-4.65-3
	c1.167,0.1,2.5,0.3,4,0.6C46.256,2.183,48.639,2.966,50.473,3.899z M45.374,17l-3.051,1.05c-2.566,0.867-4.699,1.7-6.399,2.5
	l-9,3.899l-1.95-6l18.35-6.75L45.374,17z M25.773,24.949l-5.1,2.15c-4,1.8-9.867,4.066-17.6,6.8c-1.4-1.7-2.033-3.916-1.9-6.65
	l22.6-8.35L25.773,24.949z"/>
</svg>
