<?xml version="1.0" encoding="utf-8"?>
<!-- Generator: Adobe Illustrator 16.0.0, SVG Export Plug-In . SVG Version: 6.00 Build 0)  -->
<!DOCTYPE svg PUBLIC "-//W3C//DTD SVG 1.1//EN" "http://www.w3.org/Graphics/SVG/1.1/DTD/svg11.dtd">
<svg version="1.1" id="Layer_1" xmlns="http://www.w3.org/2000/svg" xmlns:xlink="http://www.w3.org/1999/xlink" x="0px" y="0px"
	 width="30.093px" height="28.944px" viewBox="0 0 30.093 28.944" enable-background="new 0 0 30.093 28.944" xml:space="preserve">
<g id="guides">
</g>
<path fill-rule="evenodd" clip-rule="evenodd" fill="#FFFFFF" d="M11.443,8.821c0.219,1.083,0.241,2.045,0.064,2.887
	c-0.177,0.843-0.336,1.433-0.479,1.771c0.133-0.249,0.324-0.531,0.572-0.848c0.708-0.906,1.706-1.641,2.993-2.201
	c0.661-0.29,1.171-0.501,1.527-0.635c1.144-0.434,1.763-0.995,1.859-1.687c0.082-0.563,0.043-1.144-0.118-1.74
	c-0.155-0.586-0.193-1.108-0.117-1.567c0.099-0.591,0.483-1.083,1.153-1.478c0.258-0.152,0.51-0.269,0.757-0.35
	c-0.037,0.022-0.114,0.263-0.229,0.722c-0.115,0.458-0.038,1.018,0.234,1.676c0.271,0.658,0.472,1.133,0.604,1.42
	c0.132,0.29,0.241,0.853,0.324,1.689c0.084,0.838-0.127,1.822-0.629,2.952c-0.502,1.132-1.12,1.89-1.854,2.275
	c-0.732,0.386-1.145,0.786-1.237,1.203c-0.092,0.419,0.087,0.755,0.535,1.013s0.927,0.282,1.436,0.074
	c0.577-0.238,0.921-0.741,1.031-1.508c0.108-0.751,0.423-1.421,0.945-2.009c0.393-0.438,0.943-0.873,1.654-1.3
	c0.24-0.143,0.532-0.285,0.879-0.43c0.192-0.078,0.47-0.191,0.835-0.338c0.622-0.276,1.075-0.65,1.358-1.123
	c0.298-0.491,0.465-1.19,0.505-2.096c0.011-0.284,0.009-0.571-0.004-0.862c0.446,0.265,0.796,0.788,1.048,1.568
	c0.251,0.782,0.32,1.457,0.206,2.025c-0.113,0.568-0.318,1.059-0.611,1.472c-0.295,0.412-0.695,0.901-1.201,1.469
	c-0.519,0.578-0.864,0.985-1.04,1.222c-0.318,0.425-0.503,0.795-0.557,1.109c-0.044,0.269-0.05,0.763-0.016,1.481
	c0.05,1.016,0.075,1.695,0.075,2.037c0,1.836-0.334,3.184-1.004,4.045c-0.874,1.123-1.731,1.902-2.568,2.336
	c-0.955,0.49-2.228,0.736-3.813,0.736c-1.717,0-3.154-0.246-4.313-0.736c-1.237-0.525-2.083-1.303-2.541-2.336
	c-0.394-0.885-0.668-1.938-0.827-3.158c-0.05-0.385-0.083-0.76-0.103-1.127c-0.49-0.092-0.916,0.209-1.278,0.904
	c-0.36,0.693-0.522,1.348-0.484,1.957c0.039,0.611,0.246,1.471,0.625,2.578c0.131,0.449,0.185,0.801,0.161,1.051
	c-0.031,0.311-0.184,0.521-0.456,0.631c-0.321,0.129-0.688,0.178-1.1,0.146c-0.463-0.037-0.902-0.174-1.319-0.41
	c-1.062-0.604-1.706-1.781-1.937-3.531c-0.229-1.75-0.301-3.033-0.214-3.85c0.086-0.814,0.342-1.613,0.77-2.398
	c0.428-0.783,0.832-1.344,1.213-1.681c0.382-0.338,0.893-0.712,1.532-1.122c0.64-0.408,1.108-0.745,1.405-1.008
	c0.438-0.383,0.715-0.807,0.83-1.271C8.824,9.292,8.52,7.952,7.613,6.456C7.33,5.988,7.005,5.532,6.637,5.087
	c0.837,0.111,1.791,0.49,2.865,1.138C10.576,6.872,11.223,7.737,11.443,8.821z"/>
</svg>
