<svg width="15" height="32" viewBox="0 0 15 32" fill="none" xmlns="http://www.w3.org/2000/svg">
<path d="M14.2822 9.81912V9.3855L13.6062 8.43874V7.73573L13.3085 7.41116L10.6312 0.595254L10.3335 0.568313V0H9.71007V0.161642L9.03528 1.1084C9.00834 0.891597 8.84541 0.864657 8.62861 0.864657C8.62861 0.864657 4.16549 0.837716 3.32777 0.864657C2.49006 0.891597 2.6517 1.40603 2.62476 2.11033H2.46183V2.89416H3.67928V4.92367C3.67928 4.92367 3.40988 5.11225 3.38165 5.46504C3.37396 5.57537 3.37011 5.7229 3.37011 5.87043C0.904426 6.1347 0 6.79025 0 6.79025V30.3233C0 30.3233 1.39064 32 5.98076 32C9.80885 32 11.7935 30.431 11.7935 30.431V7.44195L13.5253 10.0616L13.5792 27.3457C13.3368 27.8063 13.1469 28.2656 13.3085 28.2656C13.4702 28.2656 13.9846 28.2656 13.9846 28.2656L14.4439 27.914V9.873L14.2822 9.81912ZM11.2534 25.4804C11.2534 25.4804 8.9814 26.1706 5.89737 26.2104C2.81334 26.2514 0.500321 25.4804 0.500321 25.4804V23.7768C0.500321 23.7768 2.75946 24.467 5.89737 24.4529C8.94291 24.44 11.2534 23.7768 11.2534 23.7768V25.4804Z" fill="white"/>
</svg>
