<svg width="32" height="32" viewBox="0 0 32 32" fill="none" xmlns="http://www.w3.org/2000/svg">
<path d="M14.4448 4.00032C14.4448 3.54534 14.7194 3.15491 15.1114 2.98304L15.1113 2.22272L12.4447 3.11168V6.22261H15.1113V5.01752C14.7193 4.84564 14.4448 4.45565 14.4448 4.00024L14.4448 4.00032Z" fill="white"/>
<path d="M16.8888 7.55445H10.6667L8.00012 10.221H19.5556L16.8888 7.55445Z" fill="white"/>
<path d="M24 4.44486H22.6665C22.4208 4.44486 22.222 4.24611 22.222 4.00038C22.222 3.75465 22.4208 3.5559 22.6665 3.5559H24C24.2457 3.5559 24.4444 3.75465 24.4444 4.00038C24.4445 4.24611 24.2458 4.44486 24 4.44486Z" fill="white"/>
<path d="M22.0008 1.43945C21.8366 1.43945 21.6798 1.34862 21.6023 1.19205C21.4929 0.972262 21.5832 0.705282 21.803 0.596535L22.9143 0.0464296C23.1338 -0.0630501 23.4004 0.0278881 23.5095 0.24768C23.618 0.467471 23.5284 0.734452 23.3083 0.843199L22.1978 1.3933C22.1345 1.42476 22.067 1.43945 22.0008 1.43945Z" fill="white"/>
<path d="M23.1109 8.00032C23.0443 8.00032 22.9775 7.98563 22.9144 7.95427L21.8031 7.40417C21.5833 7.29542 21.493 7.02844 21.6025 6.80865C21.7112 6.58813 21.9768 6.49822 22.198 6.6074L23.3084 7.15751C23.5286 7.26625 23.6182 7.53324 23.5097 7.75302C23.4323 7.90979 23.2741 8.00032 23.1109 8.00032Z" fill="white"/>
<path d="M20.8888 3.55579H17.5597L20.5773 2.1487C20.7994 2.04506 20.8957 1.78067 20.792 1.55798C20.7171 1.39673 20.5565 1.30132 20.3888 1.30132C20.3264 1.30132 20.262 1.31475 20.2013 1.34288C20.2013 1.34288 15.3317 3.62445 15.3215 3.63151C15.198 3.71057 15.111 3.84234 15.111 3.99983C15.111 4.15754 15.1978 4.28941 15.3215 4.36847C15.3318 4.37524 20.2013 6.65711 20.2013 6.65711C20.2621 6.68523 20.3264 6.69867 20.3888 6.69867C20.5562 6.69867 20.7168 6.60367 20.792 6.44232C20.8956 6.21961 20.7994 5.95522 20.5773 5.8516L17.5597 4.44451H20.8888C21.1345 4.44451 21.3332 4.24576 21.3332 4.00003C21.3332 3.75451 21.1346 3.55576 20.8888 3.55576V3.55579Z" fill="white"/>
<path d="M8 11.5558V32H19.5554V11.5558H8ZM13.7781 24.8872C12.0597 24.8872 10.6672 23.4943 10.6672 21.7758C10.6672 20.0576 12.0601 18.6648 13.7781 18.6648C15.4963 18.6648 16.889 20.0577 16.889 21.7758C16.8886 23.4941 15.496 24.8872 13.7781 24.8872Z" fill="white"/>
</svg>
