<?xml version="1.0" encoding="utf-8"?>
<!-- Generator: Adobe Illustrator 16.0.0, SVG Export Plug-In . SVG Version: 6.00 Build 0)  -->
<!DOCTYPE svg PUBLIC "-//W3C//DTD SVG 1.1//EN" "http://www.w3.org/Graphics/SVG/1.1/DTD/svg11.dtd">
<svg version="1.1" id="Layer_1" xmlns="http://www.w3.org/2000/svg" xmlns:xlink="http://www.w3.org/1999/xlink" x="0px" y="0px"
	 width="27.355px" height="20.459px" viewBox="0 0 27.355 20.459" enable-background="new 0 0 27.355 20.459" xml:space="preserve">
<g>
	<path fill-rule="evenodd" clip-rule="evenodd" fill="#CCCCCC" d="M16.013,5.625l-0.127,0.304c-0.123-0.014-0.247-0.027-0.371-0.04
		h-0.002c-1.001-0.108-1.87-0.178-2.605-0.208c0.354,0.669,0.954,1.364,1.802,2.086c0.104,0.089,0.208,0.176,0.313,0.26L14.896,8.33
		h-0.002c-0.008-0.003-0.015-0.008-0.022-0.013c-0.005-0.003-0.01-0.007-0.016-0.011h0.001c-0.119-0.095-0.237-0.193-0.356-0.294
		c-0.952-0.812-1.605-1.593-1.958-2.343c-0.092-0.002-0.182-0.004-0.267-0.006c-0.133-0.002-0.273,0.001-0.421,0.009h-0.001
		c-0.588,0.032-1.307,0.135-2.156,0.31c-0.7,0.145-1.694,0.389-2.983,0.733C5.329,7.083,4.396,7.32,3.916,7.425
		C2.974,7.635,2.29,7.721,1.864,7.682C1.82,7.678,1.783,7.658,1.755,7.623l0.001,0.003C1.729,7.592,1.716,7.553,1.719,7.51V7.507
		c0.003-0.044,0.023-0.081,0.059-0.109L1.774,7.4C1.808,7.372,1.846,7.359,1.89,7.361h0.003c0.406,0.033,1.058-0.05,1.956-0.25
		c0.477-0.104,1.404-0.339,2.783-0.704c1.297-0.347,2.297-0.593,3.002-0.74c0.867-0.179,1.602-0.285,2.203-0.317
		c0.155-0.009,0.302-0.012,0.442-0.009c0.042,0,0.084,0.001,0.126,0.003c-0.036-0.1-0.066-0.199-0.093-0.297
		c-0.295-1.096,0.145-1.831,1.319-2.204c1.173-0.377,3.022-0.306,5.543,0.213h0.003c0.007,0.001,0.014,0.003,0.021,0.006h0.002
		l-0.118,0.301c-2.436-0.499-4.221-0.571-5.355-0.216c-0.973,0.31-1.342,0.916-1.107,1.818V4.964
		c0.035,0.128,0.079,0.259,0.133,0.391c0.776,0.026,1.707,0.098,2.792,0.214c0.142,0.015,0.282,0.032,0.421,0.05
		c0.006,0,0.013,0.001,0.021,0.003C15.996,5.623,16.004,5.624,16.013,5.625L16.013,5.625z M20.833,11.014l0.125-0.294
		c1.597,0.421,2.756,0.568,3.476,0.439c0.46-0.083,0.767-0.289,0.921-0.614c0.144-0.33,0.153-0.796,0.03-1.401
		c-0.18-0.78-1.296-1.468-3.349-2.064l-0.668-0.511c0.105,0.027,0.209,0.055,0.311,0.082h-0.001c0.025,0.006,0.05,0.013,0.074,0.019
		c2.458,0.665,3.774,1.469,3.946,2.41c0.141,0.689,0.123,1.221-0.053,1.596c-0.187,0.426-0.57,0.692-1.152,0.8h-0.002
		c-0.753,0.141-1.966-0.012-3.64-0.456l0.002,0.001C20.847,11.02,20.84,11.017,20.833,11.014z"/>
	<path fill-rule="evenodd" clip-rule="evenodd" fill="#FFFFFF" d="M21.369,6.569c-0.465-0.119-0.968-0.233-1.508-0.344
		c-1.193-0.244-2.475-0.443-3.848-0.6h-0.001l0.439-1.067c0.681,0.107,1.338,0.271,1.974,0.49l0.658-1.684l0.118-0.301h-0.002
		l0.009-0.02l-0.417-0.976l1.306-0.563l2.756,1.927v0.474h0.563v0.342l-0.891,1.821l-1.334-0.71l-0.386,0.833
		C20.996,6.311,21.183,6.438,21.369,6.569z M20.958,10.719l-0.125,0.294l-3.492,8.213c-2.387,0.118-4.422-0.553-6.107-2.014
		l3.66-8.883h0.002l0.125-0.302l0.864-2.098c0.011,0.001,0.023,0.003,0.035,0.004c0.003,0.001,0.006,0.001,0.01,0.002h0.001
		c1.379,0.157,2.668,0.358,3.865,0.603c0.686,0.14,1.31,0.286,1.872,0.438c0.025,0.007,0.052,0.014,0.077,0.021
		c0.099,0.027,0.196,0.055,0.291,0.082c0.115,0.095,0.229,0.191,0.343,0.291L20.958,10.719z M18.321,8.575
		c-0.088,0.296-0.215,0.566-0.381,0.81c-0.222,0.348-0.515,0.53-0.881,0.548l-0.508,0.013c-0.149,0.006-0.294,0.023-0.435,0.051
		c-0.196,0.036-0.406,0.089-0.627,0.159c-0.198,0.064-0.386,0.178-0.563,0.34c-0.196,0.177-0.398,0.499-0.605,0.966
		c-0.209,0.465-0.235,0.902-0.076,1.313l0.47,0.205c0.005-0.213,0.04-0.447,0.105-0.701c0.086-0.337,0.25-0.599,0.494-0.785
		c0.237-0.179,0.492-0.251,0.768-0.214c0.309,0.043,0.613,0,0.912-0.131c0.393-0.173,0.682-0.472,0.867-0.896l0.035,0.256
		c0.015,0.083,0.021,0.173,0.02,0.269c-0.013,0.43-0.146,0.823-0.397,1.178c0.338-0.077,0.635-0.253,0.89-0.528
		c-0.075,0.418-0.217,0.773-0.426,1.066l-0.387,0.496c0.441-0.023,0.813-0.188,1.113-0.492c-0.162,0.635-0.491,1.227-0.986,1.776
		c0.18-0.082,0.345-0.199,0.496-0.352c0.229-0.235,0.441-0.495,0.637-0.781c0.185-0.271,0.334-0.571,0.445-0.9
		c0.117-0.343,0.239-0.69,0.365-1.041c-0.035,0.058-0.08,0.109-0.138,0.154c-0.288,0.237-0.548,0.37-0.781,0.397
		c0.354-0.484,0.619-1.079,0.793-1.783l-1.078,0.71c0.075-0.207,0.155-0.435,0.24-0.685c0.079-0.235,0.132-0.466,0.16-0.695
		c0.028-0.215,0.027-0.426-0.002-0.63c-0.034-0.214-0.099-0.419-0.195-0.618c-0.12-0.242-0.261-0.479-0.423-0.711
		c0.049,0.16,0.089,0.332,0.119,0.516C18.402,8.098,18.389,8.337,18.321,8.575z"/>
</g>
</svg>
