<svg width="29" height="20" viewBox="0 0 29 20" fill="none" xmlns="http://www.w3.org/2000/svg">
<path d="M24.3511 4.7476C23.0779 3.47178 21.5647 2.4606 19.8989 1.77236C18.233 1.08412 16.4473 0.732447 14.6449 0.737605H14.5961C7.04115 0.763855 0.894897 6.99511 0.894897 14.6289V17.4876C0.894897 17.9517 1.07927 18.3969 1.40746 18.725C1.73565 19.0532 2.18077 19.2376 2.6449 19.2376H26.6449C27.109 19.2376 27.5541 19.0532 27.8823 18.725C28.2105 18.3969 28.3949 17.9517 28.3949 17.4876V14.4876C28.3998 12.6772 28.0449 10.8838 27.3507 9.21171C26.6565 7.53963 25.6369 6.0222 24.3511 4.7476ZM26.8949 17.4876C26.8949 17.5539 26.8686 17.6175 26.8217 17.6644C26.7748 17.7113 26.7112 17.7376 26.6449 17.7376H13.1174L20.2511 7.92885C20.3631 7.76784 20.4076 7.56937 20.375 7.37598C20.3424 7.18258 20.2353 7.00965 20.0768 6.89424C19.9182 6.77882 19.7207 6.73012 19.5267 6.75855C19.3326 6.78698 19.1574 6.8903 19.0386 7.04635L11.2624 17.7376H2.6449C2.57859 17.7376 2.515 17.7113 2.46812 17.6644C2.42124 17.6175 2.3949 17.5539 2.3949 17.4876V14.6289C2.39544 14.164 2.42131 13.6996 2.4724 13.2376H5.6449C5.84381 13.2376 6.03458 13.1586 6.17523 13.0179C6.31588 12.8773 6.3949 12.6865 6.3949 12.4876C6.3949 12.2887 6.31588 12.0979 6.17523 11.9573C6.03458 11.8166 5.84381 11.7376 5.6449 11.7376H2.73365C3.9699 6.53761 8.46115 2.5951 13.8949 2.26135V5.4876C13.8949 5.68652 13.9739 5.87728 14.1146 6.01793C14.2552 6.15859 14.446 6.2376 14.6449 6.2376C14.8438 6.2376 15.0346 6.15859 15.1752 6.01793C15.3159 5.87728 15.3949 5.68652 15.3949 5.4876V2.26135C18.0326 2.42326 20.5473 3.43338 22.5641 5.1411C24.5809 6.84882 25.9917 9.16266 26.5861 11.7376H23.6449C23.446 11.7376 23.2552 11.8166 23.1146 11.9573C22.9739 12.0979 22.8949 12.2887 22.8949 12.4876C22.8949 12.6865 22.9739 12.8773 23.1146 13.0179C23.2552 13.1586 23.446 13.2376 23.6449 13.2376H26.8324C26.8736 13.6501 26.8949 14.0676 26.8949 14.4876V17.4876Z" fill="#6492B4"/>
</svg>
