<?xml version="1.0" encoding="utf-8"?>
<!-- Generator: Adobe Illustrator 16.0.0, SVG Export Plug-In . SVG Version: 6.00 Build 0)  -->
<!DOCTYPE svg PUBLIC "-//W3C//DTD SVG 1.1//EN" "http://www.w3.org/Graphics/SVG/1.1/DTD/svg11.dtd">
<svg version="1.1" xmlns="http://www.w3.org/2000/svg" xmlns:xlink="http://www.w3.org/1999/xlink" x="0px" y="0px"
	 width="76.833px" height="32px" viewBox="0 0 76.833 32" enable-background="new 0 0 76.833 32" xml:space="preserve">
<g id="Selected_Items">
	<g>
		<g id="Selected_Items_20_">
			<path fill-rule="evenodd" clip-rule="evenodd" fill="#FFFFFF" d="M50.586,12.472h10.991l6.16,0.589
				c4.397,0.66,7.338,1.632,8.824,2.91c-1.672,1.466-4.468,2.478-8.392,3.034c-1.648,0.227-3.765,0.37-6.345,0.432H50.586
				c-0.062-0.432-0.176-0.647-0.34-0.647c-0.166,0-0.279,0.216-0.342,0.647h-0.062c-0.063-0.432-0.176-0.647-0.339-0.647
				c-0.167,0-0.278,0.216-0.34,0.647h-0.311c-0.165-0.432-0.402-0.647-0.714-0.647c-0.311,0-0.545,0.216-0.712,0.647H47.12
				c-0.063-0.432-0.177-0.647-0.341-0.647c-0.166,0-0.28,0.216-0.342,0.647h-0.062c-0.062-0.432-0.176-0.647-0.342-0.647
				c-0.164,0-0.278,0.216-0.34,0.647h-0.311c-0.123-0.432-0.36-0.647-0.71-0.647c-0.311,0-0.549,0.216-0.713,0.647h-0.278
				c-0.104-0.432-0.228-0.647-0.37-0.647c-0.166,0-0.279,0.216-0.341,0.647H42.94c-0.064-0.432-0.176-0.647-0.34-0.647
				c-0.146,0-0.27,0.216-0.372,0.647h-0.311c-0.124-0.432-0.353-0.647-0.681-0.647c-0.351,0-0.589,0.216-0.713,0.647h-0.308
				c-0.063-0.432-0.176-0.647-0.343-0.647c-0.165,0-0.279,0.216-0.341,0.647h-0.062c-0.062-0.432-0.176-0.647-0.34-0.647
				c-0.165,0-0.278,0.216-0.341,0.647H36.16c-0.311-0.185-0.557-0.256-0.744-0.214c-0.39,0.164-0.671,0.274-0.836,0.341
				l-0.557,0.061v0.435l-1.641,4.735l-1.858-0.527c0.311-0.433,0.495-0.949,0.558-1.546c0.125-1.157-0.423-2.076-1.642-2.757
				c-2.289-0.29-4.066-0.257-5.324,0.095c-0.517,0.165-3.313,0.213-8.391,0.152c-5.305-0.062-8.183-0.275-8.639-0.647
				c-0.329-0.084-0.599-0.074-0.805,0.03l-0.245,0.186c-1.302,1.155-2.094,1.732-2.385,1.732c-1.322,0-2.197-0.577-2.634-1.732
				c-0.308-0.783-0.495-1.756-0.557-2.911H0.4c-0.268,0-0.402-0.237-0.402-0.714c0-0.475,0.135-0.712,0.402-0.712h0.062
				c0.062-1.277,0.311-2.144,0.745-2.598c0.516-0.558,0.938-0.909,1.269-1.055c0.268-0.123,0.682-0.174,1.239-0.154
				c0.432,0.021,0.835,0.114,1.206,0.278c0.042,0.021,0.38,0.229,1.021,0.618c0.125,0.023,1.652-0.122,4.584-0.433
				c2.991-0.31,5.405-0.41,7.244-0.31c6.19,0.29,9.783,0.414,10.773,0.37c1.506-0.309,2.569-0.804,3.188-1.482
				c0.599-0.663,1.063-1.818,1.394-3.471l1.704,0.373l0.092,1.023l-0.773,2.257l-0.093,1.55l0.558,0.249
				c0.393,0.143,0.65,0.215,0.774,0.215c0.204,0,0.516-0.134,0.926-0.402h2.479c0.082,0.434,0.195,0.651,0.341,0.651
				c0.164,0,0.278-0.218,0.34-0.651h0.062c0.085,0.434,0.196,0.651,0.341,0.651c0.124,0,0.238-0.218,0.343-0.651h0.308
				c0.186,0.434,0.424,0.651,0.713,0.651c0.267,0,0.494-0.218,0.681-0.651h0.341c0.08,0.434,0.195,0.651,0.342,0.651
				c0.123,0,0.234-0.218,0.34-0.651h0.031c0.101,0.434,0.216,0.651,0.341,0.651c0.162,0,0.276-0.218,0.338-0.651h0.342
				c0.185,0.434,0.413,0.651,0.682,0.651c0.288,0,0.525-0.218,0.71-0.651h0.311c0.104,0.434,0.217,0.651,0.34,0.651
				c0.166,0,0.28-0.218,0.342-0.651h0.062c0.084,0.434,0.195,0.651,0.342,0.651c0.164,0,0.278-0.218,0.341-0.651h0.338
				c0.148,0.434,0.371,0.651,0.682,0.651c0.312,0,0.538-0.218,0.683-0.651h0.342c0.08,0.434,0.195,0.651,0.34,0.651
				c0.163,0,0.276-0.218,0.339-0.651h0.062c0.083,0.434,0.198,0.651,0.342,0.651C50.371,13.123,50.483,12.905,50.586,12.472z"/>
		</g>
	</g>
</g>
<g id="guides">
</g>
</svg>
