<?xml version="1.0" encoding="utf-8"?>
<!-- Generator: Adobe Illustrator 16.0.0, SVG Export Plug-In . SVG Version: 6.00 Build 0)  -->
<!DOCTYPE svg PUBLIC "-//W3C//DTD SVG 1.1//EN" "http://www.w3.org/Graphics/SVG/1.1/DTD/svg11.dtd">
<svg version="1.1" xmlns="http://www.w3.org/2000/svg" xmlns:xlink="http://www.w3.org/1999/xlink" x="0px" y="0px"
	 width="61.193px" height="32px" viewBox="0 0 61.193 32" enable-background="new 0 0 61.193 32" xml:space="preserve">
<g id="Selected_Items">
	<g>
		<g id="Selected_Items_26_">
			<path fill-rule="evenodd" clip-rule="evenodd" fill="#FFFFFF" d="M60.604,16.104c-0.443,0.344-0.894,0.677-1.349,0.996
				c-0.049,0.037-0.104,0.074-0.166,0.111c-1.674,1.096-3.17,1.81-4.487,2.142c-1.613,0.419-3.237,0.653-4.875,0.702
				c-1.699,0.062-3.342-0.074-4.93-0.406c-0.628-0.136-1.286-0.29-1.977-0.462c-0.786-0.197-1.262-0.308-1.421-0.332
				c-0.911-0.21-1.988-0.346-3.232-0.406c-1.268-0.073-3.096-0.08-5.483-0.019l-3.195,0.092l-0.202,0.444l-1.921-0.038
				c-0.024-0.061-0.073-0.136-0.146-0.222c-0.148-0.16-0.339-0.302-0.573-0.425c-0.234-0.11-0.485-0.197-0.757-0.259l-0.333-0.055
				l-0.109,1.588l-0.445,0.425c-0.332,0.333-0.572,0.635-0.719,0.904c-0.148,0.26-0.295,0.642-0.444,1.146
				c-0.086,0.246-0.152,0.462-0.202,0.646h-1.034c0-0.149,0.013-0.319,0.037-0.517c0.049-0.407,0.13-0.752,0.239-1.035
				c0.124-0.282,0.259-0.56,0.406-0.831l0.204-0.332c-0.086-0.161-0.196-0.338-0.333-0.535c-0.259-0.382-0.492-0.658-0.702-0.831
				c-0.222-0.159-0.437-0.376-0.645-0.646l-0.242-0.352c-0.221-0.123-0.479-0.234-0.774-0.333c-0.616-0.172-1.157-0.166-1.625,0.02
				c-0.099,0.036-0.597,0.27-1.495,0.7c-0.592,0.284-1.177,0.488-1.755,0.61c-0.651,0.147-1.581,0.167-2.789,0.055
				c-1.009-0.099-2.037-0.258-3.083-0.479c-1.096-0.271-1.864-0.45-2.309-0.536c-0.726-0.159-1.317-0.251-1.771-0.277
				c-0.443-0.011-0.937,0.014-1.478,0.075c-0.271,0.023-0.499,0.056-0.683,0.092l-0.686,0.555l-0.146,0.664
				c-0.11,0.456-0.221,0.714-0.332,0.775c-0.16,0.111-0.382,0.247-0.665,0.407l-0.479-0.037c-0.111-0.062-0.234-0.154-0.369-0.278
				c-0.259-0.232-0.444-0.492-0.554-0.774c-0.124-0.284-0.166-0.732-0.13-1.348l0.093-0.851L0,16.288v-0.85l0.407-0.203
				c0-0.21,0.011-0.443,0.036-0.702c0.049-0.517,0.13-0.88,0.239-1.09c0.136-0.246,0.284-0.411,0.444-0.498
				c0.123-0.074,0.325-0.135,0.608-0.185c0.196-0.037,0.353,0.006,0.462,0.13c0.05,0.061,0.08,0.122,0.092,0.185
				c1.157-0.074,2.444-0.149,3.86-0.223c2.856-0.159,4.968-0.228,6.333-0.203c1.219,0.013,3.016,0.104,5.392,0.276
				c2.179,0.174,3.397,0.253,3.656,0.242c0.405-0.026,0.77-0.087,1.09-0.186c0.185-0.049,0.431-0.136,0.739-0.259
				c0.209-0.062,0.363-0.056,0.461,0.02c0.062,0.035,0.099,0.085,0.111,0.147c0.123-0.112,0.271-0.246,0.442-0.407
				c0.32-0.308,0.554-0.585,0.702-0.83c0.159-0.26,0.289-0.555,0.388-0.887l0.092-0.443h0.887v0.462
				c-0.037,0.356-0.105,0.671-0.204,0.94c-0.099,0.271-0.245,0.543-0.442,0.813c-0.099,0.146-0.19,0.266-0.277,0.352l5.207,0.073
				l-0.332-0.518l1.22,0.518l0.867,0.037l-0.407-0.591l1.367,0.591h0.85l-0.407-0.591l1.367,0.628h0.795l-0.407-0.518l1.33,0.555
				l0.831,0.055l-0.351-0.609l1.274,0.609l0.886,0.038l-0.37-0.61l1.274,0.61l0.923,0.036l-0.442-0.592l1.163,0.592l0.961-0.074
				l-0.314-0.48l1.274,0.555l0.683,0.019c0.616,0,1.292-0.031,2.032-0.093c1.206-0.111,2.344-0.233,3.415-0.369l0.37,0.277
				c0.307,0.208,0.633,0.411,0.979,0.609c1.096,0.64,2.135,1.076,3.12,1.311c0.984,0.234,2.369,0.419,4.155,0.554
				c0.148,0.013,0.289,0.024,0.424,0.036c0.714,0.05,1.36,0.081,1.938,0.094L60.604,16.104z"/>
		</g>
	</g>
</g>
<g id="guides">
</g>
</svg>
