<?xml version="1.0" encoding="utf-8"?>
<!-- Generator: Adobe Illustrator 16.0.0, SVG Export Plug-In . SVG Version: 6.00 Build 0)  -->
<!DOCTYPE svg PUBLIC "-//W3C//DTD SVG 1.1//EN" "http://www.w3.org/Graphics/SVG/1.1/DTD/svg11.dtd">
<svg version="1.1" xmlns="http://www.w3.org/2000/svg" xmlns:xlink="http://www.w3.org/1999/xlink" x="0px" y="0px" width="82.5px"
	 height="32px" viewBox="0 0 82.5 32" enable-background="new 0 0 82.5 32" xml:space="preserve">
<g id="Selected_Items">
	<g>
		<g id="Selected_Items_25_">
			<g>
				<path fill-rule="evenodd" clip-rule="evenodd" fill="#FFFFFF" d="M35.559,17.937c-2.777,1.284-5.455,2.143-8.031,2.573
					c-2.224,0.379-4.532,0.67-6.933,0.871c-1.995,0.153-3.095,0.253-3.3,0.303c-0.274,0.053-0.54,0.09-0.793,0.114l-0.3,0.038
					c-0.457,0.103-0.723,0.203-0.797,0.303c0,0.153-0.078,0.379-0.229,0.682c-0.151,0.355-0.279,0.569-0.38,0.645l-0.304,0.19
					c-0.049,0-0.124-0.09-0.225-0.266c-0.053-0.152-0.127-0.518-0.229-1.098c-0.077-0.708-0.125-1.164-0.152-1.365
					c-0.127-0.43-0.505-0.974-1.135-1.627c-0.708-0.783-1.402-1.229-2.085-1.327c-0.783-0.103-1.503,0.023-2.159,0.377
					c-0.655,0.329-1.036,0.784-1.136,1.364c-0.152,0.706-0.203,1.313-0.152,1.82c0.103,0.808,0.442,1.741,1.024,2.803
					c0.125,0.302,0.011,0.783-0.341,1.441c-0.254,0.403-0.633,0.855-1.139,1.359c-0.757,0.709-1.352,0.961-1.78,0.759
					c-0.429-0.227-1.085-1.198-1.969-2.914c-0.455-0.888-0.949-1.857-1.479-2.918c-0.279-0.556-0.491-1.68-0.645-3.373
					c-0.049-0.833-0.088-1.629-0.113-2.385v-1.744c0.052-1.338,0.178-2.426,0.38-3.259c0.201-0.961,0.781-2.347,1.741-4.169
					c0.886-1.716,1.491-2.713,1.819-2.991C4.975,3.918,5.466,4.08,6.199,4.636c0.732,0.53,1.327,1.177,1.779,1.933
					c0.203,0.305,0.304,0.492,0.304,0.566c0.05,0.154,0,0.419-0.152,0.798C7.828,8.537,7.601,9.031,7.449,9.411
					c-0.304,0.681-0.456,1.246-0.456,1.702c0.026,0.685,0.054,1.161,0.078,1.44c0.1,0.43,0.253,0.77,0.455,1.024
					c0.452,0.454,0.972,0.781,1.551,0.984c0.455,0.15,0.847,0.203,1.174,0.15c0.456-0.052,0.974-0.251,1.555-0.604
					c0.835-0.508,1.441-1.163,1.818-1.972c0.152-0.302,0.292-0.858,0.417-1.669l0.303-1.511c0.052-0.203,0.102-0.317,0.15-0.343
					c0.053-0.025,0.114-0.037,0.19-0.037c0.025,0.024,0.178,0.252,0.457,0.682c0.277,0.479,0.44,0.77,0.491,0.87
					c0.076,0.076,0.238,0.139,0.49,0.189c0.129,0,0.241,0,0.345,0c0.199,0,0.301,0.052,0.301,0.149l4.281,0.269
					c3.082,0.151,5.076,0.354,5.987,0.605c0.275,0.076,0.945,0.216,2.006,0.418c0.962,0.202,1.769,0.377,2.425,0.531
					c1.517,0.402,2.881,0.944,4.092,1.628c0.48,0.251,0.936,0.52,1.362,0.794c0.557,0.354,0.999,0.621,1.327,0.797
					c0.53,0.378,0.796,0.594,0.796,0.644C37.884,16.809,36.719,17.403,35.559,17.937z M6.275,22.366
					c-0.05-0.074-0.089-0.162-0.115-0.264c-0.05-0.078-0.15-0.114-0.303-0.114c-0.201-0.05-0.605,0.114-1.211,0.493
					c-0.379,0.251-0.733,0.491-1.062,0.719c-0.101,0.075-0.14,0.202-0.115,0.379l0.076,0.227c0.229,0.381,0.444,0.758,0.645,1.135
					c0.507,0.759,0.834,1.165,0.986,1.214c0.175,0.052,0.492-0.113,0.946-0.492c0.403-0.303,0.632-0.518,0.681-0.646
					c0.053-0.076-0.013-0.491-0.189-1.249C6.463,22.985,6.349,22.518,6.275,22.366z M2.978,11.685
					c-0.202,0.024-0.403,0.126-0.604,0.302c-0.306,0.275-0.493,1.073-0.57,2.386l-0.037,1.857c0,0.505,0.037,1.035,0.114,1.591
					c0.102,1.087,0.263,1.819,0.493,2.197c0.177,0.279,0.402,0.454,0.682,0.529C3.308,20.6,3.56,20.59,3.811,20.51
					c0.253-0.074,1.049-0.771,2.388-2.084c1.337-1.314,1.995-2.057,1.97-2.234c0-0.177-0.72-0.921-2.159-2.234
					c-1.363-1.264-2.185-1.971-2.464-2.122C3.37,11.733,3.179,11.685,2.978,11.685z M6.463,6.795
					c-0.177-0.227-0.429-0.44-0.757-0.643C5.378,5.975,5.098,5.886,4.873,5.886c-0.176,0-0.519,0.481-1.022,1.439
					C3.345,8.287,3.104,8.829,3.129,8.957c0,0.074,0.05,0.162,0.15,0.262c0.102,0.13,0.204,0.203,0.305,0.229l1.779,0.909
					c0.078,0.077,0.165,0.11,0.267,0.11c0.251,0.079,0.404-0.022,0.454-0.3c0.051-0.227,0.178-0.819,0.379-1.78
					C6.59,7.528,6.59,6.998,6.463,6.795z"/>
				<path fill-rule="evenodd" clip-rule="evenodd" fill="#FFFFFF" d="M35.559,17.937c-2.777,1.284-5.455,2.143-8.031,2.573
					c-2.224,0.379-4.532,0.67-6.933,0.871c-1.995,0.153-3.095,0.253-3.3,0.303c-0.274,0.053-0.54,0.09-0.793,0.114l-0.3,0.038
					c-0.457,0.103-0.723,0.203-0.797,0.303c0,0.153-0.078,0.379-0.229,0.682c-0.151,0.355-0.279,0.569-0.38,0.645l-0.304,0.19
					c-0.049,0-0.124-0.09-0.225-0.266c-0.053-0.152-0.127-0.518-0.229-1.098c-0.077-0.708-0.125-1.164-0.152-1.365
					c-0.127-0.43-0.505-0.974-1.135-1.627c-0.708-0.783-1.402-1.229-2.085-1.327c-0.783-0.103-1.503,0.023-2.159,0.377
					c-0.655,0.329-1.036,0.784-1.136,1.364c-0.152,0.706-0.203,1.313-0.152,1.82c0.103,0.808,0.442,1.741,1.024,2.803
					c0.125,0.302,0.011,0.783-0.341,1.441c-0.254,0.403-0.633,0.855-1.139,1.359c-0.757,0.709-1.352,0.961-1.78,0.759
					c-0.429-0.227-1.085-1.198-1.969-2.914c-0.455-0.888-0.949-1.857-1.479-2.918c-0.279-0.556-0.491-1.68-0.645-3.373
					c-0.049-0.833-0.088-1.629-0.113-2.385v-1.744c0.052-1.338,0.178-2.426,0.38-3.259c0.201-0.961,0.781-2.347,1.741-4.169
					c0.886-1.716,1.491-2.713,1.819-2.991C4.975,3.918,5.466,4.08,6.199,4.636c0.732,0.53,1.327,1.177,1.779,1.933
					c0.203,0.305,0.304,0.492,0.304,0.566c0.05,0.154,0,0.419-0.152,0.798C7.828,8.537,7.601,9.031,7.449,9.411
					c-0.304,0.681-0.456,1.246-0.456,1.702c0.026,0.685,0.054,1.161,0.078,1.44c0.1,0.43,0.253,0.77,0.455,1.024
					c0.452,0.454,0.972,0.781,1.551,0.984c0.455,0.15,0.847,0.203,1.174,0.15c0.456-0.052,0.974-0.251,1.555-0.604
					c0.835-0.508,1.441-1.163,1.818-1.972c0.152-0.302,0.292-0.858,0.417-1.669l0.303-1.511c0.052-0.203,0.102-0.317,0.15-0.343
					c0.053-0.025,0.114-0.037,0.19-0.037c0.025,0.024,0.178,0.252,0.457,0.682c0.277,0.479,0.44,0.77,0.491,0.87
					c0.076,0.076,0.238,0.139,0.49,0.189c0.129,0,0.241,0,0.345,0c0.199,0,0.301,0.052,0.301,0.149l4.281,0.269
					c3.082,0.151,5.076,0.354,5.987,0.605c0.275,0.076,0.945,0.216,2.006,0.418c0.962,0.202,1.769,0.377,2.425,0.531
					c1.517,0.402,2.881,0.944,4.092,1.628c0.48,0.251,0.936,0.52,1.362,0.794c0.557,0.354,0.999,0.621,1.327,0.797
					c0.53,0.378,0.796,0.594,0.796,0.644C37.884,16.809,36.719,17.403,35.559,17.937z M6.463,6.795c0.127,0.203,0.127,0.733,0,1.593
					c-0.201,0.961-0.328,1.554-0.379,1.78c-0.05,0.277-0.203,0.379-0.454,0.3c-0.102,0-0.188-0.033-0.267-0.11L3.584,9.448
					c-0.101-0.026-0.203-0.1-0.305-0.229c-0.101-0.1-0.15-0.188-0.15-0.262C3.104,8.829,3.345,8.287,3.85,7.325
					c0.504-0.958,0.847-1.439,1.022-1.439c0.226,0,0.506,0.089,0.834,0.267C6.035,6.354,6.287,6.568,6.463,6.795z M2.978,11.685
					c0.201,0,0.392,0.049,0.567,0.15c0.279,0.151,1.101,0.858,2.464,2.122c1.439,1.313,2.159,2.058,2.159,2.234
					c0.025,0.178-0.633,0.92-1.97,2.234c-1.339,1.313-2.135,2.01-2.388,2.084c-0.251,0.08-0.503,0.09-0.756,0.037
					c-0.279-0.075-0.505-0.25-0.682-0.529c-0.23-0.378-0.392-1.11-0.493-2.197c-0.077-0.556-0.114-1.086-0.114-1.591l0.037-1.857
					c0.077-1.313,0.265-2.11,0.57-2.386C2.575,11.811,2.776,11.709,2.978,11.685z M6.275,22.366
					c0.074,0.151,0.188,0.619,0.339,1.401c0.177,0.758,0.242,1.173,0.189,1.249c-0.049,0.128-0.277,0.343-0.681,0.646
					c-0.454,0.379-0.771,0.544-0.946,0.492c-0.152-0.049-0.479-0.455-0.986-1.214c-0.2-0.377-0.416-0.754-0.645-1.135l-0.076-0.227
					c-0.024-0.177,0.015-0.304,0.115-0.379c0.328-0.228,0.683-0.468,1.062-0.719c0.605-0.379,1.01-0.543,1.211-0.493
					c0.152,0,0.253,0.036,0.303,0.114C6.186,22.204,6.225,22.292,6.275,22.366z"/>
			</g>
			<g>
				<path fill-rule="evenodd" clip-rule="evenodd" fill="#FFFFFF" d="M63.669,21.381c-1.995,0.153-3.094,0.253-3.296,0.303
					c-0.302,0.053-0.568,0.09-0.796,0.114l-0.302,0.038c-0.48,0.103-0.746,0.203-0.796,0.303c-0.025,0.153-0.103,0.379-0.229,0.682
					c-0.173,0.355-0.313,0.569-0.416,0.645l-0.266,0.19c-0.049,0-0.126-0.09-0.225-0.266c-0.077-0.152-0.153-0.518-0.229-1.098
					c-0.075-0.708-0.14-1.164-0.189-1.365c-0.125-0.43-0.493-0.974-1.1-1.627c-0.704-0.783-1.412-1.229-2.121-1.327
					c-0.757-0.103-1.463,0.023-2.12,0.377c-0.683,0.329-1.074,0.784-1.176,1.364c-0.124,0.706-0.163,1.313-0.114,1.82
					c0.102,0.808,0.431,1.741,0.986,2.803c0.152,0.302,0.051,0.783-0.301,1.441c-0.281,0.403-0.671,0.855-1.175,1.359
					c-0.734,0.709-1.315,0.961-1.746,0.759c-0.427-0.227-1.083-1.198-1.968-2.914c-0.481-0.888-0.973-1.857-1.479-2.918
					c-0.303-0.556-0.516-1.68-0.645-3.373c-0.074-0.833-0.112-1.629-0.112-2.385v-1.744c0.051-1.338,0.162-2.426,0.34-3.259
					c0.229-0.961,0.819-2.347,1.78-4.169c0.886-1.716,1.491-2.713,1.82-2.991c0.251-0.226,0.743-0.063,1.477,0.492
					c0.734,0.53,1.326,1.177,1.781,1.933c0.201,0.305,0.302,0.492,0.302,0.566c0.053,0.154,0,0.419-0.151,0.798
					c-0.303,0.604-0.53,1.099-0.682,1.479c-0.305,0.681-0.454,1.246-0.454,1.702c0,0.685,0.025,1.161,0.075,1.44
					c0.074,0.43,0.229,0.77,0.455,1.024c0.455,0.454,0.971,0.781,1.553,0.984c0.43,0.15,0.809,0.203,1.135,0.15
					c0.482-0.052,1.013-0.251,1.593-0.604c0.835-0.508,1.44-1.163,1.817-1.972c0.128-0.302,0.269-0.858,0.418-1.669l0.305-1.511
					c0.049-0.203,0.101-0.317,0.149-0.343c0.052-0.025,0.114-0.037,0.19-0.037c0.025,0.024,0.178,0.252,0.455,0.682
					c0.276,0.479,0.442,0.77,0.493,0.87c0.075,0.076,0.228,0.139,0.454,0.189c0.125,0,0.253,0,0.379,0
					c0.176,0,0.277,0.052,0.303,0.149l4.28,0.269c3.056,0.151,5.041,0.354,5.949,0.605c0.304,0.076,0.972,0.216,2.009,0.418
					c0.983,0.202,1.791,0.377,2.423,0.531c2.097,0.58,3.929,1.386,5.495,2.422c0.555,0.354,0.983,0.621,1.285,0.797
					c0.558,0.378,0.837,0.594,0.837,0.644c-4.069,2.299-7.92,3.752-11.555,4.356C68.369,20.889,66.068,21.18,63.669,21.381z
					 M46.886,20.51c0.253-0.074,1.049-0.771,2.387-2.084c1.339-1.314,1.997-2.057,1.97-2.234c0-0.177-0.72-0.921-2.16-2.234
					c-1.362-1.264-2.196-1.971-2.499-2.122c-0.178-0.102-0.354-0.15-0.53-0.15c-0.202,0.024-0.416,0.126-0.643,0.302
					c-0.305,0.275-0.48,1.073-0.531,2.386l-0.036,1.857c0,0.505,0.024,1.035,0.074,1.591c0.098,1.087,0.265,1.819,0.493,2.197
					c0.175,0.279,0.415,0.454,0.718,0.529C46.355,20.6,46.608,20.59,46.886,20.51z M49.199,22.103
					c-0.025-0.078-0.128-0.114-0.306-0.114c-0.176-0.05-0.579,0.114-1.212,0.493c-0.352,0.251-0.705,0.491-1.062,0.719
					c-0.099,0.075-0.123,0.202-0.073,0.379l0.037,0.227c0.228,0.381,0.457,0.758,0.682,1.135c0.479,0.759,0.809,1.165,0.984,1.214
					c0.178,0.052,0.48-0.113,0.91-0.492c0.403-0.303,0.646-0.518,0.719-0.646c0.028-0.076-0.036-0.491-0.188-1.249
					c-0.152-0.782-0.277-1.25-0.379-1.401C49.286,22.292,49.25,22.204,49.199,22.103z M49.499,6.795
					c-0.149-0.227-0.403-0.44-0.755-0.643c-0.328-0.178-0.594-0.267-0.796-0.267c-0.203,0-0.556,0.481-1.062,1.439
					c-0.506,0.962-0.746,1.504-0.717,1.632c0.022,0.074,0.072,0.162,0.149,0.262c0.1,0.13,0.202,0.203,0.301,0.229l1.783,0.909
					c0.102,0.077,0.201,0.11,0.302,0.11c0.253,0.079,0.404-0.022,0.455-0.3c0.025-0.227,0.138-0.819,0.339-1.78
					C49.653,7.528,49.653,6.998,49.499,6.795z"/>
				<path fill-rule="evenodd" clip-rule="evenodd" fill="#FFFFFF" d="M63.669,21.381c-1.995,0.153-3.094,0.253-3.296,0.303
					c-0.302,0.053-0.568,0.09-0.796,0.114l-0.302,0.038c-0.48,0.103-0.746,0.203-0.796,0.303c-0.025,0.153-0.103,0.379-0.229,0.682
					c-0.173,0.355-0.313,0.569-0.416,0.645l-0.266,0.19c-0.049,0-0.126-0.09-0.225-0.266c-0.077-0.152-0.153-0.518-0.229-1.098
					c-0.075-0.708-0.14-1.164-0.189-1.365c-0.125-0.43-0.493-0.974-1.1-1.627c-0.704-0.783-1.412-1.229-2.121-1.327
					c-0.757-0.103-1.463,0.023-2.12,0.377c-0.683,0.329-1.074,0.784-1.176,1.364c-0.124,0.706-0.163,1.313-0.114,1.82
					c0.102,0.808,0.431,1.741,0.986,2.803c0.152,0.302,0.051,0.783-0.301,1.441c-0.281,0.403-0.671,0.855-1.175,1.359
					c-0.734,0.709-1.315,0.961-1.746,0.759c-0.427-0.227-1.083-1.198-1.968-2.914c-0.481-0.888-0.973-1.857-1.479-2.918
					c-0.303-0.556-0.516-1.68-0.645-3.373c-0.074-0.833-0.112-1.629-0.112-2.385v-1.744c0.051-1.338,0.162-2.426,0.34-3.259
					c0.229-0.961,0.819-2.347,1.78-4.169c0.886-1.716,1.491-2.713,1.82-2.991c0.251-0.226,0.743-0.063,1.477,0.492
					c0.734,0.53,1.326,1.177,1.781,1.933c0.201,0.305,0.302,0.492,0.302,0.566c0.053,0.154,0,0.419-0.151,0.798
					c-0.303,0.604-0.53,1.099-0.682,1.479c-0.305,0.681-0.454,1.246-0.454,1.702c0,0.685,0.025,1.161,0.075,1.44
					c0.074,0.43,0.229,0.77,0.455,1.024c0.455,0.454,0.971,0.781,1.553,0.984c0.43,0.15,0.809,0.203,1.135,0.15
					c0.482-0.052,1.013-0.251,1.593-0.604c0.835-0.508,1.44-1.163,1.817-1.972c0.128-0.302,0.269-0.858,0.418-1.669l0.305-1.511
					c0.049-0.203,0.101-0.317,0.149-0.343c0.052-0.025,0.114-0.037,0.19-0.037c0.025,0.024,0.178,0.252,0.455,0.682
					c0.276,0.479,0.442,0.77,0.493,0.87c0.075,0.076,0.228,0.139,0.454,0.189c0.125,0,0.253,0,0.379,0
					c0.176,0,0.277,0.052,0.303,0.149l4.28,0.269c3.056,0.151,5.041,0.354,5.949,0.605c0.304,0.076,0.972,0.216,2.009,0.418
					c0.983,0.202,1.791,0.377,2.423,0.531c2.097,0.58,3.929,1.386,5.495,2.422c0.555,0.354,0.983,0.621,1.285,0.797
					c0.558,0.378,0.837,0.594,0.837,0.644c-4.069,2.299-7.92,3.752-11.555,4.356C68.369,20.889,66.068,21.18,63.669,21.381z
					 M49.499,6.795c0.154,0.203,0.154,0.733,0,1.593c-0.201,0.961-0.313,1.554-0.339,1.78c-0.051,0.277-0.202,0.379-0.455,0.3
					c-0.101,0-0.2-0.033-0.302-0.11L46.62,9.448c-0.099-0.026-0.201-0.1-0.301-0.229c-0.077-0.1-0.127-0.188-0.149-0.262
					c-0.029-0.128,0.211-0.67,0.717-1.632c0.506-0.958,0.858-1.439,1.062-1.439c0.202,0,0.468,0.089,0.796,0.267
					C49.095,6.354,49.349,6.568,49.499,6.795z M49.199,22.103c0.051,0.102,0.087,0.189,0.113,0.264
					c0.102,0.151,0.227,0.619,0.379,1.401c0.151,0.758,0.216,1.173,0.188,1.249c-0.073,0.128-0.315,0.343-0.719,0.646
					c-0.43,0.379-0.732,0.544-0.91,0.492c-0.176-0.049-0.505-0.455-0.984-1.214c-0.225-0.377-0.454-0.754-0.682-1.135l-0.037-0.227
					c-0.05-0.177-0.025-0.304,0.073-0.379c0.356-0.228,0.71-0.468,1.062-0.719c0.633-0.379,1.036-0.543,1.212-0.493
					C49.071,21.988,49.173,22.024,49.199,22.103z M46.886,20.51c-0.278,0.08-0.531,0.09-0.758,0.037
					c-0.303-0.075-0.543-0.25-0.718-0.529c-0.229-0.378-0.396-1.11-0.493-2.197c-0.05-0.556-0.074-1.086-0.074-1.591l0.036-1.857
					c0.051-1.313,0.227-2.11,0.531-2.386c0.227-0.176,0.44-0.277,0.643-0.302c0.176,0,0.353,0.049,0.53,0.15
					c0.303,0.151,1.137,0.858,2.499,2.122c1.44,1.313,2.16,2.058,2.16,2.234c0.027,0.178-0.631,0.92-1.97,2.234
					C47.935,19.739,47.139,20.436,46.886,20.51z"/>
			</g>
		</g>
	</g>
</g>
<g id="guides">
</g>
</svg>
