<?xml version="1.0" encoding="utf-8"?>
<!-- Generator: Adobe Illustrator 16.0.3, SVG Export Plug-In . SVG Version: 6.00 Build 0)  -->
<!DOCTYPE svg PUBLIC "-//W3C//DTD SVG 1.1//EN" "http://www.w3.org/Graphics/SVG/1.1/DTD/svg11.dtd">
<svg version="1.1" id="Selected_Items" xmlns="http://www.w3.org/2000/svg" xmlns:xlink="http://www.w3.org/1999/xlink" x="0px"
	 y="0px" width="95.563px" height="32px" viewBox="0 0 95.563 32" enable-background="new 0 0 95.563 32" xml:space="preserve">
<g>
	<g id="Selected_Items_20_">
		<path fill-rule="evenodd" clip-rule="evenodd" fill="#FFFFFF" d="M63.057,11.228h13.7l7.68,0.733
			c5.48,0.824,9.146,2.033,10.998,3.628c-2.083,1.827-5.569,3.087-10.458,3.781c-2.058,0.283-4.694,0.463-7.911,0.541H63.057
			C62.98,19.37,62.838,19.1,62.632,19.1c-0.205,0-0.347,0.271-0.424,0.811h-0.077c-0.077-0.541-0.219-0.811-0.424-0.811
			c-0.207,0-0.348,0.271-0.425,0.811h-0.386C60.69,19.37,60.395,19.1,60.009,19.1s-0.682,0.271-0.888,0.811h-0.386
			C58.658,19.37,58.517,19.1,58.31,19.1c-0.205,0-0.347,0.271-0.424,0.811h-0.077c-0.077-0.541-0.218-0.811-0.425-0.811
			c-0.205,0-0.347,0.271-0.424,0.811h-0.386c-0.154-0.541-0.451-0.811-0.887-0.811c-0.386,0-0.682,0.271-0.888,0.811h-0.348
			c-0.128-0.541-0.283-0.811-0.462-0.811c-0.207,0-0.348,0.271-0.425,0.811h-0.039c-0.077-0.541-0.219-0.811-0.424-0.811
			c-0.181,0-0.335,0.271-0.463,0.811h-0.386c-0.153-0.541-0.438-0.811-0.849-0.811c-0.438,0-0.733,0.271-0.888,0.811h-0.386
			c-0.077-0.541-0.218-0.811-0.424-0.811c-0.206,0-0.347,0.271-0.425,0.811h-0.076c-0.078-0.541-0.219-0.811-0.425-0.811
			c-0.206,0-0.347,0.271-0.424,0.811h-3.281c-0.386-0.231-0.694-0.321-0.926-0.27c-0.488,0.205-0.836,0.347-1.042,0.425
			l-0.694,0.077v0.54l-2.045,5.904l-2.316-0.655c0.386-0.542,0.618-1.184,0.694-1.93c0.155-1.441-0.527-2.586-2.044-3.435
			c-2.856-0.361-5.069-0.323-6.638,0.115c-0.642,0.206-4.129,0.271-10.458,0.192c-6.612-0.077-10.202-0.346-10.767-0.809
			c-0.412-0.104-0.746-0.091-1.003,0.039l-0.309,0.231c-1.621,1.441-2.61,2.161-2.971,2.161c-1.647,0-2.74-0.72-3.281-2.161
			c-0.385-0.978-0.618-2.188-0.694-3.627H0.502C0.167,16.708,0,16.412,0,15.82s0.167-0.888,0.502-0.888h0.077
			c0.077-1.594,0.386-2.675,0.926-3.241c0.644-0.694,1.171-1.132,1.583-1.313c0.333-0.153,0.848-0.218,1.543-0.193
			c0.54,0.025,1.042,0.142,1.505,0.348c0.051,0.025,0.475,0.283,1.273,0.771c0.154,0.026,2.058-0.153,5.712-0.54
			c3.73-0.386,6.74-0.514,9.03-0.386c7.718,0.361,12.195,0.515,13.429,0.464c1.879-0.387,3.203-1.003,3.976-1.853
			c0.746-0.823,1.324-2.264,1.736-4.322l2.123,0.463l0.116,1.274l-0.965,2.817l-0.115,1.931l0.694,0.308
			c0.49,0.181,0.811,0.271,0.965,0.271c0.257,0,0.644-0.167,1.158-0.502h3.087c0.103,0.54,0.244,0.811,0.424,0.811
			c0.207,0,0.347-0.271,0.425-0.811h0.076c0.104,0.54,0.245,0.811,0.425,0.811c0.154,0,0.295-0.271,0.424-0.811h0.386
			c0.232,0.54,0.528,0.811,0.888,0.811c0.335,0,0.617-0.271,0.849-0.811h0.424c0.103,0.54,0.245,0.811,0.425,0.811
			c0.154,0,0.295-0.271,0.424-0.811h0.039c0.128,0.54,0.27,0.811,0.425,0.811c0.205,0,0.347-0.271,0.424-0.811h0.424
			c0.231,0.54,0.515,0.811,0.85,0.811c0.36,0,0.656-0.271,0.887-0.811h0.386c0.13,0.54,0.271,0.811,0.424,0.811
			c0.208,0,0.349-0.271,0.425-0.811h0.077c0.104,0.54,0.245,0.811,0.424,0.811c0.207,0,0.348-0.271,0.425-0.811h0.424
			c0.181,0.54,0.463,0.811,0.85,0.811s0.669-0.271,0.849-0.811h0.425c0.103,0.54,0.244,0.811,0.425,0.811
			c0.205,0,0.347-0.271,0.424-0.811h0.077c0.103,0.54,0.245,0.811,0.424,0.811C62.787,12.038,62.929,11.767,63.057,11.228z"/>
	</g>
</g>
</svg>
