<?xml version="1.0" encoding="utf-8"?>
<!-- Generator: Adobe Illustrator 16.0.0, SVG Export Plug-In . SVG Version: 6.00 Build 0)  -->
<!DOCTYPE svg PUBLIC "-//W3C//DTD SVG 1.1//EN" "http://www.w3.org/Graphics/SVG/1.1/DTD/svg11.dtd">
<svg version="1.1" id="Layer_1" xmlns="http://www.w3.org/2000/svg" xmlns:xlink="http://www.w3.org/1999/xlink" x="0px" y="0px"
	 width="79.808px" height="32px" viewBox="0 0 79.808 32" enable-background="new 0 0 79.808 32" xml:space="preserve">
<g id="Selected_Items">
	<g>
		<g id="Selected_Items_31_">
			<path fill="#FFFFFF" d="M78.096,12.723l-3.506-0.042v-0.155l-2.355,0.039l-0.463,0.153l-4.09-0.038l0.811,0.155v0.695
				l-0.193,0.232l-0.887-0.039v0.309h-0.656v-1.158h0.154v-0.156l-2.51-0.076l-0.076,0.232l-0.078,0.578
				c-0.025,0.051-0.051,0.09-0.076,0.116c-0.051,0.051-0.117,0.077-0.193,0.077c-0.051-0.025-0.117-0.064-0.193-0.115l-0.154-0.078
				l0.039-0.541l-0.078-0.231h-0.5l-0.041,0.849c-0.025,0.076-0.076,0.128-0.152,0.154l-0.154,0.116h-0.271l-0.23,0.502L48,14.417
				l-0.27-0.153l-0.348-0.078l-0.733,0.27l-0.077-0.965l-0.696,0.04l0.038,0.617l-0.038,0.078c-0.026,0.077-0.064,0.141-0.116,0.192
				c-0.052,0.026-0.129,0.052-0.232,0.078l-0.116,0.039c-0.025-0.026-0.065-0.039-0.116-0.039c-0.103,0-0.179,0.051-0.232,0.155
				c-0.052,0.077-0.103,0.154-0.154,0.231l-0.077,0.154v3.279l0.23,0.078l0.039,0.271l-0.502,0.191v1.197
				c0.052,0.926,0.168,1.787,0.348,2.584c0.181,0.799,0.463,1.803,0.849,3.012c0.181,0.617,0.348,1.145,0.502,1.58l0.153,0.195
				l-5.826,1.621h-0.154v-0.156c-0.18-0.617-0.386-1.299-0.618-2.045c-0.438-1.543-0.733-2.688-0.888-3.434
				c-0.153-0.746-0.258-1.518-0.309-2.314l-0.077-1.004l-0.425,0.078l-0.54-0.078h-3.627l-1.196,0.115c-0.052,0-0.116,0-0.192,0
				c-0.181,0-0.323,0.039-0.425,0.117c-0.077,0.076-0.155,0.154-0.232,0.23l-0.848,1.621l0.423,0.502l-0.115,0.076
				c-0.155,0.053-0.335,0.129-0.542,0.232c-0.102,0.051-0.192,0.127-0.269,0.23l-0.078,0.117l-1.66,3.242
				c-0.051,0.102-0.063,0.205-0.038,0.307c0.025,0.078,0.09,0.18,0.193,0.309c0.051,0.051,0.102,0.09,0.154,0.117l-0.154,0.346
				l-5.441-1.273l4.901-8.49c0.051-0.102,0.089-0.217,0.116-0.348c0.103-0.23,0.129-0.461,0.077-0.693
				c-0.077-0.282-0.166-0.514-0.27-0.693c-0.128-0.18-0.27-0.335-0.424-0.463c-0.155-0.103-0.309-0.18-0.463-0.232l-1.235-0.039
				v0.155l-0.348,0.038l-0.038-2.123l-0.965-0.038l-0.039-0.348h-3.897l-0.926,0.695l-3.667,0.078v0.348l-3.203,0.039l0.039,2.006
				H10.99v0.812H9.91v-0.771L6.282,18.59v-1.854L1.689,18.82l-0.038,0.771l-0.039,0.115c-0.052,0.104-0.117,0.154-0.193,0.154
				c-0.076,0-0.128-0.051-0.154-0.154l-0.039-0.119L1.305,9.325h4.09C5.472,9.35,5.522,9.4,5.548,9.479
				c0.051,0.103,0.09,0.283,0.117,0.54l10.535,0.117c0.052,0.026,0.09,0.051,0.115,0.076c0.051,0.052,0.077,0.116,0.077,0.192
				l8.529,0.04l-0.039-0.348h1.003v-0.27l0.347-0.038l0.039,0.269l1.002-0.038V9.556h1.004l0.078,0.078l2.585-4.13l0.115-0.153
				c0.104-0.129,0.206-0.206,0.31-0.231c0.102-0.078,0.232-0.129,0.385-0.155c0.078,0,0.155,0,0.232,0l12.851,1.389l0.385,0.077
				c0.309,0.103,0.527,0.232,0.656,0.386c0.128,0.181,0.257,0.399,0.385,0.656c0.052,0.128,0.104,0.244,0.154,0.348l-0.076,2.508
				l0.27-0.039l0.038-1.12l0.811,0.155V9.054l0.27-0.039c0-0.025,0-0.051,0-0.076c0.026-0.052,0.052-0.091,0.077-0.117
				c0.051-0.026,0.117-0.051,0.193-0.077l14.279,0.231l0.154,0.31V9.67l0.387,0.04l0.076,0.038c0.078,0.051,0.115,0.103,0.115,0.154
				c0.025,0.103,0.053,0.412,0.078,0.926h0.502l0.039-1.504l2.354-3.319l0.23-0.193c0.154-0.129,0.309-0.18,0.463-0.154
				c0.387,0.051,0.67,0.192,0.85,0.424c0.076,0.077,0.115,0.167,0.115,0.27c0,0.051-0.014,0.09-0.039,0.116l0.039,4.36h4.092
				l0.539,0.193l2.316-0.038v-0.155l3.508-0.034 M66.793,8.552C66.715,8.5,66.65,8.437,66.6,8.358
				c-0.025-0.077-0.078-0.244-0.154-0.501l-0.039-0.386l-0.889-0.077l-1.389,2.16l0.195,0.155h2.623l0.191-0.232V8.552H66.793z
				 M64.361,10.829h2.469l0.117-0.385h-2.586V10.829z M44.912,6.97H34.105c-0.077,0-0.167,0-0.269,0
				c-0.181,0.052-0.322,0.116-0.425,0.193c-0.103,0.078-0.219,0.193-0.347,0.347L32.91,7.703l-0.617,1.506l0.231,0.231l12.311-0.078
				l0.153-0.038c0.104-0.026,0.206-0.078,0.309-0.155c0.309-0.206,0.463-0.541,0.463-1.004c0-0.386-0.142-0.694-0.425-0.925
				c-0.103-0.078-0.206-0.142-0.308-0.193L44.912,6.97z M4.932,14.226l-0.155-0.039H1.921l-0.154,0.039
				c-0.078,0.077-0.116,0.154-0.116,0.231s0.051,0.141,0.154,0.193c0.025,0.026,0.064,0.051,0.116,0.077h2.895
				c0.052-0.026,0.09-0.064,0.116-0.116c0.077-0.077,0.116-0.141,0.116-0.193C5.047,14.34,5.009,14.278,4.932,14.226z M1.651,9.67
				v0.425h3.666c0-0.077-0.013-0.167-0.039-0.27c0-0.077-0.039-0.128-0.116-0.155L5.009,9.632L1.651,9.67z M37.117,17.041
				c-0.103-0.051-0.206-0.088-0.309-0.114h-1.466c-0.103,0.075-0.219,0.192-0.348,0.346c-0.206,0.335-0.321,0.644-0.348,0.927
				c-0.025,0.281,0.066,0.564,0.271,0.848c0.103,0.129,0.218,0.234,0.348,0.309l-0.155,0.117c-0.154-0.078-0.321-0.207-0.502-0.387
				c-0.333-0.309-0.514-0.643-0.54-1.002c-0.025-0.232,0.026-0.502,0.155-0.812l0.154-0.346c-0.232,0.024-0.451,0.103-0.657,0.229
				c-0.462,0.309-0.667,0.76-0.616,1.352c0.026,0.334,0.193,0.643,0.501,0.926c0.154,0.154,0.309,0.271,0.463,0.35h3.473V19.32
				c0.129-0.104,0.231-0.258,0.309-0.465c0.128-0.359,0.103-0.758-0.078-1.195C37.644,17.402,37.426,17.197,37.117,17.041z"/>
		</g>
	</g>
</g>
<g id="guides">
</g>
</svg>
